%TF.GenerationSoftware,KiCad,Pcbnew,8.0.0*%
%TF.CreationDate,2024-07-15T09:45:36-07:00*%
%TF.ProjectId,grogu-dib-board,67726f67-752d-4646-9962-2d626f617264,rev?*%
%TF.SameCoordinates,Original*%
%TF.FileFunction,Paste,Bot*%
%TF.FilePolarity,Positive*%
%FSLAX46Y46*%
G04 Gerber Fmt 4.6, Leading zero omitted, Abs format (unit mm)*
G04 Created by KiCad (PCBNEW 8.0.0) date 2024-07-15 09:45:36*
%MOMM*%
%LPD*%
G01*
G04 APERTURE LIST*
G04 Aperture macros list*
%AMRoundRect*
0 Rectangle with rounded corners*
0 $1 Rounding radius*
0 $2 $3 $4 $5 $6 $7 $8 $9 X,Y pos of 4 corners*
0 Add a 4 corners polygon primitive as box body*
4,1,4,$2,$3,$4,$5,$6,$7,$8,$9,$2,$3,0*
0 Add four circle primitives for the rounded corners*
1,1,$1+$1,$2,$3*
1,1,$1+$1,$4,$5*
1,1,$1+$1,$6,$7*
1,1,$1+$1,$8,$9*
0 Add four rect primitives between the rounded corners*
20,1,$1+$1,$2,$3,$4,$5,0*
20,1,$1+$1,$4,$5,$6,$7,0*
20,1,$1+$1,$6,$7,$8,$9,0*
20,1,$1+$1,$8,$9,$2,$3,0*%
G04 Aperture macros list end*
%ADD10RoundRect,0.137160X0.320040X0.320040X-0.320040X0.320040X-0.320040X-0.320040X0.320040X-0.320040X0*%
G04 APERTURE END LIST*
D10*
%TO.C,U1*%
X76741800Y-139083600D03*
X76741800Y-137966000D03*
X76741800Y-136848400D03*
X76741800Y-135730800D03*
X76741800Y-134613200D03*
X76741800Y-133495600D03*
X76741800Y-132378000D03*
X76741800Y-131260400D03*
X76741800Y-130142800D03*
X76741800Y-126790000D03*
X76741800Y-125672400D03*
X76741800Y-124554800D03*
X76741800Y-123437200D03*
X76741800Y-122319600D03*
X76741800Y-121202000D03*
X76741800Y-120084400D03*
X76741800Y-118966800D03*
X76741800Y-117849200D03*
X76741800Y-114496400D03*
X76741800Y-113378800D03*
X76741800Y-112261200D03*
X76741800Y-111143600D03*
X76741800Y-110026000D03*
X76741800Y-108908400D03*
X76741800Y-107790800D03*
X76741800Y-106673200D03*
X76741800Y-105555600D03*
X76741800Y-102202800D03*
X76741800Y-101085200D03*
X76741800Y-99967600D03*
X76741800Y-98850000D03*
X76741800Y-97732400D03*
X76741800Y-96614800D03*
X76741800Y-95497200D03*
X76741800Y-94379600D03*
X76741800Y-93262000D03*
X76741800Y-88791600D03*
X76741800Y-87674000D03*
X76741800Y-86556400D03*
X76741800Y-85438800D03*
X76741800Y-84321200D03*
X76741800Y-83203600D03*
X76741800Y-82086000D03*
X76741800Y-80968400D03*
X76741800Y-79850800D03*
X76741800Y-76498000D03*
X76741800Y-75380400D03*
X76741800Y-74262800D03*
X76741800Y-73145200D03*
X76741800Y-72027600D03*
X76741800Y-70910000D03*
X76741800Y-69792400D03*
X76741800Y-68674800D03*
X76741800Y-67557200D03*
X76741800Y-64204400D03*
X76741800Y-63086800D03*
X76741800Y-61969200D03*
X76741800Y-60851600D03*
X76741800Y-59734000D03*
X76741800Y-58616400D03*
X76741800Y-57498800D03*
X76741800Y-56381200D03*
X76741800Y-55263600D03*
X76741800Y-51910800D03*
X76741800Y-50793200D03*
X76741800Y-49675600D03*
X76741800Y-48558000D03*
X76741800Y-47440400D03*
X76741800Y-46322800D03*
X76741800Y-45205200D03*
X76741800Y-44087600D03*
X76741800Y-42970000D03*
X75624200Y-139083600D03*
X75624200Y-137966000D03*
X75624200Y-136848400D03*
X75624200Y-135730800D03*
X75624200Y-134613200D03*
X75624200Y-133495600D03*
X75624200Y-132378000D03*
X75624200Y-131260400D03*
X75624200Y-130142800D03*
X75624200Y-126790000D03*
X75624200Y-125672400D03*
X75624200Y-124554800D03*
X75624200Y-123437200D03*
X75624200Y-122319600D03*
X75624200Y-121202000D03*
X75624200Y-120084400D03*
X75624200Y-118966800D03*
X75624200Y-117849200D03*
X75624200Y-114496400D03*
X75624200Y-113378800D03*
X75624200Y-112261200D03*
X75624200Y-111143600D03*
X75624200Y-110026000D03*
X75624200Y-108908400D03*
X75624200Y-107790800D03*
X75624200Y-106673200D03*
X75624200Y-105555600D03*
X75624200Y-102202800D03*
X75624200Y-101085200D03*
X75624200Y-99967600D03*
X75624200Y-98850000D03*
X75624200Y-97732400D03*
X75624200Y-96614800D03*
X75624200Y-95497200D03*
X75624200Y-94379600D03*
X75624200Y-93262000D03*
X75624200Y-88791600D03*
X75624200Y-87674000D03*
X75624200Y-86556400D03*
X75624200Y-85438800D03*
X75624200Y-84321200D03*
X75624200Y-83203600D03*
X75624200Y-82086000D03*
X75624200Y-80968400D03*
X75624200Y-79850800D03*
X75624200Y-76498000D03*
X75624200Y-75380400D03*
X75624200Y-74262800D03*
X75624200Y-73145200D03*
X75624200Y-72027600D03*
X75624200Y-70910000D03*
X75624200Y-69792400D03*
X75624200Y-68674800D03*
X75624200Y-67557200D03*
X75624200Y-64204400D03*
X75624200Y-63086800D03*
X75624200Y-61969200D03*
X75624200Y-60851600D03*
X75624200Y-59734000D03*
X75624200Y-58616400D03*
X75624200Y-57498800D03*
X75624200Y-56381200D03*
X75624200Y-55263600D03*
X75624200Y-51910800D03*
X75624200Y-50793200D03*
X75624200Y-49675600D03*
X75624200Y-48558000D03*
X75624200Y-47440400D03*
X75624200Y-46322800D03*
X75624200Y-45205200D03*
X75624200Y-44087600D03*
X75624200Y-42970000D03*
X74506600Y-139083600D03*
X74506600Y-137966000D03*
X74506600Y-136848400D03*
X74506600Y-135730800D03*
X74506600Y-134613200D03*
X74506600Y-133495600D03*
X74506600Y-132378000D03*
X74506600Y-131260400D03*
X74506600Y-130142800D03*
X74506600Y-126790000D03*
X74506600Y-125672400D03*
X74506600Y-124554800D03*
X74506600Y-123437200D03*
X74506600Y-122319600D03*
X74506600Y-121202000D03*
X74506600Y-120084400D03*
X74506600Y-118966800D03*
X74506600Y-117849200D03*
X74506600Y-114496400D03*
X74506600Y-113378800D03*
X74506600Y-112261200D03*
X74506600Y-111143600D03*
X74506600Y-110026000D03*
X74506600Y-108908400D03*
X74506600Y-107790800D03*
X74506600Y-106673200D03*
X74506600Y-105555600D03*
X74506600Y-102202800D03*
X74506600Y-101085200D03*
X74506600Y-99967600D03*
X74506600Y-98850000D03*
X74506600Y-97732400D03*
X74506600Y-96614800D03*
X74506600Y-95497200D03*
X74506600Y-94379600D03*
X74506600Y-93262000D03*
X74506600Y-88791600D03*
X74506600Y-87674000D03*
X74506600Y-86556400D03*
X74506600Y-85438800D03*
X74506600Y-84321200D03*
X74506600Y-83203600D03*
X74506600Y-82086000D03*
X74506600Y-80968400D03*
X74506600Y-79850800D03*
X74506600Y-76498000D03*
X74506600Y-75380400D03*
X74506600Y-74262800D03*
X74506600Y-73145200D03*
X74506600Y-72027600D03*
X74506600Y-70910000D03*
X74506600Y-69792400D03*
X74506600Y-68674800D03*
X74506600Y-67557200D03*
X74506600Y-64204400D03*
X74506600Y-63086800D03*
X74506600Y-61969200D03*
X74506600Y-60851600D03*
X74506600Y-59734000D03*
X74506600Y-58616400D03*
X74506600Y-57498800D03*
X74506600Y-56381200D03*
X74506600Y-55263600D03*
X74506600Y-51910800D03*
X74506600Y-50793200D03*
X74506600Y-49675600D03*
X74506600Y-48558000D03*
X74506600Y-47440400D03*
X74506600Y-46322800D03*
X74506600Y-45205200D03*
X74506600Y-44087600D03*
X74506600Y-42970000D03*
X73389000Y-139083600D03*
X73389000Y-137966000D03*
X73389000Y-136848400D03*
X73389000Y-135730800D03*
X73389000Y-134613200D03*
X73389000Y-133495600D03*
X73389000Y-132378000D03*
X73389000Y-131260400D03*
X73389000Y-130142800D03*
X73389000Y-126790000D03*
X73389000Y-125672400D03*
X73389000Y-124554800D03*
X73389000Y-123437200D03*
X73389000Y-122319600D03*
X73389000Y-121202000D03*
X73389000Y-120084400D03*
X73389000Y-118966800D03*
X73389000Y-117849200D03*
X73389000Y-114496400D03*
X73389000Y-113378800D03*
X73389000Y-112261200D03*
X73389000Y-111143600D03*
X73389000Y-110026000D03*
X73389000Y-108908400D03*
X73389000Y-107790800D03*
X73389000Y-106673200D03*
X73389000Y-105555600D03*
X73389000Y-102202800D03*
X73389000Y-101085200D03*
X73389000Y-99967600D03*
X73389000Y-98850000D03*
X73389000Y-97732400D03*
X73389000Y-96614800D03*
X73389000Y-95497200D03*
X73389000Y-94379600D03*
X73389000Y-93262000D03*
X73389000Y-88791600D03*
X73389000Y-87674000D03*
X73389000Y-86556400D03*
X73389000Y-85438800D03*
X73389000Y-84321200D03*
X73389000Y-83203600D03*
X73389000Y-82086000D03*
X73389000Y-80968400D03*
X73389000Y-79850800D03*
X73389000Y-76498000D03*
X73389000Y-75380400D03*
X73389000Y-74262800D03*
X73389000Y-73145200D03*
X73389000Y-72027600D03*
X73389000Y-70910000D03*
X73389000Y-69792400D03*
X73389000Y-68674800D03*
X73389000Y-67557200D03*
X73389000Y-64204400D03*
X73389000Y-63086800D03*
X73389000Y-61969200D03*
X73389000Y-60851600D03*
X73389000Y-59734000D03*
X73389000Y-58616400D03*
X73389000Y-57498800D03*
X73389000Y-56381200D03*
X73389000Y-55263600D03*
X73389000Y-51910800D03*
X73389000Y-50793200D03*
X73389000Y-49675600D03*
X73389000Y-48558000D03*
X73389000Y-47440400D03*
X73389000Y-46322800D03*
X73389000Y-45205200D03*
X73389000Y-44087600D03*
X73389000Y-42970000D03*
X72271400Y-139083600D03*
X72271400Y-137966000D03*
X72271400Y-136848400D03*
X72271400Y-135730800D03*
X72271400Y-131260400D03*
X72271400Y-130142800D03*
X72271400Y-126790000D03*
X72271400Y-125672400D03*
X72271400Y-124554800D03*
X72271400Y-123437200D03*
X72271400Y-122319600D03*
X72271400Y-121202000D03*
X72271400Y-120084400D03*
X72271400Y-118966800D03*
X72271400Y-117849200D03*
X72271400Y-114496400D03*
X72271400Y-113378800D03*
X72271400Y-112261200D03*
X72271400Y-111143600D03*
X72271400Y-110026000D03*
X72271400Y-108908400D03*
X72271400Y-107790800D03*
X72271400Y-106673200D03*
X72271400Y-105555600D03*
X72271400Y-102202800D03*
X72271400Y-101085200D03*
X72271400Y-99967600D03*
X72271400Y-96614800D03*
X72271400Y-95497200D03*
X72271400Y-94379600D03*
X72271400Y-93262000D03*
X72271400Y-88791600D03*
X72271400Y-87674000D03*
X72271400Y-86556400D03*
X72271400Y-85438800D03*
X72271400Y-82086000D03*
X72271400Y-80968400D03*
X72271400Y-79850800D03*
X72271400Y-76498000D03*
X72271400Y-75380400D03*
X72271400Y-74262800D03*
X72271400Y-73145200D03*
X72271400Y-72027600D03*
X72271400Y-70910000D03*
X72271400Y-69792400D03*
X72271400Y-68674800D03*
X72271400Y-67557200D03*
X72271400Y-64204400D03*
X72271400Y-63086800D03*
X72271400Y-61969200D03*
X72271400Y-60851600D03*
X72271400Y-59734000D03*
X72271400Y-58616400D03*
X72271400Y-57498800D03*
X72271400Y-56381200D03*
X72271400Y-55263600D03*
X72271400Y-51910800D03*
X72271400Y-50793200D03*
X72271400Y-46322800D03*
X72271400Y-45205200D03*
X72271400Y-44087600D03*
X72271400Y-42970000D03*
X71153800Y-139083600D03*
X71153800Y-137966000D03*
X71153800Y-136848400D03*
X71153800Y-135730800D03*
X71153800Y-131260400D03*
X71153800Y-130142800D03*
X71153800Y-126790000D03*
X71153800Y-125672400D03*
X71153800Y-124554800D03*
X71153800Y-123437200D03*
X71153800Y-122319600D03*
X71153800Y-121202000D03*
X71153800Y-120084400D03*
X71153800Y-118966800D03*
X71153800Y-117849200D03*
X71153800Y-114496400D03*
X71153800Y-113378800D03*
X71153800Y-112261200D03*
X71153800Y-111143600D03*
X71153800Y-110026000D03*
X71153800Y-108908400D03*
X71153800Y-107790800D03*
X71153800Y-106673200D03*
X71153800Y-105555600D03*
X71153800Y-102202800D03*
X71153800Y-101085200D03*
X71153800Y-99967600D03*
X71153800Y-96614800D03*
X71153800Y-95497200D03*
X71153800Y-94379600D03*
X71153800Y-93262000D03*
X71153800Y-88791600D03*
X71153800Y-87674000D03*
X71153800Y-86556400D03*
X71153800Y-85438800D03*
X71153800Y-82086000D03*
X71153800Y-80968400D03*
X71153800Y-79850800D03*
X71153800Y-76498000D03*
X71153800Y-75380400D03*
X71153800Y-74262800D03*
X71153800Y-73145200D03*
X71153800Y-72027600D03*
X71153800Y-70910000D03*
X71153800Y-69792400D03*
X71153800Y-68674800D03*
X71153800Y-67557200D03*
X71153800Y-64204400D03*
X71153800Y-63086800D03*
X71153800Y-61969200D03*
X71153800Y-60851600D03*
X71153800Y-59734000D03*
X71153800Y-58616400D03*
X71153800Y-57498800D03*
X71153800Y-56381200D03*
X71153800Y-55263600D03*
X71153800Y-51910800D03*
X71153800Y-50793200D03*
X71153800Y-46322800D03*
X71153800Y-45205200D03*
X71153800Y-44087600D03*
X71153800Y-42970000D03*
X70036200Y-139083600D03*
X70036200Y-137966000D03*
X70036200Y-136848400D03*
X70036200Y-135730800D03*
X70036200Y-134613200D03*
X70036200Y-133495600D03*
X70036200Y-132378000D03*
X70036200Y-131260400D03*
X70036200Y-130142800D03*
X70036200Y-126790000D03*
X70036200Y-125672400D03*
X70036200Y-124554800D03*
X70036200Y-123437200D03*
X70036200Y-122319600D03*
X70036200Y-121202000D03*
X70036200Y-120084400D03*
X70036200Y-118966800D03*
X70036200Y-117849200D03*
X70036200Y-114496400D03*
X70036200Y-113378800D03*
X70036200Y-112261200D03*
X70036200Y-111143600D03*
X70036200Y-110026000D03*
X70036200Y-108908400D03*
X70036200Y-107790800D03*
X70036200Y-106673200D03*
X70036200Y-105555600D03*
X70036200Y-102202800D03*
X70036200Y-101085200D03*
X70036200Y-99967600D03*
X70036200Y-98850000D03*
X70036200Y-97732400D03*
X70036200Y-96614800D03*
X70036200Y-95497200D03*
X70036200Y-94379600D03*
X70036200Y-93262000D03*
X70036200Y-88791600D03*
X70036200Y-87674000D03*
X70036200Y-86556400D03*
X70036200Y-85438800D03*
X70036200Y-84321200D03*
X70036200Y-83203600D03*
X70036200Y-82086000D03*
X70036200Y-80968400D03*
X70036200Y-79850800D03*
X70036200Y-76498000D03*
X70036200Y-75380400D03*
X70036200Y-74262800D03*
X70036200Y-73145200D03*
X70036200Y-72027600D03*
X70036200Y-70910000D03*
X70036200Y-69792400D03*
X70036200Y-68674800D03*
X70036200Y-67557200D03*
X70036200Y-64204400D03*
X70036200Y-63086800D03*
X70036200Y-61969200D03*
X70036200Y-60851600D03*
X70036200Y-59734000D03*
X70036200Y-58616400D03*
X70036200Y-57498800D03*
X70036200Y-56381200D03*
X70036200Y-55263600D03*
X70036200Y-51910800D03*
X70036200Y-50793200D03*
X70036200Y-49675600D03*
X70036200Y-48558000D03*
X70036200Y-47440400D03*
X70036200Y-46322800D03*
X70036200Y-45205200D03*
X70036200Y-44087600D03*
X70036200Y-42970000D03*
%TD*%
M02*
