%TF.GenerationSoftware,KiCad,Pcbnew,8.0.3*%
%TF.CreationDate,2024-07-10T08:51:58-07:00*%
%TF.ProjectId,samtec-ptl-dib-mockup-1,73616d74-6563-42d7-9074-6c2d6469622d,rev?*%
%TF.SameCoordinates,Original*%
%TF.FileFunction,Profile,NP*%
%FSLAX46Y46*%
G04 Gerber Fmt 4.6, Leading zero omitted, Abs format (unit mm)*
G04 Created by KiCad (PCBNEW 8.0.3) date 2024-07-10 08:51:58*
%MOMM*%
%LPD*%
G01*
G04 APERTURE LIST*
%TA.AperFunction,Profile*%
%ADD10C,0.250000*%
%TD*%
%ADD11C,0.250000*%
%TA.AperFunction,Profile*%
%ADD12C,0.025400*%
%TD*%
%TA.AperFunction,Profile*%
%ADD13C,0.050000*%
%TD*%
G04 APERTURE END LIST*
D10*
X77768450Y-116225320D02*
G75*
G02*
X76892150Y-116225320I-438150J0D01*
G01*
X76892150Y-116225320D02*
G75*
G02*
X77768450Y-116225320I438150J0D01*
G01*
D11*
X71950580Y-134153361D02*
X71738448Y-134065493D01*
D10*
X71738448Y-132827547D02*
X71331607Y-133234388D01*
D11*
X72495250Y-98430350D02*
X72440456Y-98324525D01*
X72518100Y-98500602D02*
X72495250Y-98430350D01*
D10*
X70021450Y-65918080D02*
G75*
G02*
X69145150Y-65918080I-438150J0D01*
G01*
X69145150Y-65918080D02*
G75*
G02*
X70021450Y-65918080I438150J0D01*
G01*
D11*
X71950580Y-84194101D02*
X71738448Y-84106233D01*
D12*
X78206600Y-142265400D02*
X76873103Y-142265400D01*
D10*
X71809160Y-133994783D02*
X71402317Y-133587940D01*
D11*
X72440456Y-98324525D02*
X72364803Y-98231756D01*
D10*
X72636380Y-98645980D02*
G75*
G02*
X71264780Y-98645980I-685800J0D01*
G01*
X71264780Y-98645980D02*
G75*
G02*
X72636380Y-98645980I685800J0D01*
G01*
X72021291Y-83964811D02*
X72428132Y-83557970D01*
X72162712Y-134065493D02*
X72569553Y-133658652D01*
X72569553Y-83699392D02*
X72357422Y-83487259D01*
X72092001Y-84035523D02*
G75*
G02*
X71809160Y-84035523I-141420J141421D01*
G01*
X72092003Y-82938998D02*
X72498841Y-83345836D01*
D11*
X71900579Y-83980918D02*
X71924149Y-83990682D01*
D10*
X71879870Y-132968968D02*
X71738448Y-132827547D01*
D11*
X72736380Y-98645980D02*
X72688665Y-98916047D01*
X72556847Y-99145700D01*
X72357916Y-99317949D01*
X72108862Y-99415803D01*
X71950580Y-99431780D01*
D10*
X72569553Y-83275128D02*
X72428132Y-83416549D01*
D11*
X71900579Y-133940178D02*
X71924149Y-133949942D01*
X71738448Y-82868287D02*
X71950580Y-82780419D01*
D12*
X72636380Y-48686720D02*
G75*
G02*
X71264780Y-48686720I-685800J0D01*
G01*
X71264780Y-48686720D02*
G75*
G02*
X72636380Y-48686720I685800J0D01*
G01*
D10*
X72569553Y-133658652D02*
X71950582Y-133039677D01*
D11*
X72162712Y-84106233D02*
X71950580Y-84194101D01*
X71364780Y-98645980D02*
X71369350Y-98719480D01*
D13*
X72712580Y-98633280D02*
G75*
G02*
X71188580Y-98633280I-762000J0D01*
G01*
X71188580Y-98633280D02*
G75*
G02*
X72712580Y-98633280I762000J0D01*
G01*
D11*
X71738448Y-132827547D02*
X71979342Y-132741109D01*
X72162712Y-132827547D01*
X71536357Y-98231756D02*
X71460998Y-98324073D01*
D13*
X72712580Y-133433820D02*
G75*
G02*
X71188580Y-133433820I-762000J0D01*
G01*
X71188580Y-133433820D02*
G75*
G02*
X72712580Y-133433820I762000J0D01*
G01*
D11*
X72526098Y-98755889D02*
X72536380Y-98645980D01*
D10*
X71473029Y-83557970D02*
X71879870Y-83964811D01*
D11*
X71734950Y-99190650D02*
X71950580Y-99231780D01*
D12*
X68707000Y-39878000D02*
X70040501Y-39878000D01*
D10*
X72002343Y-82887235D02*
X71473029Y-83416549D01*
X77768450Y-65918080D02*
G75*
G02*
X76892150Y-65918080I-438150J0D01*
G01*
X76892150Y-65918080D02*
G75*
G02*
X77768450Y-65918080I438150J0D01*
G01*
D11*
X72440162Y-98967886D02*
X72495250Y-98861609D01*
D10*
X71331607Y-83699392D02*
X71738448Y-84106233D01*
X71879870Y-132968968D02*
X71473029Y-133375809D01*
X72498841Y-133587943D02*
X72092002Y-133994782D01*
D11*
X72531810Y-98572479D02*
X72518100Y-98500602D01*
D10*
X71402317Y-133587940D02*
G75*
G02*
X71402297Y-133305079I141383J141440D01*
G01*
D11*
X72364803Y-98231756D02*
X72166210Y-98101310D01*
X72536380Y-98645980D02*
X72531810Y-98572479D01*
D10*
X72569553Y-133234388D02*
X72162712Y-132827547D01*
D11*
X71243739Y-83487260D02*
X71331607Y-83275128D01*
X71950580Y-82780419D02*
X72162712Y-82868287D01*
D10*
X77768450Y-78219300D02*
G75*
G02*
X76892150Y-78219300I-438150J0D01*
G01*
X76892150Y-78219300D02*
G75*
G02*
X77768450Y-78219300I438150J0D01*
G01*
X74269600Y-91071700D02*
G75*
G02*
X72644000Y-91071700I-812800J0D01*
G01*
X72644000Y-91071700D02*
G75*
G02*
X74269600Y-91071700I812800J0D01*
G01*
D12*
X72009000Y-42430700D02*
X78206600Y-42430700D01*
X78206600Y-42430700D02*
X78206600Y-142265400D01*
D10*
X71809160Y-84035523D02*
X71402317Y-83628680D01*
D12*
X76873103Y-142265400D02*
G75*
G02*
X75793600Y-141185896I-3J1079500D01*
G01*
D11*
X71473029Y-133375809D02*
X71451062Y-133408131D01*
D10*
X72498841Y-83628683D02*
X72092001Y-84035523D01*
D12*
X74904600Y-139712700D02*
G75*
G02*
X75793600Y-140601700I0J-889000D01*
G01*
D11*
X72450099Y-83448871D02*
X72428132Y-83416549D01*
X71879870Y-133924071D02*
X71900579Y-133940178D01*
D10*
X71402317Y-83345839D02*
X71809159Y-82938997D01*
D11*
X72428132Y-83557970D02*
X72450099Y-83525648D01*
X71950580Y-133953361D02*
X71988787Y-133946220D01*
X71473029Y-83416549D02*
X71451062Y-83448871D01*
X72021291Y-132968968D02*
X72000581Y-132952861D01*
D10*
X70021450Y-78219300D02*
G75*
G02*
X69145150Y-78219300I-438150J0D01*
G01*
X69145150Y-78219300D02*
G75*
G02*
X70021450Y-78219300I438150J0D01*
G01*
D11*
X71950580Y-82980419D02*
X71912374Y-82987559D01*
X72450099Y-83525648D02*
X72457421Y-83487260D01*
X71443739Y-133446520D02*
X71451062Y-133484908D01*
X71879870Y-83964811D02*
X71900579Y-83980918D01*
X71734950Y-98101310D02*
X71536357Y-98231756D01*
D10*
X72092002Y-133994782D02*
G75*
G02*
X71898820Y-134046538I-141402J141382D01*
G01*
D11*
X71460705Y-98967434D02*
X71536357Y-99060203D01*
D10*
X72569553Y-133234388D02*
X72428132Y-133375809D01*
X72092003Y-132898258D02*
X72498841Y-133305096D01*
D11*
X71924149Y-83990682D02*
X71950580Y-83994101D01*
X71977011Y-82983838D02*
X71950580Y-82980419D01*
X71369350Y-98719480D02*
X71383060Y-98791357D01*
X72657421Y-83487260D02*
X72569553Y-83699392D01*
D12*
X74904600Y-139712700D02*
X68707000Y-139712700D01*
D11*
X72450099Y-133484908D02*
X72457421Y-133446520D01*
X71536357Y-99060203D02*
X71734950Y-99190650D01*
X72457421Y-133446520D02*
X72450099Y-133408131D01*
X71912374Y-132946819D02*
X71879870Y-132968968D01*
D10*
X71879870Y-133924071D02*
X71738448Y-134065493D01*
D11*
X72364803Y-99060203D02*
X72440162Y-98967886D01*
D10*
X71331607Y-83699392D02*
X71473029Y-83557970D01*
D11*
X72457421Y-83487260D02*
X72450099Y-83448871D01*
D10*
X71331607Y-133658652D02*
X71738448Y-134065493D01*
X72569553Y-83275128D02*
X72162712Y-82868287D01*
D11*
X71451062Y-83525648D02*
X71473029Y-83557970D01*
D10*
X71402317Y-83628680D02*
G75*
G02*
X71402357Y-83345880I141383J141380D01*
G01*
D11*
X71988787Y-133946220D02*
X72021291Y-133924071D01*
X71331607Y-83699392D02*
X71243739Y-83487260D01*
D10*
X70021450Y-103924100D02*
G75*
G02*
X69145150Y-103924100I-438150J0D01*
G01*
X69145150Y-103924100D02*
G75*
G02*
X70021450Y-103924100I438150J0D01*
G01*
X70021450Y-128478280D02*
G75*
G02*
X69145150Y-128478280I-438150J0D01*
G01*
X69145150Y-128478280D02*
G75*
G02*
X70021450Y-128478280I438150J0D01*
G01*
D12*
X68707000Y-139712700D02*
X68707000Y-39878000D01*
D11*
X71950580Y-98060180D02*
X71734950Y-98101310D01*
X71164780Y-98645980D02*
X71212494Y-98375911D01*
X71344312Y-98146258D01*
X71543243Y-97974010D01*
X71792297Y-97876156D01*
X71950580Y-97860180D01*
X71451062Y-133408131D02*
X71443739Y-133446520D01*
X71331607Y-133658652D02*
X71245169Y-133417756D01*
X71331607Y-133234388D01*
D10*
X71809158Y-132898258D02*
G75*
G02*
X72092003Y-132898257I141423J-141423D01*
G01*
D11*
X72000581Y-132952861D02*
X71977011Y-132943098D01*
X72657421Y-133446520D02*
X72569553Y-133658652D01*
D10*
X71473029Y-133517230D02*
X71879870Y-133924071D01*
D11*
X71383060Y-98791357D02*
X71405910Y-98861609D01*
X72166210Y-98101310D02*
X71950580Y-98060180D01*
X72000581Y-82993601D02*
X71977011Y-82983838D01*
D10*
X72428132Y-133375809D02*
X72021291Y-132968968D01*
X72162712Y-84106233D02*
X72021291Y-83964811D01*
D12*
X70040501Y-39878000D02*
G75*
G02*
X71120000Y-40957499I-1J-1079500D01*
G01*
D10*
X71809159Y-82938997D02*
G75*
G02*
X72002350Y-82887210I141441J-141403D01*
G01*
X71950580Y-98645980D02*
X71950580Y-99431780D01*
D12*
X77312520Y-141262100D02*
G75*
G02*
X76306680Y-141262100I-502920J0D01*
G01*
X76306680Y-141262100D02*
G75*
G02*
X77312520Y-141262100I502920J0D01*
G01*
D10*
X71402317Y-133305099D02*
X71809158Y-132898258D01*
X71738448Y-82868287D02*
X71331607Y-83275128D01*
D11*
X72162712Y-134065493D02*
X71950580Y-134153361D01*
X72021291Y-83009708D02*
X72000581Y-82993601D01*
X71950580Y-99231780D02*
X72166210Y-99190650D01*
D10*
X71331607Y-83275128D02*
X71950582Y-83894099D01*
D11*
X71912374Y-82987559D02*
X71879870Y-83009708D01*
X71443739Y-83487260D02*
X71451062Y-83525648D01*
D13*
X74269600Y-91059000D02*
G75*
G02*
X72644000Y-91059000I-812800J0D01*
G01*
X72644000Y-91059000D02*
G75*
G02*
X74269600Y-91059000I812800J0D01*
G01*
D10*
X72498841Y-133305096D02*
G75*
G02*
X72498822Y-133587924I-141441J-141404D01*
G01*
X71543740Y-133446519D02*
X71331607Y-133234388D01*
D11*
X71950580Y-99431780D02*
X71680511Y-99384065D01*
X71450858Y-99252247D01*
X71278610Y-99053316D01*
X71180756Y-98804262D01*
X71164780Y-98645980D01*
D10*
X71898818Y-134046544D02*
X72428132Y-133517230D01*
D11*
X71405910Y-98430350D02*
X71375063Y-98536070D01*
X71460998Y-98324073D02*
X71405910Y-98430350D01*
D10*
X72092002Y-133994782D02*
X72021291Y-133924071D01*
X72428132Y-83416549D02*
X72021291Y-83009708D01*
X72357422Y-83487259D02*
X71738448Y-84106233D01*
X70021450Y-116225320D02*
G75*
G02*
X69145150Y-116225320I-438150J0D01*
G01*
X69145150Y-116225320D02*
G75*
G02*
X70021450Y-116225320I438150J0D01*
G01*
X77768450Y-103924100D02*
G75*
G02*
X76892150Y-103924100I-438150J0D01*
G01*
X76892150Y-103924100D02*
G75*
G02*
X77768450Y-103924100I438150J0D01*
G01*
X71473029Y-133517230D02*
X71331607Y-133658652D01*
X72162712Y-84106233D02*
X72569553Y-83699392D01*
D11*
X72166210Y-99190650D02*
X72364803Y-99060203D01*
X71451062Y-133484908D02*
X71473029Y-133517230D01*
D10*
X77768450Y-128478280D02*
G75*
G02*
X76892150Y-128478280I-438150J0D01*
G01*
X76892150Y-128478280D02*
G75*
G02*
X77768450Y-128478280I438150J0D01*
G01*
D11*
X72569553Y-83275128D02*
X72657421Y-83487260D01*
D13*
X72712580Y-83484720D02*
G75*
G02*
X71188580Y-83484720I-762000J0D01*
G01*
X71188580Y-83484720D02*
G75*
G02*
X72712580Y-83484720I762000J0D01*
G01*
D11*
X72428132Y-133517230D02*
X72450099Y-133484908D01*
X71988787Y-83986960D02*
X72021291Y-83964811D01*
D10*
X71536357Y-98231756D02*
X71264780Y-98645980D01*
D12*
X72009000Y-42430700D02*
G75*
G02*
X71120000Y-41541700I0J889000D01*
G01*
D11*
X72495250Y-98861609D02*
X72526098Y-98755889D01*
D10*
X71543740Y-133446519D02*
X71950582Y-133039677D01*
X72021291Y-83009708D02*
X71473029Y-83416549D01*
D11*
X71950580Y-132939679D02*
X71912374Y-132946819D01*
D12*
X75793600Y-141185896D02*
X75793600Y-140601700D01*
D10*
X72021291Y-83009708D02*
X72162712Y-82868287D01*
D12*
X70662800Y-40881300D02*
G75*
G02*
X69545200Y-40881300I-558800J0D01*
G01*
X69545200Y-40881300D02*
G75*
G02*
X70662800Y-40881300I558800J0D01*
G01*
D10*
X72712580Y-48684180D02*
G75*
G02*
X71188580Y-48684180I-762000J0D01*
G01*
X71188580Y-48684180D02*
G75*
G02*
X72712580Y-48684180I762000J0D01*
G01*
D11*
X72450099Y-133408131D02*
X72428132Y-133375809D01*
X71924149Y-133949942D02*
X71950580Y-133953361D01*
X71977011Y-132943098D02*
X71950580Y-132939679D01*
D10*
X71879870Y-133924071D02*
X71473029Y-133375809D01*
D11*
X72569553Y-133234388D02*
X72657421Y-133446520D01*
X71451062Y-83448871D02*
X71443739Y-83487260D01*
D10*
X71879870Y-83009708D02*
X71809159Y-82938997D01*
X70021450Y-53665120D02*
G75*
G02*
X69145150Y-53665120I-438150J0D01*
G01*
X69145150Y-53665120D02*
G75*
G02*
X70021450Y-53665120I438150J0D01*
G01*
D11*
X71375063Y-98536070D02*
X71364780Y-98645980D01*
X71405910Y-98861609D02*
X71460705Y-98967434D01*
D12*
X71120000Y-40957499D02*
X71120000Y-41541700D01*
D10*
X72498841Y-83345836D02*
G75*
G02*
X72498882Y-83628723I-141441J-141464D01*
G01*
D11*
X71950580Y-83994101D02*
X71988787Y-83986960D01*
D10*
X77768450Y-53665120D02*
G75*
G02*
X76892150Y-53665120I-438150J0D01*
G01*
X76892150Y-53665120D02*
G75*
G02*
X77768450Y-53665120I438150J0D01*
G01*
D11*
X71950580Y-97860180D02*
X72220648Y-97907894D01*
X72450301Y-98039712D01*
X72622549Y-98238643D01*
X72720403Y-98487697D01*
X72736380Y-98645980D01*
M02*
