%TF.GenerationSoftware,KiCad,Pcbnew,8.0.0*%
%TF.CreationDate,2024-07-15T09:45:36-07:00*%
%TF.ProjectId,grogu-dib-board,67726f67-752d-4646-9962-2d626f617264,rev?*%
%TF.SameCoordinates,Original*%
%TF.FileFunction,Legend,Top*%
%TF.FilePolarity,Positive*%
%FSLAX46Y46*%
G04 Gerber Fmt 4.6, Leading zero omitted, Abs format (unit mm)*
G04 Created by KiCad (PCBNEW 8.0.0) date 2024-07-15 09:45:36*
%MOMM*%
%LPD*%
G01*
G04 APERTURE LIST*
%ADD10C,0.150000*%
%ADD11C,0.200000*%
G04 APERTURE END LIST*
D10*
X73199666Y-95593819D02*
X73199666Y-96308104D01*
X73199666Y-96308104D02*
X73152047Y-96450961D01*
X73152047Y-96450961D02*
X73056809Y-96546200D01*
X73056809Y-96546200D02*
X72913952Y-96593819D01*
X72913952Y-96593819D02*
X72818714Y-96593819D01*
X73628238Y-95689057D02*
X73675857Y-95641438D01*
X73675857Y-95641438D02*
X73771095Y-95593819D01*
X73771095Y-95593819D02*
X74009190Y-95593819D01*
X74009190Y-95593819D02*
X74104428Y-95641438D01*
X74104428Y-95641438D02*
X74152047Y-95689057D01*
X74152047Y-95689057D02*
X74199666Y-95784295D01*
X74199666Y-95784295D02*
X74199666Y-95879533D01*
X74199666Y-95879533D02*
X74152047Y-96022390D01*
X74152047Y-96022390D02*
X73580619Y-96593819D01*
X73580619Y-96593819D02*
X74199666Y-96593819D01*
X73199666Y-45682819D02*
X73199666Y-46397104D01*
X73199666Y-46397104D02*
X73152047Y-46539961D01*
X73152047Y-46539961D02*
X73056809Y-46635200D01*
X73056809Y-46635200D02*
X72913952Y-46682819D01*
X72913952Y-46682819D02*
X72818714Y-46682819D01*
X74199666Y-46682819D02*
X73628238Y-46682819D01*
X73913952Y-46682819D02*
X73913952Y-45682819D01*
X73913952Y-45682819D02*
X73818714Y-45825676D01*
X73818714Y-45825676D02*
X73723476Y-45920914D01*
X73723476Y-45920914D02*
X73628238Y-45968533D01*
D11*
%TO.C,J2*%
X70651850Y-97028200D02*
X70651850Y-99528200D01*
X70651850Y-97028200D02*
X76251850Y-97028200D01*
X70651850Y-135028200D02*
X70651850Y-132528200D01*
X70651850Y-135028200D02*
X74651850Y-135028200D01*
X74651850Y-135028200D02*
X76251850Y-133428200D01*
X76251850Y-97028200D02*
X76251850Y-99528200D01*
X76251850Y-133428200D02*
X76251850Y-132528200D01*
X77111850Y-131628200D02*
G75*
G02*
X76911850Y-131628200I-100000J0D01*
G01*
X76911850Y-131628200D02*
G75*
G02*
X77111850Y-131628200I100000J0D01*
G01*
%TO.C,J1*%
X70648350Y-47083000D02*
X70648350Y-49583000D01*
X70648350Y-47083000D02*
X76248350Y-47083000D01*
X70648350Y-85083000D02*
X70648350Y-82583000D01*
X70648350Y-85083000D02*
X74648350Y-85083000D01*
X74648350Y-85083000D02*
X76248350Y-83483000D01*
X76248350Y-47083000D02*
X76248350Y-49583000D01*
X76248350Y-83483000D02*
X76248350Y-82583000D01*
X77108350Y-81683000D02*
G75*
G02*
X76908350Y-81683000I-100000J0D01*
G01*
X76908350Y-81683000D02*
G75*
G02*
X77108350Y-81683000I100000J0D01*
G01*
%TD*%
M02*
