%TF.GenerationSoftware,KiCad,Pcbnew,8.0.3*%
%TF.CreationDate,2024-07-10T08:51:58-07:00*%
%TF.ProjectId,samtec-ptl-dib-mockup-1,73616d74-6563-42d7-9074-6c2d6469622d,rev?*%
%TF.SameCoordinates,Original*%
%TF.FileFunction,Paste,Top*%
%TF.FilePolarity,Positive*%
%FSLAX46Y46*%
G04 Gerber Fmt 4.6, Leading zero omitted, Abs format (unit mm)*
G04 Created by KiCad (PCBNEW 8.0.3) date 2024-07-10 08:51:58*
%MOMM*%
%LPD*%
G01*
G04 APERTURE LIST*
%ADD10R,1.100000X0.500000*%
G04 APERTURE END LIST*
D10*
%TO.C,J2*%
X75701850Y-131628200D03*
X71201850Y-131628200D03*
X75701850Y-130828200D03*
X71201850Y-130828200D03*
X75701850Y-130028200D03*
X71201850Y-130028200D03*
X75701850Y-129228200D03*
X71201850Y-129228200D03*
X75701850Y-128428200D03*
X71201850Y-128428200D03*
X75701850Y-127628200D03*
X71201850Y-127628200D03*
X75701850Y-126828200D03*
X71201850Y-126828200D03*
X75701850Y-126028200D03*
X71201850Y-126028200D03*
X75701850Y-125228200D03*
X71201850Y-125228200D03*
X75701850Y-124428200D03*
X71201850Y-124428200D03*
X75701850Y-123628200D03*
X71201850Y-123628200D03*
X75701850Y-122828200D03*
X71201850Y-122828200D03*
X75701850Y-122028200D03*
X71201850Y-122028200D03*
X75701850Y-121228200D03*
X71201850Y-121228200D03*
X75701850Y-120428200D03*
X71201850Y-120428200D03*
X75701850Y-119628200D03*
X71201850Y-119628200D03*
X75701850Y-118828200D03*
X71201850Y-118828200D03*
X75701850Y-118028200D03*
X71201850Y-118028200D03*
X75701850Y-117228200D03*
X71201850Y-117228200D03*
X75701850Y-116428200D03*
X71201850Y-116428200D03*
X75701850Y-115628200D03*
X71201850Y-115628200D03*
X75701850Y-114828200D03*
X71201850Y-114828200D03*
X75701850Y-114028200D03*
X71201850Y-114028200D03*
X75701850Y-113228200D03*
X71201850Y-113228200D03*
X75701850Y-112428200D03*
X71201850Y-112428200D03*
X75701850Y-111628200D03*
X71201850Y-111628200D03*
X75701850Y-110828200D03*
X71201850Y-110828200D03*
X75701850Y-110028200D03*
X71201850Y-110028200D03*
X75701850Y-109228200D03*
X71201850Y-109228200D03*
X75701850Y-108428200D03*
X71201850Y-108428200D03*
X75701850Y-107628200D03*
X71201850Y-107628200D03*
X75701850Y-106828200D03*
X71201850Y-106828200D03*
X75701850Y-106028200D03*
X71201850Y-106028200D03*
X75701850Y-105228200D03*
X71201850Y-105228200D03*
X75701850Y-104428200D03*
X71201850Y-104428200D03*
X75701850Y-103628200D03*
X71201850Y-103628200D03*
X75701850Y-102828200D03*
X71201850Y-102828200D03*
X75701850Y-102028200D03*
X71201850Y-102028200D03*
X75701850Y-101228200D03*
X71201850Y-101228200D03*
X75701850Y-100428200D03*
X71201850Y-100428200D03*
%TD*%
%TO.C,J1*%
X75698350Y-81683000D03*
X71198350Y-81683000D03*
X75698350Y-80883000D03*
X71198350Y-80883000D03*
X75698350Y-80083000D03*
X71198350Y-80083000D03*
X75698350Y-79283000D03*
X71198350Y-79283000D03*
X75698350Y-78483000D03*
X71198350Y-78483000D03*
X75698350Y-77683000D03*
X71198350Y-77683000D03*
X75698350Y-76883000D03*
X71198350Y-76883000D03*
X75698350Y-76083000D03*
X71198350Y-76083000D03*
X75698350Y-75283000D03*
X71198350Y-75283000D03*
X75698350Y-74483000D03*
X71198350Y-74483000D03*
X75698350Y-73683000D03*
X71198350Y-73683000D03*
X75698350Y-72883000D03*
X71198350Y-72883000D03*
X75698350Y-72083000D03*
X71198350Y-72083000D03*
X75698350Y-71283000D03*
X71198350Y-71283000D03*
X75698350Y-70483000D03*
X71198350Y-70483000D03*
X75698350Y-69683000D03*
X71198350Y-69683000D03*
X75698350Y-68883000D03*
X71198350Y-68883000D03*
X75698350Y-68083000D03*
X71198350Y-68083000D03*
X75698350Y-67283000D03*
X71198350Y-67283000D03*
X75698350Y-66483000D03*
X71198350Y-66483000D03*
X75698350Y-65683000D03*
X71198350Y-65683000D03*
X75698350Y-64883000D03*
X71198350Y-64883000D03*
X75698350Y-64083000D03*
X71198350Y-64083000D03*
X75698350Y-63283000D03*
X71198350Y-63283000D03*
X75698350Y-62483000D03*
X71198350Y-62483000D03*
X75698350Y-61683000D03*
X71198350Y-61683000D03*
X75698350Y-60883000D03*
X71198350Y-60883000D03*
X75698350Y-60083000D03*
X71198350Y-60083000D03*
X75698350Y-59283000D03*
X71198350Y-59283000D03*
X75698350Y-58483000D03*
X71198350Y-58483000D03*
X75698350Y-57683000D03*
X71198350Y-57683000D03*
X75698350Y-56883000D03*
X71198350Y-56883000D03*
X75698350Y-56083000D03*
X71198350Y-56083000D03*
X75698350Y-55283000D03*
X71198350Y-55283000D03*
X75698350Y-54483000D03*
X71198350Y-54483000D03*
X75698350Y-53683000D03*
X71198350Y-53683000D03*
X75698350Y-52883000D03*
X71198350Y-52883000D03*
X75698350Y-52083000D03*
X71198350Y-52083000D03*
X75698350Y-51283000D03*
X71198350Y-51283000D03*
X75698350Y-50483000D03*
X71198350Y-50483000D03*
%TD*%
M02*
