%TF.GenerationSoftware,KiCad,Pcbnew,8.0.0*%
%TF.CreationDate,2024-07-15T09:45:36-07:00*%
%TF.ProjectId,grogu-dib-board,67726f67-752d-4646-9962-2d626f617264,rev?*%
%TF.SameCoordinates,Original*%
%TF.FileFunction,AssemblyDrawing,Top*%
%FSLAX46Y46*%
G04 Gerber Fmt 4.6, Leading zero omitted, Abs format (unit mm)*
G04 Created by KiCad (PCBNEW 8.0.0) date 2024-07-15 09:45:36*
%MOMM*%
%LPD*%
G01*
G04 APERTURE LIST*
%ADD10C,0.100000*%
%ADD11C,0.150000*%
%ADD12C,0.200000*%
G04 APERTURE END LIST*
D10*
X158978600Y-71120000D02*
X164033200Y-71120000D01*
X164033200Y-74193400D01*
X158978600Y-74193400D01*
X158978600Y-71120000D01*
X148805900Y-69316600D02*
X158940500Y-69316600D01*
X158940500Y-76200000D01*
X148805900Y-76200000D01*
X148805900Y-69316600D01*
X148805900Y-66040000D02*
X164020500Y-66040000D01*
X164020500Y-79273400D01*
X148805900Y-79273400D01*
X148805900Y-66040000D01*
D11*
X121599560Y-73050400D02*
X121742417Y-73098019D01*
X121742417Y-73098019D02*
X121980512Y-73098019D01*
X121980512Y-73098019D02*
X122075750Y-73050400D01*
X122075750Y-73050400D02*
X122123369Y-73002780D01*
X122123369Y-73002780D02*
X122170988Y-72907542D01*
X122170988Y-72907542D02*
X122170988Y-72812304D01*
X122170988Y-72812304D02*
X122123369Y-72717066D01*
X122123369Y-72717066D02*
X122075750Y-72669447D01*
X122075750Y-72669447D02*
X121980512Y-72621828D01*
X121980512Y-72621828D02*
X121790036Y-72574209D01*
X121790036Y-72574209D02*
X121694798Y-72526590D01*
X121694798Y-72526590D02*
X121647179Y-72478971D01*
X121647179Y-72478971D02*
X121599560Y-72383733D01*
X121599560Y-72383733D02*
X121599560Y-72288495D01*
X121599560Y-72288495D02*
X121647179Y-72193257D01*
X121647179Y-72193257D02*
X121694798Y-72145638D01*
X121694798Y-72145638D02*
X121790036Y-72098019D01*
X121790036Y-72098019D02*
X122028131Y-72098019D01*
X122028131Y-72098019D02*
X122170988Y-72145638D01*
X122980512Y-73050400D02*
X122885274Y-73098019D01*
X122885274Y-73098019D02*
X122694798Y-73098019D01*
X122694798Y-73098019D02*
X122599560Y-73050400D01*
X122599560Y-73050400D02*
X122551941Y-72955161D01*
X122551941Y-72955161D02*
X122551941Y-72574209D01*
X122551941Y-72574209D02*
X122599560Y-72478971D01*
X122599560Y-72478971D02*
X122694798Y-72431352D01*
X122694798Y-72431352D02*
X122885274Y-72431352D01*
X122885274Y-72431352D02*
X122980512Y-72478971D01*
X122980512Y-72478971D02*
X123028131Y-72574209D01*
X123028131Y-72574209D02*
X123028131Y-72669447D01*
X123028131Y-72669447D02*
X122551941Y-72764685D01*
X123885274Y-73050400D02*
X123790036Y-73098019D01*
X123790036Y-73098019D02*
X123599560Y-73098019D01*
X123599560Y-73098019D02*
X123504322Y-73050400D01*
X123504322Y-73050400D02*
X123456703Y-73002780D01*
X123456703Y-73002780D02*
X123409084Y-72907542D01*
X123409084Y-72907542D02*
X123409084Y-72621828D01*
X123409084Y-72621828D02*
X123456703Y-72526590D01*
X123456703Y-72526590D02*
X123504322Y-72478971D01*
X123504322Y-72478971D02*
X123599560Y-72431352D01*
X123599560Y-72431352D02*
X123790036Y-72431352D01*
X123790036Y-72431352D02*
X123885274Y-72478971D01*
X124456703Y-73098019D02*
X124361465Y-73050400D01*
X124361465Y-73050400D02*
X124313846Y-73002780D01*
X124313846Y-73002780D02*
X124266227Y-72907542D01*
X124266227Y-72907542D02*
X124266227Y-72621828D01*
X124266227Y-72621828D02*
X124313846Y-72526590D01*
X124313846Y-72526590D02*
X124361465Y-72478971D01*
X124361465Y-72478971D02*
X124456703Y-72431352D01*
X124456703Y-72431352D02*
X124599560Y-72431352D01*
X124599560Y-72431352D02*
X124694798Y-72478971D01*
X124694798Y-72478971D02*
X124742417Y-72526590D01*
X124742417Y-72526590D02*
X124790036Y-72621828D01*
X124790036Y-72621828D02*
X124790036Y-72907542D01*
X124790036Y-72907542D02*
X124742417Y-73002780D01*
X124742417Y-73002780D02*
X124694798Y-73050400D01*
X124694798Y-73050400D02*
X124599560Y-73098019D01*
X124599560Y-73098019D02*
X124456703Y-73098019D01*
X125218608Y-72431352D02*
X125218608Y-73098019D01*
X125218608Y-72526590D02*
X125266227Y-72478971D01*
X125266227Y-72478971D02*
X125361465Y-72431352D01*
X125361465Y-72431352D02*
X125504322Y-72431352D01*
X125504322Y-72431352D02*
X125599560Y-72478971D01*
X125599560Y-72478971D02*
X125647179Y-72574209D01*
X125647179Y-72574209D02*
X125647179Y-73098019D01*
X126551941Y-73098019D02*
X126551941Y-72098019D01*
X126551941Y-73050400D02*
X126456703Y-73098019D01*
X126456703Y-73098019D02*
X126266227Y-73098019D01*
X126266227Y-73098019D02*
X126170989Y-73050400D01*
X126170989Y-73050400D02*
X126123370Y-73002780D01*
X126123370Y-73002780D02*
X126075751Y-72907542D01*
X126075751Y-72907542D02*
X126075751Y-72621828D01*
X126075751Y-72621828D02*
X126123370Y-72526590D01*
X126123370Y-72526590D02*
X126170989Y-72478971D01*
X126170989Y-72478971D02*
X126266227Y-72431352D01*
X126266227Y-72431352D02*
X126456703Y-72431352D01*
X126456703Y-72431352D02*
X126551941Y-72478971D01*
X127456703Y-73098019D02*
X127456703Y-72574209D01*
X127456703Y-72574209D02*
X127409084Y-72478971D01*
X127409084Y-72478971D02*
X127313846Y-72431352D01*
X127313846Y-72431352D02*
X127123370Y-72431352D01*
X127123370Y-72431352D02*
X127028132Y-72478971D01*
X127456703Y-73050400D02*
X127361465Y-73098019D01*
X127361465Y-73098019D02*
X127123370Y-73098019D01*
X127123370Y-73098019D02*
X127028132Y-73050400D01*
X127028132Y-73050400D02*
X126980513Y-72955161D01*
X126980513Y-72955161D02*
X126980513Y-72859923D01*
X126980513Y-72859923D02*
X127028132Y-72764685D01*
X127028132Y-72764685D02*
X127123370Y-72717066D01*
X127123370Y-72717066D02*
X127361465Y-72717066D01*
X127361465Y-72717066D02*
X127456703Y-72669447D01*
X127932894Y-73098019D02*
X127932894Y-72431352D01*
X127932894Y-72621828D02*
X127980513Y-72526590D01*
X127980513Y-72526590D02*
X128028132Y-72478971D01*
X128028132Y-72478971D02*
X128123370Y-72431352D01*
X128123370Y-72431352D02*
X128218608Y-72431352D01*
X128456704Y-72431352D02*
X128694799Y-73098019D01*
X128932894Y-72431352D02*
X128694799Y-73098019D01*
X128694799Y-73098019D02*
X128599561Y-73336114D01*
X128599561Y-73336114D02*
X128551942Y-73383733D01*
X128551942Y-73383733D02*
X128456704Y-73431352D01*
X130361466Y-73478971D02*
X130313847Y-73431352D01*
X130313847Y-73431352D02*
X130218609Y-73288495D01*
X130218609Y-73288495D02*
X130170990Y-73193257D01*
X130170990Y-73193257D02*
X130123371Y-73050400D01*
X130123371Y-73050400D02*
X130075752Y-72812304D01*
X130075752Y-72812304D02*
X130075752Y-72621828D01*
X130075752Y-72621828D02*
X130123371Y-72383733D01*
X130123371Y-72383733D02*
X130170990Y-72240876D01*
X130170990Y-72240876D02*
X130218609Y-72145638D01*
X130218609Y-72145638D02*
X130313847Y-72002780D01*
X130313847Y-72002780D02*
X130361466Y-71955161D01*
X130742419Y-73098019D02*
X130742419Y-72098019D01*
X130742419Y-72478971D02*
X130837657Y-72431352D01*
X130837657Y-72431352D02*
X131028133Y-72431352D01*
X131028133Y-72431352D02*
X131123371Y-72478971D01*
X131123371Y-72478971D02*
X131170990Y-72526590D01*
X131170990Y-72526590D02*
X131218609Y-72621828D01*
X131218609Y-72621828D02*
X131218609Y-72907542D01*
X131218609Y-72907542D02*
X131170990Y-73002780D01*
X131170990Y-73002780D02*
X131123371Y-73050400D01*
X131123371Y-73050400D02*
X131028133Y-73098019D01*
X131028133Y-73098019D02*
X130837657Y-73098019D01*
X130837657Y-73098019D02*
X130742419Y-73050400D01*
X131790038Y-73098019D02*
X131694800Y-73050400D01*
X131694800Y-73050400D02*
X131647181Y-73002780D01*
X131647181Y-73002780D02*
X131599562Y-72907542D01*
X131599562Y-72907542D02*
X131599562Y-72621828D01*
X131599562Y-72621828D02*
X131647181Y-72526590D01*
X131647181Y-72526590D02*
X131694800Y-72478971D01*
X131694800Y-72478971D02*
X131790038Y-72431352D01*
X131790038Y-72431352D02*
X131932895Y-72431352D01*
X131932895Y-72431352D02*
X132028133Y-72478971D01*
X132028133Y-72478971D02*
X132075752Y-72526590D01*
X132075752Y-72526590D02*
X132123371Y-72621828D01*
X132123371Y-72621828D02*
X132123371Y-72907542D01*
X132123371Y-72907542D02*
X132075752Y-73002780D01*
X132075752Y-73002780D02*
X132028133Y-73050400D01*
X132028133Y-73050400D02*
X131932895Y-73098019D01*
X131932895Y-73098019D02*
X131790038Y-73098019D01*
X132409086Y-72431352D02*
X132790038Y-72431352D01*
X132551943Y-72098019D02*
X132551943Y-72955161D01*
X132551943Y-72955161D02*
X132599562Y-73050400D01*
X132599562Y-73050400D02*
X132694800Y-73098019D01*
X132694800Y-73098019D02*
X132790038Y-73098019D01*
X132980515Y-72431352D02*
X133361467Y-72431352D01*
X133123372Y-72098019D02*
X133123372Y-72955161D01*
X133123372Y-72955161D02*
X133170991Y-73050400D01*
X133170991Y-73050400D02*
X133266229Y-73098019D01*
X133266229Y-73098019D02*
X133361467Y-73098019D01*
X133837658Y-73098019D02*
X133742420Y-73050400D01*
X133742420Y-73050400D02*
X133694801Y-73002780D01*
X133694801Y-73002780D02*
X133647182Y-72907542D01*
X133647182Y-72907542D02*
X133647182Y-72621828D01*
X133647182Y-72621828D02*
X133694801Y-72526590D01*
X133694801Y-72526590D02*
X133742420Y-72478971D01*
X133742420Y-72478971D02*
X133837658Y-72431352D01*
X133837658Y-72431352D02*
X133980515Y-72431352D01*
X133980515Y-72431352D02*
X134075753Y-72478971D01*
X134075753Y-72478971D02*
X134123372Y-72526590D01*
X134123372Y-72526590D02*
X134170991Y-72621828D01*
X134170991Y-72621828D02*
X134170991Y-72907542D01*
X134170991Y-72907542D02*
X134123372Y-73002780D01*
X134123372Y-73002780D02*
X134075753Y-73050400D01*
X134075753Y-73050400D02*
X133980515Y-73098019D01*
X133980515Y-73098019D02*
X133837658Y-73098019D01*
X134599563Y-73098019D02*
X134599563Y-72431352D01*
X134599563Y-72526590D02*
X134647182Y-72478971D01*
X134647182Y-72478971D02*
X134742420Y-72431352D01*
X134742420Y-72431352D02*
X134885277Y-72431352D01*
X134885277Y-72431352D02*
X134980515Y-72478971D01*
X134980515Y-72478971D02*
X135028134Y-72574209D01*
X135028134Y-72574209D02*
X135028134Y-73098019D01*
X135028134Y-72574209D02*
X135075753Y-72478971D01*
X135075753Y-72478971D02*
X135170991Y-72431352D01*
X135170991Y-72431352D02*
X135313848Y-72431352D01*
X135313848Y-72431352D02*
X135409087Y-72478971D01*
X135409087Y-72478971D02*
X135456706Y-72574209D01*
X135456706Y-72574209D02*
X135456706Y-73098019D01*
X135837658Y-73478971D02*
X135885277Y-73431352D01*
X135885277Y-73431352D02*
X135980515Y-73288495D01*
X135980515Y-73288495D02*
X136028134Y-73193257D01*
X136028134Y-73193257D02*
X136075753Y-73050400D01*
X136075753Y-73050400D02*
X136123372Y-72812304D01*
X136123372Y-72812304D02*
X136123372Y-72621828D01*
X136123372Y-72621828D02*
X136075753Y-72383733D01*
X136075753Y-72383733D02*
X136028134Y-72240876D01*
X136028134Y-72240876D02*
X135980515Y-72145638D01*
X135980515Y-72145638D02*
X135885277Y-72002780D01*
X135885277Y-72002780D02*
X135837658Y-71955161D01*
X137313849Y-73050400D02*
X137409087Y-73098019D01*
X137409087Y-73098019D02*
X137599563Y-73098019D01*
X137599563Y-73098019D02*
X137694801Y-73050400D01*
X137694801Y-73050400D02*
X137742420Y-72955161D01*
X137742420Y-72955161D02*
X137742420Y-72907542D01*
X137742420Y-72907542D02*
X137694801Y-72812304D01*
X137694801Y-72812304D02*
X137599563Y-72764685D01*
X137599563Y-72764685D02*
X137456706Y-72764685D01*
X137456706Y-72764685D02*
X137361468Y-72717066D01*
X137361468Y-72717066D02*
X137313849Y-72621828D01*
X137313849Y-72621828D02*
X137313849Y-72574209D01*
X137313849Y-72574209D02*
X137361468Y-72478971D01*
X137361468Y-72478971D02*
X137456706Y-72431352D01*
X137456706Y-72431352D02*
X137599563Y-72431352D01*
X137599563Y-72431352D02*
X137694801Y-72478971D01*
X138170992Y-73098019D02*
X138170992Y-72431352D01*
X138170992Y-72098019D02*
X138123373Y-72145638D01*
X138123373Y-72145638D02*
X138170992Y-72193257D01*
X138170992Y-72193257D02*
X138218611Y-72145638D01*
X138218611Y-72145638D02*
X138170992Y-72098019D01*
X138170992Y-72098019D02*
X138170992Y-72193257D01*
X139075753Y-73098019D02*
X139075753Y-72098019D01*
X139075753Y-73050400D02*
X138980515Y-73098019D01*
X138980515Y-73098019D02*
X138790039Y-73098019D01*
X138790039Y-73098019D02*
X138694801Y-73050400D01*
X138694801Y-73050400D02*
X138647182Y-73002780D01*
X138647182Y-73002780D02*
X138599563Y-72907542D01*
X138599563Y-72907542D02*
X138599563Y-72621828D01*
X138599563Y-72621828D02*
X138647182Y-72526590D01*
X138647182Y-72526590D02*
X138694801Y-72478971D01*
X138694801Y-72478971D02*
X138790039Y-72431352D01*
X138790039Y-72431352D02*
X138980515Y-72431352D01*
X138980515Y-72431352D02*
X139075753Y-72478971D01*
X139932896Y-73050400D02*
X139837658Y-73098019D01*
X139837658Y-73098019D02*
X139647182Y-73098019D01*
X139647182Y-73098019D02*
X139551944Y-73050400D01*
X139551944Y-73050400D02*
X139504325Y-72955161D01*
X139504325Y-72955161D02*
X139504325Y-72574209D01*
X139504325Y-72574209D02*
X139551944Y-72478971D01*
X139551944Y-72478971D02*
X139647182Y-72431352D01*
X139647182Y-72431352D02*
X139837658Y-72431352D01*
X139837658Y-72431352D02*
X139932896Y-72478971D01*
X139932896Y-72478971D02*
X139980515Y-72574209D01*
X139980515Y-72574209D02*
X139980515Y-72669447D01*
X139980515Y-72669447D02*
X139504325Y-72764685D01*
X176028579Y-72691619D02*
X176028579Y-71691619D01*
X176028579Y-71691619D02*
X176409531Y-71691619D01*
X176409531Y-71691619D02*
X176504769Y-71739238D01*
X176504769Y-71739238D02*
X176552388Y-71786857D01*
X176552388Y-71786857D02*
X176600007Y-71882095D01*
X176600007Y-71882095D02*
X176600007Y-72024952D01*
X176600007Y-72024952D02*
X176552388Y-72120190D01*
X176552388Y-72120190D02*
X176504769Y-72167809D01*
X176504769Y-72167809D02*
X176409531Y-72215428D01*
X176409531Y-72215428D02*
X176028579Y-72215428D01*
X177028579Y-72691619D02*
X177028579Y-72024952D01*
X177028579Y-72215428D02*
X177076198Y-72120190D01*
X177076198Y-72120190D02*
X177123817Y-72072571D01*
X177123817Y-72072571D02*
X177219055Y-72024952D01*
X177219055Y-72024952D02*
X177314293Y-72024952D01*
X177647627Y-72691619D02*
X177647627Y-72024952D01*
X177647627Y-71691619D02*
X177600008Y-71739238D01*
X177600008Y-71739238D02*
X177647627Y-71786857D01*
X177647627Y-71786857D02*
X177695246Y-71739238D01*
X177695246Y-71739238D02*
X177647627Y-71691619D01*
X177647627Y-71691619D02*
X177647627Y-71786857D01*
X178123817Y-72691619D02*
X178123817Y-72024952D01*
X178123817Y-72120190D02*
X178171436Y-72072571D01*
X178171436Y-72072571D02*
X178266674Y-72024952D01*
X178266674Y-72024952D02*
X178409531Y-72024952D01*
X178409531Y-72024952D02*
X178504769Y-72072571D01*
X178504769Y-72072571D02*
X178552388Y-72167809D01*
X178552388Y-72167809D02*
X178552388Y-72691619D01*
X178552388Y-72167809D02*
X178600007Y-72072571D01*
X178600007Y-72072571D02*
X178695245Y-72024952D01*
X178695245Y-72024952D02*
X178838102Y-72024952D01*
X178838102Y-72024952D02*
X178933341Y-72072571D01*
X178933341Y-72072571D02*
X178980960Y-72167809D01*
X178980960Y-72167809D02*
X178980960Y-72691619D01*
X179885721Y-72691619D02*
X179885721Y-72167809D01*
X179885721Y-72167809D02*
X179838102Y-72072571D01*
X179838102Y-72072571D02*
X179742864Y-72024952D01*
X179742864Y-72024952D02*
X179552388Y-72024952D01*
X179552388Y-72024952D02*
X179457150Y-72072571D01*
X179885721Y-72644000D02*
X179790483Y-72691619D01*
X179790483Y-72691619D02*
X179552388Y-72691619D01*
X179552388Y-72691619D02*
X179457150Y-72644000D01*
X179457150Y-72644000D02*
X179409531Y-72548761D01*
X179409531Y-72548761D02*
X179409531Y-72453523D01*
X179409531Y-72453523D02*
X179457150Y-72358285D01*
X179457150Y-72358285D02*
X179552388Y-72310666D01*
X179552388Y-72310666D02*
X179790483Y-72310666D01*
X179790483Y-72310666D02*
X179885721Y-72263047D01*
X180361912Y-72691619D02*
X180361912Y-72024952D01*
X180361912Y-72215428D02*
X180409531Y-72120190D01*
X180409531Y-72120190D02*
X180457150Y-72072571D01*
X180457150Y-72072571D02*
X180552388Y-72024952D01*
X180552388Y-72024952D02*
X180647626Y-72024952D01*
X180885722Y-72024952D02*
X181123817Y-72691619D01*
X181361912Y-72024952D02*
X181123817Y-72691619D01*
X181123817Y-72691619D02*
X181028579Y-72929714D01*
X181028579Y-72929714D02*
X180980960Y-72977333D01*
X180980960Y-72977333D02*
X180885722Y-73024952D01*
X182790484Y-73072571D02*
X182742865Y-73024952D01*
X182742865Y-73024952D02*
X182647627Y-72882095D01*
X182647627Y-72882095D02*
X182600008Y-72786857D01*
X182600008Y-72786857D02*
X182552389Y-72644000D01*
X182552389Y-72644000D02*
X182504770Y-72405904D01*
X182504770Y-72405904D02*
X182504770Y-72215428D01*
X182504770Y-72215428D02*
X182552389Y-71977333D01*
X182552389Y-71977333D02*
X182600008Y-71834476D01*
X182600008Y-71834476D02*
X182647627Y-71739238D01*
X182647627Y-71739238D02*
X182742865Y-71596380D01*
X182742865Y-71596380D02*
X182790484Y-71548761D01*
X183028580Y-72024952D02*
X183409532Y-72024952D01*
X183171437Y-71691619D02*
X183171437Y-72548761D01*
X183171437Y-72548761D02*
X183219056Y-72644000D01*
X183219056Y-72644000D02*
X183314294Y-72691619D01*
X183314294Y-72691619D02*
X183409532Y-72691619D01*
X183885723Y-72691619D02*
X183790485Y-72644000D01*
X183790485Y-72644000D02*
X183742866Y-72596380D01*
X183742866Y-72596380D02*
X183695247Y-72501142D01*
X183695247Y-72501142D02*
X183695247Y-72215428D01*
X183695247Y-72215428D02*
X183742866Y-72120190D01*
X183742866Y-72120190D02*
X183790485Y-72072571D01*
X183790485Y-72072571D02*
X183885723Y-72024952D01*
X183885723Y-72024952D02*
X184028580Y-72024952D01*
X184028580Y-72024952D02*
X184123818Y-72072571D01*
X184123818Y-72072571D02*
X184171437Y-72120190D01*
X184171437Y-72120190D02*
X184219056Y-72215428D01*
X184219056Y-72215428D02*
X184219056Y-72501142D01*
X184219056Y-72501142D02*
X184171437Y-72596380D01*
X184171437Y-72596380D02*
X184123818Y-72644000D01*
X184123818Y-72644000D02*
X184028580Y-72691619D01*
X184028580Y-72691619D02*
X183885723Y-72691619D01*
X184647628Y-72024952D02*
X184647628Y-73024952D01*
X184647628Y-72072571D02*
X184742866Y-72024952D01*
X184742866Y-72024952D02*
X184933342Y-72024952D01*
X184933342Y-72024952D02*
X185028580Y-72072571D01*
X185028580Y-72072571D02*
X185076199Y-72120190D01*
X185076199Y-72120190D02*
X185123818Y-72215428D01*
X185123818Y-72215428D02*
X185123818Y-72501142D01*
X185123818Y-72501142D02*
X185076199Y-72596380D01*
X185076199Y-72596380D02*
X185028580Y-72644000D01*
X185028580Y-72644000D02*
X184933342Y-72691619D01*
X184933342Y-72691619D02*
X184742866Y-72691619D01*
X184742866Y-72691619D02*
X184647628Y-72644000D01*
X185457152Y-73072571D02*
X185504771Y-73024952D01*
X185504771Y-73024952D02*
X185600009Y-72882095D01*
X185600009Y-72882095D02*
X185647628Y-72786857D01*
X185647628Y-72786857D02*
X185695247Y-72644000D01*
X185695247Y-72644000D02*
X185742866Y-72405904D01*
X185742866Y-72405904D02*
X185742866Y-72215428D01*
X185742866Y-72215428D02*
X185695247Y-71977333D01*
X185695247Y-71977333D02*
X185647628Y-71834476D01*
X185647628Y-71834476D02*
X185600009Y-71739238D01*
X185600009Y-71739238D02*
X185504771Y-71596380D01*
X185504771Y-71596380D02*
X185457152Y-71548761D01*
X186933343Y-72644000D02*
X187028581Y-72691619D01*
X187028581Y-72691619D02*
X187219057Y-72691619D01*
X187219057Y-72691619D02*
X187314295Y-72644000D01*
X187314295Y-72644000D02*
X187361914Y-72548761D01*
X187361914Y-72548761D02*
X187361914Y-72501142D01*
X187361914Y-72501142D02*
X187314295Y-72405904D01*
X187314295Y-72405904D02*
X187219057Y-72358285D01*
X187219057Y-72358285D02*
X187076200Y-72358285D01*
X187076200Y-72358285D02*
X186980962Y-72310666D01*
X186980962Y-72310666D02*
X186933343Y-72215428D01*
X186933343Y-72215428D02*
X186933343Y-72167809D01*
X186933343Y-72167809D02*
X186980962Y-72072571D01*
X186980962Y-72072571D02*
X187076200Y-72024952D01*
X187076200Y-72024952D02*
X187219057Y-72024952D01*
X187219057Y-72024952D02*
X187314295Y-72072571D01*
X187790486Y-72691619D02*
X187790486Y-72024952D01*
X187790486Y-71691619D02*
X187742867Y-71739238D01*
X187742867Y-71739238D02*
X187790486Y-71786857D01*
X187790486Y-71786857D02*
X187838105Y-71739238D01*
X187838105Y-71739238D02*
X187790486Y-71691619D01*
X187790486Y-71691619D02*
X187790486Y-71786857D01*
X188695247Y-72691619D02*
X188695247Y-71691619D01*
X188695247Y-72644000D02*
X188600009Y-72691619D01*
X188600009Y-72691619D02*
X188409533Y-72691619D01*
X188409533Y-72691619D02*
X188314295Y-72644000D01*
X188314295Y-72644000D02*
X188266676Y-72596380D01*
X188266676Y-72596380D02*
X188219057Y-72501142D01*
X188219057Y-72501142D02*
X188219057Y-72215428D01*
X188219057Y-72215428D02*
X188266676Y-72120190D01*
X188266676Y-72120190D02*
X188314295Y-72072571D01*
X188314295Y-72072571D02*
X188409533Y-72024952D01*
X188409533Y-72024952D02*
X188600009Y-72024952D01*
X188600009Y-72024952D02*
X188695247Y-72072571D01*
X189552390Y-72644000D02*
X189457152Y-72691619D01*
X189457152Y-72691619D02*
X189266676Y-72691619D01*
X189266676Y-72691619D02*
X189171438Y-72644000D01*
X189171438Y-72644000D02*
X189123819Y-72548761D01*
X189123819Y-72548761D02*
X189123819Y-72167809D01*
X189123819Y-72167809D02*
X189171438Y-72072571D01*
X189171438Y-72072571D02*
X189266676Y-72024952D01*
X189266676Y-72024952D02*
X189457152Y-72024952D01*
X189457152Y-72024952D02*
X189552390Y-72072571D01*
X189552390Y-72072571D02*
X189600009Y-72167809D01*
X189600009Y-72167809D02*
X189600009Y-72263047D01*
X189600009Y-72263047D02*
X189123819Y-72358285D01*
X127463779Y-56384819D02*
X127463779Y-55384819D01*
X127463779Y-55384819D02*
X128035207Y-56384819D01*
X128035207Y-56384819D02*
X128035207Y-55384819D01*
X128654255Y-56384819D02*
X128559017Y-56337200D01*
X128559017Y-56337200D02*
X128511398Y-56289580D01*
X128511398Y-56289580D02*
X128463779Y-56194342D01*
X128463779Y-56194342D02*
X128463779Y-55908628D01*
X128463779Y-55908628D02*
X128511398Y-55813390D01*
X128511398Y-55813390D02*
X128559017Y-55765771D01*
X128559017Y-55765771D02*
X128654255Y-55718152D01*
X128654255Y-55718152D02*
X128797112Y-55718152D01*
X128797112Y-55718152D02*
X128892350Y-55765771D01*
X128892350Y-55765771D02*
X128939969Y-55813390D01*
X128939969Y-55813390D02*
X128987588Y-55908628D01*
X128987588Y-55908628D02*
X128987588Y-56194342D01*
X128987588Y-56194342D02*
X128939969Y-56289580D01*
X128939969Y-56289580D02*
X128892350Y-56337200D01*
X128892350Y-56337200D02*
X128797112Y-56384819D01*
X128797112Y-56384819D02*
X128654255Y-56384819D01*
X129273303Y-55718152D02*
X129654255Y-55718152D01*
X129416160Y-55384819D02*
X129416160Y-56241961D01*
X129416160Y-56241961D02*
X129463779Y-56337200D01*
X129463779Y-56337200D02*
X129559017Y-56384819D01*
X129559017Y-56384819D02*
X129654255Y-56384819D01*
X130368541Y-56337200D02*
X130273303Y-56384819D01*
X130273303Y-56384819D02*
X130082827Y-56384819D01*
X130082827Y-56384819D02*
X129987589Y-56337200D01*
X129987589Y-56337200D02*
X129939970Y-56241961D01*
X129939970Y-56241961D02*
X129939970Y-55861009D01*
X129939970Y-55861009D02*
X129987589Y-55765771D01*
X129987589Y-55765771D02*
X130082827Y-55718152D01*
X130082827Y-55718152D02*
X130273303Y-55718152D01*
X130273303Y-55718152D02*
X130368541Y-55765771D01*
X130368541Y-55765771D02*
X130416160Y-55861009D01*
X130416160Y-55861009D02*
X130416160Y-55956247D01*
X130416160Y-55956247D02*
X129939970Y-56051485D01*
X131559018Y-56099104D02*
X132035208Y-56099104D01*
X131463780Y-56384819D02*
X131797113Y-55384819D01*
X131797113Y-55384819D02*
X132130446Y-56384819D01*
X132463780Y-56289580D02*
X132511399Y-56337200D01*
X132511399Y-56337200D02*
X132463780Y-56384819D01*
X132463780Y-56384819D02*
X132416161Y-56337200D01*
X132416161Y-56337200D02*
X132463780Y-56289580D01*
X132463780Y-56289580D02*
X132463780Y-56384819D01*
X132463780Y-55765771D02*
X132511399Y-55813390D01*
X132511399Y-55813390D02*
X132463780Y-55861009D01*
X132463780Y-55861009D02*
X132416161Y-55813390D01*
X132416161Y-55813390D02*
X132463780Y-55765771D01*
X132463780Y-55765771D02*
X132463780Y-55861009D01*
X134273303Y-56289580D02*
X134225684Y-56337200D01*
X134225684Y-56337200D02*
X134082827Y-56384819D01*
X134082827Y-56384819D02*
X133987589Y-56384819D01*
X133987589Y-56384819D02*
X133844732Y-56337200D01*
X133844732Y-56337200D02*
X133749494Y-56241961D01*
X133749494Y-56241961D02*
X133701875Y-56146723D01*
X133701875Y-56146723D02*
X133654256Y-55956247D01*
X133654256Y-55956247D02*
X133654256Y-55813390D01*
X133654256Y-55813390D02*
X133701875Y-55622914D01*
X133701875Y-55622914D02*
X133749494Y-55527676D01*
X133749494Y-55527676D02*
X133844732Y-55432438D01*
X133844732Y-55432438D02*
X133987589Y-55384819D01*
X133987589Y-55384819D02*
X134082827Y-55384819D01*
X134082827Y-55384819D02*
X134225684Y-55432438D01*
X134225684Y-55432438D02*
X134273303Y-55480057D01*
X134844732Y-56384819D02*
X134749494Y-56337200D01*
X134749494Y-56337200D02*
X134701875Y-56289580D01*
X134701875Y-56289580D02*
X134654256Y-56194342D01*
X134654256Y-56194342D02*
X134654256Y-55908628D01*
X134654256Y-55908628D02*
X134701875Y-55813390D01*
X134701875Y-55813390D02*
X134749494Y-55765771D01*
X134749494Y-55765771D02*
X134844732Y-55718152D01*
X134844732Y-55718152D02*
X134987589Y-55718152D01*
X134987589Y-55718152D02*
X135082827Y-55765771D01*
X135082827Y-55765771D02*
X135130446Y-55813390D01*
X135130446Y-55813390D02*
X135178065Y-55908628D01*
X135178065Y-55908628D02*
X135178065Y-56194342D01*
X135178065Y-56194342D02*
X135130446Y-56289580D01*
X135130446Y-56289580D02*
X135082827Y-56337200D01*
X135082827Y-56337200D02*
X134987589Y-56384819D01*
X134987589Y-56384819D02*
X134844732Y-56384819D01*
X136035208Y-55718152D02*
X136035208Y-56384819D01*
X135606637Y-55718152D02*
X135606637Y-56241961D01*
X135606637Y-56241961D02*
X135654256Y-56337200D01*
X135654256Y-56337200D02*
X135749494Y-56384819D01*
X135749494Y-56384819D02*
X135892351Y-56384819D01*
X135892351Y-56384819D02*
X135987589Y-56337200D01*
X135987589Y-56337200D02*
X136035208Y-56289580D01*
X136511399Y-55718152D02*
X136511399Y-56384819D01*
X136511399Y-55813390D02*
X136559018Y-55765771D01*
X136559018Y-55765771D02*
X136654256Y-55718152D01*
X136654256Y-55718152D02*
X136797113Y-55718152D01*
X136797113Y-55718152D02*
X136892351Y-55765771D01*
X136892351Y-55765771D02*
X136939970Y-55861009D01*
X136939970Y-55861009D02*
X136939970Y-56384819D01*
X137273304Y-55718152D02*
X137654256Y-55718152D01*
X137416161Y-55384819D02*
X137416161Y-56241961D01*
X137416161Y-56241961D02*
X137463780Y-56337200D01*
X137463780Y-56337200D02*
X137559018Y-56384819D01*
X137559018Y-56384819D02*
X137654256Y-56384819D01*
X138368542Y-56337200D02*
X138273304Y-56384819D01*
X138273304Y-56384819D02*
X138082828Y-56384819D01*
X138082828Y-56384819D02*
X137987590Y-56337200D01*
X137987590Y-56337200D02*
X137939971Y-56241961D01*
X137939971Y-56241961D02*
X137939971Y-55861009D01*
X137939971Y-55861009D02*
X137987590Y-55765771D01*
X137987590Y-55765771D02*
X138082828Y-55718152D01*
X138082828Y-55718152D02*
X138273304Y-55718152D01*
X138273304Y-55718152D02*
X138368542Y-55765771D01*
X138368542Y-55765771D02*
X138416161Y-55861009D01*
X138416161Y-55861009D02*
X138416161Y-55956247D01*
X138416161Y-55956247D02*
X137939971Y-56051485D01*
X138844733Y-56384819D02*
X138844733Y-55718152D01*
X138844733Y-55908628D02*
X138892352Y-55813390D01*
X138892352Y-55813390D02*
X138939971Y-55765771D01*
X138939971Y-55765771D02*
X139035209Y-55718152D01*
X139035209Y-55718152D02*
X139130447Y-55718152D01*
X139463781Y-56384819D02*
X139463781Y-55384819D01*
X139463781Y-55765771D02*
X139559019Y-55718152D01*
X139559019Y-55718152D02*
X139749495Y-55718152D01*
X139749495Y-55718152D02*
X139844733Y-55765771D01*
X139844733Y-55765771D02*
X139892352Y-55813390D01*
X139892352Y-55813390D02*
X139939971Y-55908628D01*
X139939971Y-55908628D02*
X139939971Y-56194342D01*
X139939971Y-56194342D02*
X139892352Y-56289580D01*
X139892352Y-56289580D02*
X139844733Y-56337200D01*
X139844733Y-56337200D02*
X139749495Y-56384819D01*
X139749495Y-56384819D02*
X139559019Y-56384819D01*
X139559019Y-56384819D02*
X139463781Y-56337200D01*
X140511400Y-56384819D02*
X140416162Y-56337200D01*
X140416162Y-56337200D02*
X140368543Y-56289580D01*
X140368543Y-56289580D02*
X140320924Y-56194342D01*
X140320924Y-56194342D02*
X140320924Y-55908628D01*
X140320924Y-55908628D02*
X140368543Y-55813390D01*
X140368543Y-55813390D02*
X140416162Y-55765771D01*
X140416162Y-55765771D02*
X140511400Y-55718152D01*
X140511400Y-55718152D02*
X140654257Y-55718152D01*
X140654257Y-55718152D02*
X140749495Y-55765771D01*
X140749495Y-55765771D02*
X140797114Y-55813390D01*
X140797114Y-55813390D02*
X140844733Y-55908628D01*
X140844733Y-55908628D02*
X140844733Y-56194342D01*
X140844733Y-56194342D02*
X140797114Y-56289580D01*
X140797114Y-56289580D02*
X140749495Y-56337200D01*
X140749495Y-56337200D02*
X140654257Y-56384819D01*
X140654257Y-56384819D02*
X140511400Y-56384819D01*
X141273305Y-56384819D02*
X141273305Y-55718152D01*
X141273305Y-55908628D02*
X141320924Y-55813390D01*
X141320924Y-55813390D02*
X141368543Y-55765771D01*
X141368543Y-55765771D02*
X141463781Y-55718152D01*
X141463781Y-55718152D02*
X141559019Y-55718152D01*
X142273305Y-56337200D02*
X142178067Y-56384819D01*
X142178067Y-56384819D02*
X141987591Y-56384819D01*
X141987591Y-56384819D02*
X141892353Y-56337200D01*
X141892353Y-56337200D02*
X141844734Y-56241961D01*
X141844734Y-56241961D02*
X141844734Y-55861009D01*
X141844734Y-55861009D02*
X141892353Y-55765771D01*
X141892353Y-55765771D02*
X141987591Y-55718152D01*
X141987591Y-55718152D02*
X142178067Y-55718152D01*
X142178067Y-55718152D02*
X142273305Y-55765771D01*
X142273305Y-55765771D02*
X142320924Y-55861009D01*
X142320924Y-55861009D02*
X142320924Y-55956247D01*
X142320924Y-55956247D02*
X141844734Y-56051485D01*
X143368544Y-55718152D02*
X143749496Y-55718152D01*
X143511401Y-56384819D02*
X143511401Y-55527676D01*
X143511401Y-55527676D02*
X143559020Y-55432438D01*
X143559020Y-55432438D02*
X143654258Y-55384819D01*
X143654258Y-55384819D02*
X143749496Y-55384819D01*
X144082830Y-56384819D02*
X144082830Y-55718152D01*
X144082830Y-55908628D02*
X144130449Y-55813390D01*
X144130449Y-55813390D02*
X144178068Y-55765771D01*
X144178068Y-55765771D02*
X144273306Y-55718152D01*
X144273306Y-55718152D02*
X144368544Y-55718152D01*
X144844735Y-56384819D02*
X144749497Y-56337200D01*
X144749497Y-56337200D02*
X144701878Y-56289580D01*
X144701878Y-56289580D02*
X144654259Y-56194342D01*
X144654259Y-56194342D02*
X144654259Y-55908628D01*
X144654259Y-55908628D02*
X144701878Y-55813390D01*
X144701878Y-55813390D02*
X144749497Y-55765771D01*
X144749497Y-55765771D02*
X144844735Y-55718152D01*
X144844735Y-55718152D02*
X144987592Y-55718152D01*
X144987592Y-55718152D02*
X145082830Y-55765771D01*
X145082830Y-55765771D02*
X145130449Y-55813390D01*
X145130449Y-55813390D02*
X145178068Y-55908628D01*
X145178068Y-55908628D02*
X145178068Y-56194342D01*
X145178068Y-56194342D02*
X145130449Y-56289580D01*
X145130449Y-56289580D02*
X145082830Y-56337200D01*
X145082830Y-56337200D02*
X144987592Y-56384819D01*
X144987592Y-56384819D02*
X144844735Y-56384819D01*
X145606640Y-56384819D02*
X145606640Y-55718152D01*
X145606640Y-55813390D02*
X145654259Y-55765771D01*
X145654259Y-55765771D02*
X145749497Y-55718152D01*
X145749497Y-55718152D02*
X145892354Y-55718152D01*
X145892354Y-55718152D02*
X145987592Y-55765771D01*
X145987592Y-55765771D02*
X146035211Y-55861009D01*
X146035211Y-55861009D02*
X146035211Y-56384819D01*
X146035211Y-55861009D02*
X146082830Y-55765771D01*
X146082830Y-55765771D02*
X146178068Y-55718152D01*
X146178068Y-55718152D02*
X146320925Y-55718152D01*
X146320925Y-55718152D02*
X146416164Y-55765771D01*
X146416164Y-55765771D02*
X146463783Y-55861009D01*
X146463783Y-55861009D02*
X146463783Y-56384819D01*
X147654259Y-56337200D02*
X147797116Y-56384819D01*
X147797116Y-56384819D02*
X148035211Y-56384819D01*
X148035211Y-56384819D02*
X148130449Y-56337200D01*
X148130449Y-56337200D02*
X148178068Y-56289580D01*
X148178068Y-56289580D02*
X148225687Y-56194342D01*
X148225687Y-56194342D02*
X148225687Y-56099104D01*
X148225687Y-56099104D02*
X148178068Y-56003866D01*
X148178068Y-56003866D02*
X148130449Y-55956247D01*
X148130449Y-55956247D02*
X148035211Y-55908628D01*
X148035211Y-55908628D02*
X147844735Y-55861009D01*
X147844735Y-55861009D02*
X147749497Y-55813390D01*
X147749497Y-55813390D02*
X147701878Y-55765771D01*
X147701878Y-55765771D02*
X147654259Y-55670533D01*
X147654259Y-55670533D02*
X147654259Y-55575295D01*
X147654259Y-55575295D02*
X147701878Y-55480057D01*
X147701878Y-55480057D02*
X147749497Y-55432438D01*
X147749497Y-55432438D02*
X147844735Y-55384819D01*
X147844735Y-55384819D02*
X148082830Y-55384819D01*
X148082830Y-55384819D02*
X148225687Y-55432438D01*
X149035211Y-56337200D02*
X148939973Y-56384819D01*
X148939973Y-56384819D02*
X148749497Y-56384819D01*
X148749497Y-56384819D02*
X148654259Y-56337200D01*
X148654259Y-56337200D02*
X148606640Y-56241961D01*
X148606640Y-56241961D02*
X148606640Y-55861009D01*
X148606640Y-55861009D02*
X148654259Y-55765771D01*
X148654259Y-55765771D02*
X148749497Y-55718152D01*
X148749497Y-55718152D02*
X148939973Y-55718152D01*
X148939973Y-55718152D02*
X149035211Y-55765771D01*
X149035211Y-55765771D02*
X149082830Y-55861009D01*
X149082830Y-55861009D02*
X149082830Y-55956247D01*
X149082830Y-55956247D02*
X148606640Y-56051485D01*
X149939973Y-56337200D02*
X149844735Y-56384819D01*
X149844735Y-56384819D02*
X149654259Y-56384819D01*
X149654259Y-56384819D02*
X149559021Y-56337200D01*
X149559021Y-56337200D02*
X149511402Y-56289580D01*
X149511402Y-56289580D02*
X149463783Y-56194342D01*
X149463783Y-56194342D02*
X149463783Y-55908628D01*
X149463783Y-55908628D02*
X149511402Y-55813390D01*
X149511402Y-55813390D02*
X149559021Y-55765771D01*
X149559021Y-55765771D02*
X149654259Y-55718152D01*
X149654259Y-55718152D02*
X149844735Y-55718152D01*
X149844735Y-55718152D02*
X149939973Y-55765771D01*
X150511402Y-56384819D02*
X150416164Y-56337200D01*
X150416164Y-56337200D02*
X150368545Y-56289580D01*
X150368545Y-56289580D02*
X150320926Y-56194342D01*
X150320926Y-56194342D02*
X150320926Y-55908628D01*
X150320926Y-55908628D02*
X150368545Y-55813390D01*
X150368545Y-55813390D02*
X150416164Y-55765771D01*
X150416164Y-55765771D02*
X150511402Y-55718152D01*
X150511402Y-55718152D02*
X150654259Y-55718152D01*
X150654259Y-55718152D02*
X150749497Y-55765771D01*
X150749497Y-55765771D02*
X150797116Y-55813390D01*
X150797116Y-55813390D02*
X150844735Y-55908628D01*
X150844735Y-55908628D02*
X150844735Y-56194342D01*
X150844735Y-56194342D02*
X150797116Y-56289580D01*
X150797116Y-56289580D02*
X150749497Y-56337200D01*
X150749497Y-56337200D02*
X150654259Y-56384819D01*
X150654259Y-56384819D02*
X150511402Y-56384819D01*
X151273307Y-55718152D02*
X151273307Y-56384819D01*
X151273307Y-55813390D02*
X151320926Y-55765771D01*
X151320926Y-55765771D02*
X151416164Y-55718152D01*
X151416164Y-55718152D02*
X151559021Y-55718152D01*
X151559021Y-55718152D02*
X151654259Y-55765771D01*
X151654259Y-55765771D02*
X151701878Y-55861009D01*
X151701878Y-55861009D02*
X151701878Y-56384819D01*
X152606640Y-56384819D02*
X152606640Y-55384819D01*
X152606640Y-56337200D02*
X152511402Y-56384819D01*
X152511402Y-56384819D02*
X152320926Y-56384819D01*
X152320926Y-56384819D02*
X152225688Y-56337200D01*
X152225688Y-56337200D02*
X152178069Y-56289580D01*
X152178069Y-56289580D02*
X152130450Y-56194342D01*
X152130450Y-56194342D02*
X152130450Y-55908628D01*
X152130450Y-55908628D02*
X152178069Y-55813390D01*
X152178069Y-55813390D02*
X152225688Y-55765771D01*
X152225688Y-55765771D02*
X152320926Y-55718152D01*
X152320926Y-55718152D02*
X152511402Y-55718152D01*
X152511402Y-55718152D02*
X152606640Y-55765771D01*
X153511402Y-56384819D02*
X153511402Y-55861009D01*
X153511402Y-55861009D02*
X153463783Y-55765771D01*
X153463783Y-55765771D02*
X153368545Y-55718152D01*
X153368545Y-55718152D02*
X153178069Y-55718152D01*
X153178069Y-55718152D02*
X153082831Y-55765771D01*
X153511402Y-56337200D02*
X153416164Y-56384819D01*
X153416164Y-56384819D02*
X153178069Y-56384819D01*
X153178069Y-56384819D02*
X153082831Y-56337200D01*
X153082831Y-56337200D02*
X153035212Y-56241961D01*
X153035212Y-56241961D02*
X153035212Y-56146723D01*
X153035212Y-56146723D02*
X153082831Y-56051485D01*
X153082831Y-56051485D02*
X153178069Y-56003866D01*
X153178069Y-56003866D02*
X153416164Y-56003866D01*
X153416164Y-56003866D02*
X153511402Y-55956247D01*
X153987593Y-56384819D02*
X153987593Y-55718152D01*
X153987593Y-55908628D02*
X154035212Y-55813390D01*
X154035212Y-55813390D02*
X154082831Y-55765771D01*
X154082831Y-55765771D02*
X154178069Y-55718152D01*
X154178069Y-55718152D02*
X154273307Y-55718152D01*
X154511403Y-55718152D02*
X154749498Y-56384819D01*
X154987593Y-55718152D02*
X154749498Y-56384819D01*
X154749498Y-56384819D02*
X154654260Y-56622914D01*
X154654260Y-56622914D02*
X154606641Y-56670533D01*
X154606641Y-56670533D02*
X154511403Y-56718152D01*
X156082832Y-56337200D02*
X156225689Y-56384819D01*
X156225689Y-56384819D02*
X156463784Y-56384819D01*
X156463784Y-56384819D02*
X156559022Y-56337200D01*
X156559022Y-56337200D02*
X156606641Y-56289580D01*
X156606641Y-56289580D02*
X156654260Y-56194342D01*
X156654260Y-56194342D02*
X156654260Y-56099104D01*
X156654260Y-56099104D02*
X156606641Y-56003866D01*
X156606641Y-56003866D02*
X156559022Y-55956247D01*
X156559022Y-55956247D02*
X156463784Y-55908628D01*
X156463784Y-55908628D02*
X156273308Y-55861009D01*
X156273308Y-55861009D02*
X156178070Y-55813390D01*
X156178070Y-55813390D02*
X156130451Y-55765771D01*
X156130451Y-55765771D02*
X156082832Y-55670533D01*
X156082832Y-55670533D02*
X156082832Y-55575295D01*
X156082832Y-55575295D02*
X156130451Y-55480057D01*
X156130451Y-55480057D02*
X156178070Y-55432438D01*
X156178070Y-55432438D02*
X156273308Y-55384819D01*
X156273308Y-55384819D02*
X156511403Y-55384819D01*
X156511403Y-55384819D02*
X156654260Y-55432438D01*
X157082832Y-56384819D02*
X157082832Y-55718152D01*
X157082832Y-55384819D02*
X157035213Y-55432438D01*
X157035213Y-55432438D02*
X157082832Y-55480057D01*
X157082832Y-55480057D02*
X157130451Y-55432438D01*
X157130451Y-55432438D02*
X157082832Y-55384819D01*
X157082832Y-55384819D02*
X157082832Y-55480057D01*
X157987593Y-56384819D02*
X157987593Y-55384819D01*
X157987593Y-56337200D02*
X157892355Y-56384819D01*
X157892355Y-56384819D02*
X157701879Y-56384819D01*
X157701879Y-56384819D02*
X157606641Y-56337200D01*
X157606641Y-56337200D02*
X157559022Y-56289580D01*
X157559022Y-56289580D02*
X157511403Y-56194342D01*
X157511403Y-56194342D02*
X157511403Y-55908628D01*
X157511403Y-55908628D02*
X157559022Y-55813390D01*
X157559022Y-55813390D02*
X157606641Y-55765771D01*
X157606641Y-55765771D02*
X157701879Y-55718152D01*
X157701879Y-55718152D02*
X157892355Y-55718152D01*
X157892355Y-55718152D02*
X157987593Y-55765771D01*
X158844736Y-56337200D02*
X158749498Y-56384819D01*
X158749498Y-56384819D02*
X158559022Y-56384819D01*
X158559022Y-56384819D02*
X158463784Y-56337200D01*
X158463784Y-56337200D02*
X158416165Y-56241961D01*
X158416165Y-56241961D02*
X158416165Y-55861009D01*
X158416165Y-55861009D02*
X158463784Y-55765771D01*
X158463784Y-55765771D02*
X158559022Y-55718152D01*
X158559022Y-55718152D02*
X158749498Y-55718152D01*
X158749498Y-55718152D02*
X158844736Y-55765771D01*
X158844736Y-55765771D02*
X158892355Y-55861009D01*
X158892355Y-55861009D02*
X158892355Y-55956247D01*
X158892355Y-55956247D02*
X158416165Y-56051485D01*
X48538095Y-60144819D02*
X48538095Y-59144819D01*
X48538095Y-59144819D02*
X49109523Y-60144819D01*
X49109523Y-60144819D02*
X49109523Y-59144819D01*
X49728571Y-60144819D02*
X49633333Y-60097200D01*
X49633333Y-60097200D02*
X49585714Y-60049580D01*
X49585714Y-60049580D02*
X49538095Y-59954342D01*
X49538095Y-59954342D02*
X49538095Y-59668628D01*
X49538095Y-59668628D02*
X49585714Y-59573390D01*
X49585714Y-59573390D02*
X49633333Y-59525771D01*
X49633333Y-59525771D02*
X49728571Y-59478152D01*
X49728571Y-59478152D02*
X49871428Y-59478152D01*
X49871428Y-59478152D02*
X49966666Y-59525771D01*
X49966666Y-59525771D02*
X50014285Y-59573390D01*
X50014285Y-59573390D02*
X50061904Y-59668628D01*
X50061904Y-59668628D02*
X50061904Y-59954342D01*
X50061904Y-59954342D02*
X50014285Y-60049580D01*
X50014285Y-60049580D02*
X49966666Y-60097200D01*
X49966666Y-60097200D02*
X49871428Y-60144819D01*
X49871428Y-60144819D02*
X49728571Y-60144819D01*
X50347619Y-59478152D02*
X50728571Y-59478152D01*
X50490476Y-59144819D02*
X50490476Y-60001961D01*
X50490476Y-60001961D02*
X50538095Y-60097200D01*
X50538095Y-60097200D02*
X50633333Y-60144819D01*
X50633333Y-60144819D02*
X50728571Y-60144819D01*
X51442857Y-60097200D02*
X51347619Y-60144819D01*
X51347619Y-60144819D02*
X51157143Y-60144819D01*
X51157143Y-60144819D02*
X51061905Y-60097200D01*
X51061905Y-60097200D02*
X51014286Y-60001961D01*
X51014286Y-60001961D02*
X51014286Y-59621009D01*
X51014286Y-59621009D02*
X51061905Y-59525771D01*
X51061905Y-59525771D02*
X51157143Y-59478152D01*
X51157143Y-59478152D02*
X51347619Y-59478152D01*
X51347619Y-59478152D02*
X51442857Y-59525771D01*
X51442857Y-59525771D02*
X51490476Y-59621009D01*
X51490476Y-59621009D02*
X51490476Y-59716247D01*
X51490476Y-59716247D02*
X51014286Y-59811485D01*
X52633334Y-59859104D02*
X53109524Y-59859104D01*
X52538096Y-60144819D02*
X52871429Y-59144819D01*
X52871429Y-59144819D02*
X53204762Y-60144819D01*
D10*
X69233929Y-65560394D02*
X63500000Y-59690000D01*
X69233929Y-65560394D02*
X68027283Y-65164281D01*
X69233929Y-65560394D02*
X68866302Y-64344766D01*
X63500000Y-59690000D02*
X53925001Y-59690000D01*
X69233929Y-65560394D02*
X63500000Y-59690000D01*
X69233929Y-65560394D02*
X68027283Y-65164281D01*
X69233929Y-65560394D02*
X68866302Y-64344766D01*
X63500000Y-59690000D02*
X53925001Y-59690000D01*
D11*
X48538095Y-109674819D02*
X48538095Y-108674819D01*
X48538095Y-108674819D02*
X49109523Y-109674819D01*
X49109523Y-109674819D02*
X49109523Y-108674819D01*
X49728571Y-109674819D02*
X49633333Y-109627200D01*
X49633333Y-109627200D02*
X49585714Y-109579580D01*
X49585714Y-109579580D02*
X49538095Y-109484342D01*
X49538095Y-109484342D02*
X49538095Y-109198628D01*
X49538095Y-109198628D02*
X49585714Y-109103390D01*
X49585714Y-109103390D02*
X49633333Y-109055771D01*
X49633333Y-109055771D02*
X49728571Y-109008152D01*
X49728571Y-109008152D02*
X49871428Y-109008152D01*
X49871428Y-109008152D02*
X49966666Y-109055771D01*
X49966666Y-109055771D02*
X50014285Y-109103390D01*
X50014285Y-109103390D02*
X50061904Y-109198628D01*
X50061904Y-109198628D02*
X50061904Y-109484342D01*
X50061904Y-109484342D02*
X50014285Y-109579580D01*
X50014285Y-109579580D02*
X49966666Y-109627200D01*
X49966666Y-109627200D02*
X49871428Y-109674819D01*
X49871428Y-109674819D02*
X49728571Y-109674819D01*
X50347619Y-109008152D02*
X50728571Y-109008152D01*
X50490476Y-108674819D02*
X50490476Y-109531961D01*
X50490476Y-109531961D02*
X50538095Y-109627200D01*
X50538095Y-109627200D02*
X50633333Y-109674819D01*
X50633333Y-109674819D02*
X50728571Y-109674819D01*
X51442857Y-109627200D02*
X51347619Y-109674819D01*
X51347619Y-109674819D02*
X51157143Y-109674819D01*
X51157143Y-109674819D02*
X51061905Y-109627200D01*
X51061905Y-109627200D02*
X51014286Y-109531961D01*
X51014286Y-109531961D02*
X51014286Y-109151009D01*
X51014286Y-109151009D02*
X51061905Y-109055771D01*
X51061905Y-109055771D02*
X51157143Y-109008152D01*
X51157143Y-109008152D02*
X51347619Y-109008152D01*
X51347619Y-109008152D02*
X51442857Y-109055771D01*
X51442857Y-109055771D02*
X51490476Y-109151009D01*
X51490476Y-109151009D02*
X51490476Y-109246247D01*
X51490476Y-109246247D02*
X51014286Y-109341485D01*
X52633334Y-109389104D02*
X53109524Y-109389104D01*
X52538096Y-109674819D02*
X52871429Y-108674819D01*
X52871429Y-108674819D02*
X53204762Y-109674819D01*
D10*
X69255465Y-115847796D02*
X63500000Y-109220000D01*
X69255465Y-115847796D02*
X68074075Y-115381731D01*
X69255465Y-115847796D02*
X68959625Y-114612734D01*
X63500000Y-109220000D02*
X53925001Y-109220000D01*
X69255465Y-115847796D02*
X63500000Y-109220000D01*
X69255465Y-115847796D02*
X68074075Y-115381731D01*
X69255465Y-115847796D02*
X68959625Y-114612734D01*
X63500000Y-109220000D02*
X53925001Y-109220000D01*
D11*
X94258095Y-48714819D02*
X94258095Y-47714819D01*
X94258095Y-47714819D02*
X94829523Y-48714819D01*
X94829523Y-48714819D02*
X94829523Y-47714819D01*
X95448571Y-48714819D02*
X95353333Y-48667200D01*
X95353333Y-48667200D02*
X95305714Y-48619580D01*
X95305714Y-48619580D02*
X95258095Y-48524342D01*
X95258095Y-48524342D02*
X95258095Y-48238628D01*
X95258095Y-48238628D02*
X95305714Y-48143390D01*
X95305714Y-48143390D02*
X95353333Y-48095771D01*
X95353333Y-48095771D02*
X95448571Y-48048152D01*
X95448571Y-48048152D02*
X95591428Y-48048152D01*
X95591428Y-48048152D02*
X95686666Y-48095771D01*
X95686666Y-48095771D02*
X95734285Y-48143390D01*
X95734285Y-48143390D02*
X95781904Y-48238628D01*
X95781904Y-48238628D02*
X95781904Y-48524342D01*
X95781904Y-48524342D02*
X95734285Y-48619580D01*
X95734285Y-48619580D02*
X95686666Y-48667200D01*
X95686666Y-48667200D02*
X95591428Y-48714819D01*
X95591428Y-48714819D02*
X95448571Y-48714819D01*
X96067619Y-48048152D02*
X96448571Y-48048152D01*
X96210476Y-47714819D02*
X96210476Y-48571961D01*
X96210476Y-48571961D02*
X96258095Y-48667200D01*
X96258095Y-48667200D02*
X96353333Y-48714819D01*
X96353333Y-48714819D02*
X96448571Y-48714819D01*
X97162857Y-48667200D02*
X97067619Y-48714819D01*
X97067619Y-48714819D02*
X96877143Y-48714819D01*
X96877143Y-48714819D02*
X96781905Y-48667200D01*
X96781905Y-48667200D02*
X96734286Y-48571961D01*
X96734286Y-48571961D02*
X96734286Y-48191009D01*
X96734286Y-48191009D02*
X96781905Y-48095771D01*
X96781905Y-48095771D02*
X96877143Y-48048152D01*
X96877143Y-48048152D02*
X97067619Y-48048152D01*
X97067619Y-48048152D02*
X97162857Y-48095771D01*
X97162857Y-48095771D02*
X97210476Y-48191009D01*
X97210476Y-48191009D02*
X97210476Y-48286247D01*
X97210476Y-48286247D02*
X96734286Y-48381485D01*
X98353334Y-48429104D02*
X98829524Y-48429104D01*
X98258096Y-48714819D02*
X98591429Y-47714819D01*
X98591429Y-47714819D02*
X98924762Y-48714819D01*
D10*
X77714497Y-53345131D02*
X83820000Y-48260000D01*
X77714497Y-53345131D02*
X78204800Y-52173592D01*
X77714497Y-53345131D02*
X78955391Y-53074796D01*
X83820000Y-48260000D02*
X93395000Y-48260000D01*
X77714497Y-53345131D02*
X83820000Y-48260000D01*
X77714497Y-53345131D02*
X78204800Y-52173592D01*
X77714497Y-53345131D02*
X78955391Y-53074796D01*
X83820000Y-48260000D02*
X93395000Y-48260000D01*
D11*
X92988095Y-107134819D02*
X92988095Y-106134819D01*
X92988095Y-106134819D02*
X93559523Y-107134819D01*
X93559523Y-107134819D02*
X93559523Y-106134819D01*
X94178571Y-107134819D02*
X94083333Y-107087200D01*
X94083333Y-107087200D02*
X94035714Y-107039580D01*
X94035714Y-107039580D02*
X93988095Y-106944342D01*
X93988095Y-106944342D02*
X93988095Y-106658628D01*
X93988095Y-106658628D02*
X94035714Y-106563390D01*
X94035714Y-106563390D02*
X94083333Y-106515771D01*
X94083333Y-106515771D02*
X94178571Y-106468152D01*
X94178571Y-106468152D02*
X94321428Y-106468152D01*
X94321428Y-106468152D02*
X94416666Y-106515771D01*
X94416666Y-106515771D02*
X94464285Y-106563390D01*
X94464285Y-106563390D02*
X94511904Y-106658628D01*
X94511904Y-106658628D02*
X94511904Y-106944342D01*
X94511904Y-106944342D02*
X94464285Y-107039580D01*
X94464285Y-107039580D02*
X94416666Y-107087200D01*
X94416666Y-107087200D02*
X94321428Y-107134819D01*
X94321428Y-107134819D02*
X94178571Y-107134819D01*
X94797619Y-106468152D02*
X95178571Y-106468152D01*
X94940476Y-106134819D02*
X94940476Y-106991961D01*
X94940476Y-106991961D02*
X94988095Y-107087200D01*
X94988095Y-107087200D02*
X95083333Y-107134819D01*
X95083333Y-107134819D02*
X95178571Y-107134819D01*
X95892857Y-107087200D02*
X95797619Y-107134819D01*
X95797619Y-107134819D02*
X95607143Y-107134819D01*
X95607143Y-107134819D02*
X95511905Y-107087200D01*
X95511905Y-107087200D02*
X95464286Y-106991961D01*
X95464286Y-106991961D02*
X95464286Y-106611009D01*
X95464286Y-106611009D02*
X95511905Y-106515771D01*
X95511905Y-106515771D02*
X95607143Y-106468152D01*
X95607143Y-106468152D02*
X95797619Y-106468152D01*
X95797619Y-106468152D02*
X95892857Y-106515771D01*
X95892857Y-106515771D02*
X95940476Y-106611009D01*
X95940476Y-106611009D02*
X95940476Y-106706247D01*
X95940476Y-106706247D02*
X95464286Y-106801485D01*
X97083334Y-106849104D02*
X97559524Y-106849104D01*
X96988096Y-107134819D02*
X97321429Y-106134819D01*
X97321429Y-106134819D02*
X97654762Y-107134819D01*
D10*
X77601925Y-115787247D02*
X82550000Y-106680000D01*
X77601925Y-115787247D02*
X77624439Y-114517447D01*
X77601925Y-115787247D02*
X78654998Y-115077362D01*
X82550000Y-106680000D02*
X92125000Y-106680000D01*
X77601925Y-115787247D02*
X82550000Y-106680000D01*
X77601925Y-115787247D02*
X77624439Y-114517447D01*
X77601925Y-115787247D02*
X78654998Y-115077362D01*
X82550000Y-106680000D02*
X92125000Y-106680000D01*
D11*
X92988095Y-70304819D02*
X92988095Y-69304819D01*
X92988095Y-69304819D02*
X93559523Y-70304819D01*
X93559523Y-70304819D02*
X93559523Y-69304819D01*
X94178571Y-70304819D02*
X94083333Y-70257200D01*
X94083333Y-70257200D02*
X94035714Y-70209580D01*
X94035714Y-70209580D02*
X93988095Y-70114342D01*
X93988095Y-70114342D02*
X93988095Y-69828628D01*
X93988095Y-69828628D02*
X94035714Y-69733390D01*
X94035714Y-69733390D02*
X94083333Y-69685771D01*
X94083333Y-69685771D02*
X94178571Y-69638152D01*
X94178571Y-69638152D02*
X94321428Y-69638152D01*
X94321428Y-69638152D02*
X94416666Y-69685771D01*
X94416666Y-69685771D02*
X94464285Y-69733390D01*
X94464285Y-69733390D02*
X94511904Y-69828628D01*
X94511904Y-69828628D02*
X94511904Y-70114342D01*
X94511904Y-70114342D02*
X94464285Y-70209580D01*
X94464285Y-70209580D02*
X94416666Y-70257200D01*
X94416666Y-70257200D02*
X94321428Y-70304819D01*
X94321428Y-70304819D02*
X94178571Y-70304819D01*
X94797619Y-69638152D02*
X95178571Y-69638152D01*
X94940476Y-69304819D02*
X94940476Y-70161961D01*
X94940476Y-70161961D02*
X94988095Y-70257200D01*
X94988095Y-70257200D02*
X95083333Y-70304819D01*
X95083333Y-70304819D02*
X95178571Y-70304819D01*
X95892857Y-70257200D02*
X95797619Y-70304819D01*
X95797619Y-70304819D02*
X95607143Y-70304819D01*
X95607143Y-70304819D02*
X95511905Y-70257200D01*
X95511905Y-70257200D02*
X95464286Y-70161961D01*
X95464286Y-70161961D02*
X95464286Y-69781009D01*
X95464286Y-69781009D02*
X95511905Y-69685771D01*
X95511905Y-69685771D02*
X95607143Y-69638152D01*
X95607143Y-69638152D02*
X95797619Y-69638152D01*
X95797619Y-69638152D02*
X95892857Y-69685771D01*
X95892857Y-69685771D02*
X95940476Y-69781009D01*
X95940476Y-69781009D02*
X95940476Y-69876247D01*
X95940476Y-69876247D02*
X95464286Y-69971485D01*
X97083334Y-70019104D02*
X97559524Y-70019104D01*
X96988096Y-70304819D02*
X97321429Y-69304819D01*
X97321429Y-69304819D02*
X97654762Y-70304819D01*
D10*
X77626586Y-77795551D02*
X82550000Y-69850000D01*
X77626586Y-77795551D02*
X77721459Y-76529100D01*
X77626586Y-77795551D02*
X78718419Y-77146860D01*
X82550000Y-69850000D02*
X92125000Y-69850000D01*
X77626586Y-77795551D02*
X82550000Y-69850000D01*
X77626586Y-77795551D02*
X77721459Y-76529100D01*
X77626586Y-77795551D02*
X78718419Y-77146860D01*
X82550000Y-69850000D02*
X92125000Y-69850000D01*
D11*
X92988095Y-60144819D02*
X92988095Y-59144819D01*
X92988095Y-59144819D02*
X93559523Y-60144819D01*
X93559523Y-60144819D02*
X93559523Y-59144819D01*
X94178571Y-60144819D02*
X94083333Y-60097200D01*
X94083333Y-60097200D02*
X94035714Y-60049580D01*
X94035714Y-60049580D02*
X93988095Y-59954342D01*
X93988095Y-59954342D02*
X93988095Y-59668628D01*
X93988095Y-59668628D02*
X94035714Y-59573390D01*
X94035714Y-59573390D02*
X94083333Y-59525771D01*
X94083333Y-59525771D02*
X94178571Y-59478152D01*
X94178571Y-59478152D02*
X94321428Y-59478152D01*
X94321428Y-59478152D02*
X94416666Y-59525771D01*
X94416666Y-59525771D02*
X94464285Y-59573390D01*
X94464285Y-59573390D02*
X94511904Y-59668628D01*
X94511904Y-59668628D02*
X94511904Y-59954342D01*
X94511904Y-59954342D02*
X94464285Y-60049580D01*
X94464285Y-60049580D02*
X94416666Y-60097200D01*
X94416666Y-60097200D02*
X94321428Y-60144819D01*
X94321428Y-60144819D02*
X94178571Y-60144819D01*
X94797619Y-59478152D02*
X95178571Y-59478152D01*
X94940476Y-59144819D02*
X94940476Y-60001961D01*
X94940476Y-60001961D02*
X94988095Y-60097200D01*
X94988095Y-60097200D02*
X95083333Y-60144819D01*
X95083333Y-60144819D02*
X95178571Y-60144819D01*
X95892857Y-60097200D02*
X95797619Y-60144819D01*
X95797619Y-60144819D02*
X95607143Y-60144819D01*
X95607143Y-60144819D02*
X95511905Y-60097200D01*
X95511905Y-60097200D02*
X95464286Y-60001961D01*
X95464286Y-60001961D02*
X95464286Y-59621009D01*
X95464286Y-59621009D02*
X95511905Y-59525771D01*
X95511905Y-59525771D02*
X95607143Y-59478152D01*
X95607143Y-59478152D02*
X95797619Y-59478152D01*
X95797619Y-59478152D02*
X95892857Y-59525771D01*
X95892857Y-59525771D02*
X95940476Y-59621009D01*
X95940476Y-59621009D02*
X95940476Y-59716247D01*
X95940476Y-59716247D02*
X95464286Y-59811485D01*
X97083334Y-59859104D02*
X97559524Y-59859104D01*
X96988096Y-60144819D02*
X97321429Y-59144819D01*
X97321429Y-59144819D02*
X97654762Y-60144819D01*
D10*
X77651467Y-65534868D02*
X82550000Y-59690000D01*
X77651467Y-65534868D02*
X77925611Y-64294810D01*
X77651467Y-65534868D02*
X78824506Y-65048166D01*
X82550000Y-59690000D02*
X92125000Y-59690000D01*
X77651467Y-65534868D02*
X82550000Y-59690000D01*
X77651467Y-65534868D02*
X77925611Y-64294810D01*
X77651467Y-65534868D02*
X78824506Y-65048166D01*
X82550000Y-59690000D02*
X92125000Y-59690000D01*
D11*
X94258095Y-91894819D02*
X94258095Y-90894819D01*
X94258095Y-90894819D02*
X94829523Y-91894819D01*
X94829523Y-91894819D02*
X94829523Y-90894819D01*
X95448571Y-91894819D02*
X95353333Y-91847200D01*
X95353333Y-91847200D02*
X95305714Y-91799580D01*
X95305714Y-91799580D02*
X95258095Y-91704342D01*
X95258095Y-91704342D02*
X95258095Y-91418628D01*
X95258095Y-91418628D02*
X95305714Y-91323390D01*
X95305714Y-91323390D02*
X95353333Y-91275771D01*
X95353333Y-91275771D02*
X95448571Y-91228152D01*
X95448571Y-91228152D02*
X95591428Y-91228152D01*
X95591428Y-91228152D02*
X95686666Y-91275771D01*
X95686666Y-91275771D02*
X95734285Y-91323390D01*
X95734285Y-91323390D02*
X95781904Y-91418628D01*
X95781904Y-91418628D02*
X95781904Y-91704342D01*
X95781904Y-91704342D02*
X95734285Y-91799580D01*
X95734285Y-91799580D02*
X95686666Y-91847200D01*
X95686666Y-91847200D02*
X95591428Y-91894819D01*
X95591428Y-91894819D02*
X95448571Y-91894819D01*
X96067619Y-91228152D02*
X96448571Y-91228152D01*
X96210476Y-90894819D02*
X96210476Y-91751961D01*
X96210476Y-91751961D02*
X96258095Y-91847200D01*
X96258095Y-91847200D02*
X96353333Y-91894819D01*
X96353333Y-91894819D02*
X96448571Y-91894819D01*
X97162857Y-91847200D02*
X97067619Y-91894819D01*
X97067619Y-91894819D02*
X96877143Y-91894819D01*
X96877143Y-91894819D02*
X96781905Y-91847200D01*
X96781905Y-91847200D02*
X96734286Y-91751961D01*
X96734286Y-91751961D02*
X96734286Y-91371009D01*
X96734286Y-91371009D02*
X96781905Y-91275771D01*
X96781905Y-91275771D02*
X96877143Y-91228152D01*
X96877143Y-91228152D02*
X97067619Y-91228152D01*
X97067619Y-91228152D02*
X97162857Y-91275771D01*
X97162857Y-91275771D02*
X97210476Y-91371009D01*
X97210476Y-91371009D02*
X97210476Y-91466247D01*
X97210476Y-91466247D02*
X96734286Y-91561485D01*
X98353334Y-91609104D02*
X98829524Y-91609104D01*
X98258096Y-91894819D02*
X98591429Y-90894819D01*
X98591429Y-90894819D02*
X98924762Y-91894819D01*
D10*
X77592867Y-103483765D02*
X83820000Y-91440000D01*
X77592867Y-103483765D02*
X77589340Y-102213770D01*
X77592867Y-103483765D02*
X78631163Y-102752436D01*
X83820000Y-91440000D02*
X93395000Y-91440000D01*
X77592867Y-103483765D02*
X83820000Y-91440000D01*
X77592867Y-103483765D02*
X77589340Y-102213770D01*
X77592867Y-103483765D02*
X78631163Y-102752436D01*
X83820000Y-91440000D02*
X93395000Y-91440000D01*
D11*
X48538095Y-122374819D02*
X48538095Y-121374819D01*
X48538095Y-121374819D02*
X49109523Y-122374819D01*
X49109523Y-122374819D02*
X49109523Y-121374819D01*
X49728571Y-122374819D02*
X49633333Y-122327200D01*
X49633333Y-122327200D02*
X49585714Y-122279580D01*
X49585714Y-122279580D02*
X49538095Y-122184342D01*
X49538095Y-122184342D02*
X49538095Y-121898628D01*
X49538095Y-121898628D02*
X49585714Y-121803390D01*
X49585714Y-121803390D02*
X49633333Y-121755771D01*
X49633333Y-121755771D02*
X49728571Y-121708152D01*
X49728571Y-121708152D02*
X49871428Y-121708152D01*
X49871428Y-121708152D02*
X49966666Y-121755771D01*
X49966666Y-121755771D02*
X50014285Y-121803390D01*
X50014285Y-121803390D02*
X50061904Y-121898628D01*
X50061904Y-121898628D02*
X50061904Y-122184342D01*
X50061904Y-122184342D02*
X50014285Y-122279580D01*
X50014285Y-122279580D02*
X49966666Y-122327200D01*
X49966666Y-122327200D02*
X49871428Y-122374819D01*
X49871428Y-122374819D02*
X49728571Y-122374819D01*
X50347619Y-121708152D02*
X50728571Y-121708152D01*
X50490476Y-121374819D02*
X50490476Y-122231961D01*
X50490476Y-122231961D02*
X50538095Y-122327200D01*
X50538095Y-122327200D02*
X50633333Y-122374819D01*
X50633333Y-122374819D02*
X50728571Y-122374819D01*
X51442857Y-122327200D02*
X51347619Y-122374819D01*
X51347619Y-122374819D02*
X51157143Y-122374819D01*
X51157143Y-122374819D02*
X51061905Y-122327200D01*
X51061905Y-122327200D02*
X51014286Y-122231961D01*
X51014286Y-122231961D02*
X51014286Y-121851009D01*
X51014286Y-121851009D02*
X51061905Y-121755771D01*
X51061905Y-121755771D02*
X51157143Y-121708152D01*
X51157143Y-121708152D02*
X51347619Y-121708152D01*
X51347619Y-121708152D02*
X51442857Y-121755771D01*
X51442857Y-121755771D02*
X51490476Y-121851009D01*
X51490476Y-121851009D02*
X51490476Y-121946247D01*
X51490476Y-121946247D02*
X51014286Y-122041485D01*
X52633334Y-122089104D02*
X53109524Y-122089104D01*
X52538096Y-122374819D02*
X52871429Y-121374819D01*
X52871429Y-121374819D02*
X53204762Y-122374819D01*
D10*
X69243377Y-128115413D02*
X63500000Y-121920000D01*
X69243377Y-128115413D02*
X68047473Y-127687963D01*
X69243377Y-128115413D02*
X68907581Y-126890610D01*
X63500000Y-121920000D02*
X53925001Y-121920000D01*
X69243377Y-128115413D02*
X63500000Y-121920000D01*
X69243377Y-128115413D02*
X68047473Y-127687963D01*
X69243377Y-128115413D02*
X68907581Y-126890610D01*
X63500000Y-121920000D02*
X53925001Y-121920000D01*
D11*
X47268095Y-72844819D02*
X47268095Y-71844819D01*
X47268095Y-71844819D02*
X47839523Y-72844819D01*
X47839523Y-72844819D02*
X47839523Y-71844819D01*
X48458571Y-72844819D02*
X48363333Y-72797200D01*
X48363333Y-72797200D02*
X48315714Y-72749580D01*
X48315714Y-72749580D02*
X48268095Y-72654342D01*
X48268095Y-72654342D02*
X48268095Y-72368628D01*
X48268095Y-72368628D02*
X48315714Y-72273390D01*
X48315714Y-72273390D02*
X48363333Y-72225771D01*
X48363333Y-72225771D02*
X48458571Y-72178152D01*
X48458571Y-72178152D02*
X48601428Y-72178152D01*
X48601428Y-72178152D02*
X48696666Y-72225771D01*
X48696666Y-72225771D02*
X48744285Y-72273390D01*
X48744285Y-72273390D02*
X48791904Y-72368628D01*
X48791904Y-72368628D02*
X48791904Y-72654342D01*
X48791904Y-72654342D02*
X48744285Y-72749580D01*
X48744285Y-72749580D02*
X48696666Y-72797200D01*
X48696666Y-72797200D02*
X48601428Y-72844819D01*
X48601428Y-72844819D02*
X48458571Y-72844819D01*
X49077619Y-72178152D02*
X49458571Y-72178152D01*
X49220476Y-71844819D02*
X49220476Y-72701961D01*
X49220476Y-72701961D02*
X49268095Y-72797200D01*
X49268095Y-72797200D02*
X49363333Y-72844819D01*
X49363333Y-72844819D02*
X49458571Y-72844819D01*
X50172857Y-72797200D02*
X50077619Y-72844819D01*
X50077619Y-72844819D02*
X49887143Y-72844819D01*
X49887143Y-72844819D02*
X49791905Y-72797200D01*
X49791905Y-72797200D02*
X49744286Y-72701961D01*
X49744286Y-72701961D02*
X49744286Y-72321009D01*
X49744286Y-72321009D02*
X49791905Y-72225771D01*
X49791905Y-72225771D02*
X49887143Y-72178152D01*
X49887143Y-72178152D02*
X50077619Y-72178152D01*
X50077619Y-72178152D02*
X50172857Y-72225771D01*
X50172857Y-72225771D02*
X50220476Y-72321009D01*
X50220476Y-72321009D02*
X50220476Y-72416247D01*
X50220476Y-72416247D02*
X49744286Y-72511485D01*
X51363334Y-72559104D02*
X51839524Y-72559104D01*
X51268096Y-72844819D02*
X51601429Y-71844819D01*
X51601429Y-71844819D02*
X51934762Y-72844819D01*
D10*
X69191483Y-77908689D02*
X62230000Y-72390000D01*
X69191483Y-77908689D02*
X67944418Y-77668418D01*
X69191483Y-77908689D02*
X68673014Y-76749340D01*
X62230000Y-72390000D02*
X52655001Y-72390000D01*
X69191483Y-77908689D02*
X62230000Y-72390000D01*
X69191483Y-77908689D02*
X67944418Y-77668418D01*
X69191483Y-77908689D02*
X68673014Y-76749340D01*
X62230000Y-72390000D02*
X52655001Y-72390000D01*
D11*
X49808095Y-98244819D02*
X49808095Y-97244819D01*
X49808095Y-97244819D02*
X50379523Y-98244819D01*
X50379523Y-98244819D02*
X50379523Y-97244819D01*
X50998571Y-98244819D02*
X50903333Y-98197200D01*
X50903333Y-98197200D02*
X50855714Y-98149580D01*
X50855714Y-98149580D02*
X50808095Y-98054342D01*
X50808095Y-98054342D02*
X50808095Y-97768628D01*
X50808095Y-97768628D02*
X50855714Y-97673390D01*
X50855714Y-97673390D02*
X50903333Y-97625771D01*
X50903333Y-97625771D02*
X50998571Y-97578152D01*
X50998571Y-97578152D02*
X51141428Y-97578152D01*
X51141428Y-97578152D02*
X51236666Y-97625771D01*
X51236666Y-97625771D02*
X51284285Y-97673390D01*
X51284285Y-97673390D02*
X51331904Y-97768628D01*
X51331904Y-97768628D02*
X51331904Y-98054342D01*
X51331904Y-98054342D02*
X51284285Y-98149580D01*
X51284285Y-98149580D02*
X51236666Y-98197200D01*
X51236666Y-98197200D02*
X51141428Y-98244819D01*
X51141428Y-98244819D02*
X50998571Y-98244819D01*
X51617619Y-97578152D02*
X51998571Y-97578152D01*
X51760476Y-97244819D02*
X51760476Y-98101961D01*
X51760476Y-98101961D02*
X51808095Y-98197200D01*
X51808095Y-98197200D02*
X51903333Y-98244819D01*
X51903333Y-98244819D02*
X51998571Y-98244819D01*
X52712857Y-98197200D02*
X52617619Y-98244819D01*
X52617619Y-98244819D02*
X52427143Y-98244819D01*
X52427143Y-98244819D02*
X52331905Y-98197200D01*
X52331905Y-98197200D02*
X52284286Y-98101961D01*
X52284286Y-98101961D02*
X52284286Y-97721009D01*
X52284286Y-97721009D02*
X52331905Y-97625771D01*
X52331905Y-97625771D02*
X52427143Y-97578152D01*
X52427143Y-97578152D02*
X52617619Y-97578152D01*
X52617619Y-97578152D02*
X52712857Y-97625771D01*
X52712857Y-97625771D02*
X52760476Y-97721009D01*
X52760476Y-97721009D02*
X52760476Y-97816247D01*
X52760476Y-97816247D02*
X52284286Y-97911485D01*
X53903334Y-97959104D02*
X54379524Y-97959104D01*
X53808096Y-98244819D02*
X54141429Y-97244819D01*
X54141429Y-97244819D02*
X54474762Y-98244819D01*
D10*
X69274641Y-103530743D02*
X64770000Y-97790000D01*
X69274641Y-103530743D02*
X68117885Y-103006515D01*
X69274641Y-103530743D02*
X69040575Y-102282499D01*
X64770000Y-97790000D02*
X55195001Y-97790000D01*
X69274641Y-103530743D02*
X64770000Y-97790000D01*
X69274641Y-103530743D02*
X68117885Y-103006515D01*
X69274641Y-103530743D02*
X69040575Y-102282499D01*
X64770000Y-97790000D02*
X55195001Y-97790000D01*
D11*
X94258095Y-122374819D02*
X94258095Y-121374819D01*
X94258095Y-121374819D02*
X94829523Y-122374819D01*
X94829523Y-122374819D02*
X94829523Y-121374819D01*
X95448571Y-122374819D02*
X95353333Y-122327200D01*
X95353333Y-122327200D02*
X95305714Y-122279580D01*
X95305714Y-122279580D02*
X95258095Y-122184342D01*
X95258095Y-122184342D02*
X95258095Y-121898628D01*
X95258095Y-121898628D02*
X95305714Y-121803390D01*
X95305714Y-121803390D02*
X95353333Y-121755771D01*
X95353333Y-121755771D02*
X95448571Y-121708152D01*
X95448571Y-121708152D02*
X95591428Y-121708152D01*
X95591428Y-121708152D02*
X95686666Y-121755771D01*
X95686666Y-121755771D02*
X95734285Y-121803390D01*
X95734285Y-121803390D02*
X95781904Y-121898628D01*
X95781904Y-121898628D02*
X95781904Y-122184342D01*
X95781904Y-122184342D02*
X95734285Y-122279580D01*
X95734285Y-122279580D02*
X95686666Y-122327200D01*
X95686666Y-122327200D02*
X95591428Y-122374819D01*
X95591428Y-122374819D02*
X95448571Y-122374819D01*
X96067619Y-121708152D02*
X96448571Y-121708152D01*
X96210476Y-121374819D02*
X96210476Y-122231961D01*
X96210476Y-122231961D02*
X96258095Y-122327200D01*
X96258095Y-122327200D02*
X96353333Y-122374819D01*
X96353333Y-122374819D02*
X96448571Y-122374819D01*
X97162857Y-122327200D02*
X97067619Y-122374819D01*
X97067619Y-122374819D02*
X96877143Y-122374819D01*
X96877143Y-122374819D02*
X96781905Y-122327200D01*
X96781905Y-122327200D02*
X96734286Y-122231961D01*
X96734286Y-122231961D02*
X96734286Y-121851009D01*
X96734286Y-121851009D02*
X96781905Y-121755771D01*
X96781905Y-121755771D02*
X96877143Y-121708152D01*
X96877143Y-121708152D02*
X97067619Y-121708152D01*
X97067619Y-121708152D02*
X97162857Y-121755771D01*
X97162857Y-121755771D02*
X97210476Y-121851009D01*
X97210476Y-121851009D02*
X97210476Y-121946247D01*
X97210476Y-121946247D02*
X96734286Y-122041485D01*
X98353334Y-122089104D02*
X98829524Y-122089104D01*
X98258096Y-122374819D02*
X98591429Y-121374819D01*
X98591429Y-121374819D02*
X98924762Y-122374819D01*
D10*
X77713907Y-128125688D02*
X83820000Y-121920000D01*
X77713907Y-128125688D02*
X78085993Y-126911418D01*
X77713907Y-128125688D02*
X78921999Y-127734006D01*
X83820000Y-121920000D02*
X93395000Y-121920000D01*
X77713907Y-128125688D02*
X83820000Y-121920000D01*
X77713907Y-128125688D02*
X78085993Y-126911418D01*
X77713907Y-128125688D02*
X78921999Y-127734006D01*
X83820000Y-121920000D02*
X93395000Y-121920000D01*
D11*
X48411095Y-49984819D02*
X48411095Y-48984819D01*
X48411095Y-48984819D02*
X48982523Y-49984819D01*
X48982523Y-49984819D02*
X48982523Y-48984819D01*
X49601571Y-49984819D02*
X49506333Y-49937200D01*
X49506333Y-49937200D02*
X49458714Y-49889580D01*
X49458714Y-49889580D02*
X49411095Y-49794342D01*
X49411095Y-49794342D02*
X49411095Y-49508628D01*
X49411095Y-49508628D02*
X49458714Y-49413390D01*
X49458714Y-49413390D02*
X49506333Y-49365771D01*
X49506333Y-49365771D02*
X49601571Y-49318152D01*
X49601571Y-49318152D02*
X49744428Y-49318152D01*
X49744428Y-49318152D02*
X49839666Y-49365771D01*
X49839666Y-49365771D02*
X49887285Y-49413390D01*
X49887285Y-49413390D02*
X49934904Y-49508628D01*
X49934904Y-49508628D02*
X49934904Y-49794342D01*
X49934904Y-49794342D02*
X49887285Y-49889580D01*
X49887285Y-49889580D02*
X49839666Y-49937200D01*
X49839666Y-49937200D02*
X49744428Y-49984819D01*
X49744428Y-49984819D02*
X49601571Y-49984819D01*
X50220619Y-49318152D02*
X50601571Y-49318152D01*
X50363476Y-48984819D02*
X50363476Y-49841961D01*
X50363476Y-49841961D02*
X50411095Y-49937200D01*
X50411095Y-49937200D02*
X50506333Y-49984819D01*
X50506333Y-49984819D02*
X50601571Y-49984819D01*
X51315857Y-49937200D02*
X51220619Y-49984819D01*
X51220619Y-49984819D02*
X51030143Y-49984819D01*
X51030143Y-49984819D02*
X50934905Y-49937200D01*
X50934905Y-49937200D02*
X50887286Y-49841961D01*
X50887286Y-49841961D02*
X50887286Y-49461009D01*
X50887286Y-49461009D02*
X50934905Y-49365771D01*
X50934905Y-49365771D02*
X51030143Y-49318152D01*
X51030143Y-49318152D02*
X51220619Y-49318152D01*
X51220619Y-49318152D02*
X51315857Y-49365771D01*
X51315857Y-49365771D02*
X51363476Y-49461009D01*
X51363476Y-49461009D02*
X51363476Y-49556247D01*
X51363476Y-49556247D02*
X50887286Y-49651485D01*
X52506334Y-49699104D02*
X52982524Y-49699104D01*
X52411096Y-49984819D02*
X52744429Y-48984819D01*
X52744429Y-48984819D02*
X53077762Y-49984819D01*
D10*
X69204039Y-53339296D02*
X64770000Y-49530000D01*
X69204039Y-53339296D02*
X67967422Y-53050025D01*
X69204039Y-53339296D02*
X68731702Y-52160399D01*
X64770000Y-49530000D02*
X53798001Y-49530000D01*
X69204039Y-53339296D02*
X64770000Y-49530000D01*
X69204039Y-53339296D02*
X67967422Y-53050025D01*
X69204039Y-53339296D02*
X68731702Y-52160399D01*
X64770000Y-49530000D02*
X53798001Y-49530000D01*
D11*
X142018019Y-75544013D02*
X142018019Y-75448775D01*
X142018019Y-75448775D02*
X142065638Y-75353537D01*
X142065638Y-75353537D02*
X142113257Y-75305918D01*
X142113257Y-75305918D02*
X142208495Y-75258299D01*
X142208495Y-75258299D02*
X142398971Y-75210680D01*
X142398971Y-75210680D02*
X142637066Y-75210680D01*
X142637066Y-75210680D02*
X142827542Y-75258299D01*
X142827542Y-75258299D02*
X142922780Y-75305918D01*
X142922780Y-75305918D02*
X142970400Y-75353537D01*
X142970400Y-75353537D02*
X143018019Y-75448775D01*
X143018019Y-75448775D02*
X143018019Y-75544013D01*
X143018019Y-75544013D02*
X142970400Y-75639251D01*
X142970400Y-75639251D02*
X142922780Y-75686870D01*
X142922780Y-75686870D02*
X142827542Y-75734489D01*
X142827542Y-75734489D02*
X142637066Y-75782108D01*
X142637066Y-75782108D02*
X142398971Y-75782108D01*
X142398971Y-75782108D02*
X142208495Y-75734489D01*
X142208495Y-75734489D02*
X142113257Y-75686870D01*
X142113257Y-75686870D02*
X142065638Y-75639251D01*
X142065638Y-75639251D02*
X142018019Y-75544013D01*
X142922780Y-74782108D02*
X142970400Y-74734489D01*
X142970400Y-74734489D02*
X143018019Y-74782108D01*
X143018019Y-74782108D02*
X142970400Y-74829727D01*
X142970400Y-74829727D02*
X142922780Y-74782108D01*
X142922780Y-74782108D02*
X143018019Y-74782108D01*
X142018019Y-74115442D02*
X142018019Y-74020204D01*
X142018019Y-74020204D02*
X142065638Y-73924966D01*
X142065638Y-73924966D02*
X142113257Y-73877347D01*
X142113257Y-73877347D02*
X142208495Y-73829728D01*
X142208495Y-73829728D02*
X142398971Y-73782109D01*
X142398971Y-73782109D02*
X142637066Y-73782109D01*
X142637066Y-73782109D02*
X142827542Y-73829728D01*
X142827542Y-73829728D02*
X142922780Y-73877347D01*
X142922780Y-73877347D02*
X142970400Y-73924966D01*
X142970400Y-73924966D02*
X143018019Y-74020204D01*
X143018019Y-74020204D02*
X143018019Y-74115442D01*
X143018019Y-74115442D02*
X142970400Y-74210680D01*
X142970400Y-74210680D02*
X142922780Y-74258299D01*
X142922780Y-74258299D02*
X142827542Y-74305918D01*
X142827542Y-74305918D02*
X142637066Y-74353537D01*
X142637066Y-74353537D02*
X142398971Y-74353537D01*
X142398971Y-74353537D02*
X142208495Y-74305918D01*
X142208495Y-74305918D02*
X142113257Y-74258299D01*
X142113257Y-74258299D02*
X142065638Y-74210680D01*
X142065638Y-74210680D02*
X142018019Y-74115442D01*
X142018019Y-72924966D02*
X142018019Y-73115442D01*
X142018019Y-73115442D02*
X142065638Y-73210680D01*
X142065638Y-73210680D02*
X142113257Y-73258299D01*
X142113257Y-73258299D02*
X142256114Y-73353537D01*
X142256114Y-73353537D02*
X142446590Y-73401156D01*
X142446590Y-73401156D02*
X142827542Y-73401156D01*
X142827542Y-73401156D02*
X142922780Y-73353537D01*
X142922780Y-73353537D02*
X142970400Y-73305918D01*
X142970400Y-73305918D02*
X143018019Y-73210680D01*
X143018019Y-73210680D02*
X143018019Y-73020204D01*
X143018019Y-73020204D02*
X142970400Y-72924966D01*
X142970400Y-72924966D02*
X142922780Y-72877347D01*
X142922780Y-72877347D02*
X142827542Y-72829728D01*
X142827542Y-72829728D02*
X142589447Y-72829728D01*
X142589447Y-72829728D02*
X142494209Y-72877347D01*
X142494209Y-72877347D02*
X142446590Y-72924966D01*
X142446590Y-72924966D02*
X142398971Y-73020204D01*
X142398971Y-73020204D02*
X142398971Y-73210680D01*
X142398971Y-73210680D02*
X142446590Y-73305918D01*
X142446590Y-73305918D02*
X142494209Y-73353537D01*
X142494209Y-73353537D02*
X142589447Y-73401156D01*
X142018019Y-71924966D02*
X142018019Y-72401156D01*
X142018019Y-72401156D02*
X142494209Y-72448775D01*
X142494209Y-72448775D02*
X142446590Y-72401156D01*
X142446590Y-72401156D02*
X142398971Y-72305918D01*
X142398971Y-72305918D02*
X142398971Y-72067823D01*
X142398971Y-72067823D02*
X142446590Y-71972585D01*
X142446590Y-71972585D02*
X142494209Y-71924966D01*
X142494209Y-71924966D02*
X142589447Y-71877347D01*
X142589447Y-71877347D02*
X142827542Y-71877347D01*
X142827542Y-71877347D02*
X142922780Y-71924966D01*
X142922780Y-71924966D02*
X142970400Y-71972585D01*
X142970400Y-71972585D02*
X143018019Y-72067823D01*
X143018019Y-72067823D02*
X143018019Y-72305918D01*
X143018019Y-72305918D02*
X142970400Y-72401156D01*
X142970400Y-72401156D02*
X142922780Y-72448775D01*
X143018019Y-70686870D02*
X142351352Y-70686870D01*
X142018019Y-70686870D02*
X142065638Y-70734489D01*
X142065638Y-70734489D02*
X142113257Y-70686870D01*
X142113257Y-70686870D02*
X142065638Y-70639251D01*
X142065638Y-70639251D02*
X142018019Y-70686870D01*
X142018019Y-70686870D02*
X142113257Y-70686870D01*
X142351352Y-70210680D02*
X143018019Y-70210680D01*
X142446590Y-70210680D02*
X142398971Y-70163061D01*
X142398971Y-70163061D02*
X142351352Y-70067823D01*
X142351352Y-70067823D02*
X142351352Y-69924966D01*
X142351352Y-69924966D02*
X142398971Y-69829728D01*
X142398971Y-69829728D02*
X142494209Y-69782109D01*
X142494209Y-69782109D02*
X143018019Y-69782109D01*
D10*
X148305900Y-69316600D02*
X143126780Y-69316600D01*
X143126780Y-76200000D02*
X148305900Y-76200000D01*
X143713200Y-69316600D02*
X143713200Y-76200000D01*
X143713200Y-69316600D02*
X143713200Y-76200000D01*
X143713200Y-69316600D02*
X144299621Y-70443104D01*
X143713200Y-69316600D02*
X143126779Y-70443104D01*
X143713200Y-76200000D02*
X143126779Y-75073496D01*
X143713200Y-76200000D02*
X144299621Y-75073496D01*
D11*
X172378019Y-75442413D02*
X172378019Y-75347175D01*
X172378019Y-75347175D02*
X172425638Y-75251937D01*
X172425638Y-75251937D02*
X172473257Y-75204318D01*
X172473257Y-75204318D02*
X172568495Y-75156699D01*
X172568495Y-75156699D02*
X172758971Y-75109080D01*
X172758971Y-75109080D02*
X172997066Y-75109080D01*
X172997066Y-75109080D02*
X173187542Y-75156699D01*
X173187542Y-75156699D02*
X173282780Y-75204318D01*
X173282780Y-75204318D02*
X173330400Y-75251937D01*
X173330400Y-75251937D02*
X173378019Y-75347175D01*
X173378019Y-75347175D02*
X173378019Y-75442413D01*
X173378019Y-75442413D02*
X173330400Y-75537651D01*
X173330400Y-75537651D02*
X173282780Y-75585270D01*
X173282780Y-75585270D02*
X173187542Y-75632889D01*
X173187542Y-75632889D02*
X172997066Y-75680508D01*
X172997066Y-75680508D02*
X172758971Y-75680508D01*
X172758971Y-75680508D02*
X172568495Y-75632889D01*
X172568495Y-75632889D02*
X172473257Y-75585270D01*
X172473257Y-75585270D02*
X172425638Y-75537651D01*
X172425638Y-75537651D02*
X172378019Y-75442413D01*
X173282780Y-74680508D02*
X173330400Y-74632889D01*
X173330400Y-74632889D02*
X173378019Y-74680508D01*
X173378019Y-74680508D02*
X173330400Y-74728127D01*
X173330400Y-74728127D02*
X173282780Y-74680508D01*
X173282780Y-74680508D02*
X173378019Y-74680508D01*
X172378019Y-74013842D02*
X172378019Y-73918604D01*
X172378019Y-73918604D02*
X172425638Y-73823366D01*
X172425638Y-73823366D02*
X172473257Y-73775747D01*
X172473257Y-73775747D02*
X172568495Y-73728128D01*
X172568495Y-73728128D02*
X172758971Y-73680509D01*
X172758971Y-73680509D02*
X172997066Y-73680509D01*
X172997066Y-73680509D02*
X173187542Y-73728128D01*
X173187542Y-73728128D02*
X173282780Y-73775747D01*
X173282780Y-73775747D02*
X173330400Y-73823366D01*
X173330400Y-73823366D02*
X173378019Y-73918604D01*
X173378019Y-73918604D02*
X173378019Y-74013842D01*
X173378019Y-74013842D02*
X173330400Y-74109080D01*
X173330400Y-74109080D02*
X173282780Y-74156699D01*
X173282780Y-74156699D02*
X173187542Y-74204318D01*
X173187542Y-74204318D02*
X172997066Y-74251937D01*
X172997066Y-74251937D02*
X172758971Y-74251937D01*
X172758971Y-74251937D02*
X172568495Y-74204318D01*
X172568495Y-74204318D02*
X172473257Y-74156699D01*
X172473257Y-74156699D02*
X172425638Y-74109080D01*
X172425638Y-74109080D02*
X172378019Y-74013842D01*
X172378019Y-73347175D02*
X172378019Y-72728128D01*
X172378019Y-72728128D02*
X172758971Y-73061461D01*
X172758971Y-73061461D02*
X172758971Y-72918604D01*
X172758971Y-72918604D02*
X172806590Y-72823366D01*
X172806590Y-72823366D02*
X172854209Y-72775747D01*
X172854209Y-72775747D02*
X172949447Y-72728128D01*
X172949447Y-72728128D02*
X173187542Y-72728128D01*
X173187542Y-72728128D02*
X173282780Y-72775747D01*
X173282780Y-72775747D02*
X173330400Y-72823366D01*
X173330400Y-72823366D02*
X173378019Y-72918604D01*
X173378019Y-72918604D02*
X173378019Y-73204318D01*
X173378019Y-73204318D02*
X173330400Y-73299556D01*
X173330400Y-73299556D02*
X173282780Y-73347175D01*
X172378019Y-71823366D02*
X172378019Y-72299556D01*
X172378019Y-72299556D02*
X172854209Y-72347175D01*
X172854209Y-72347175D02*
X172806590Y-72299556D01*
X172806590Y-72299556D02*
X172758971Y-72204318D01*
X172758971Y-72204318D02*
X172758971Y-71966223D01*
X172758971Y-71966223D02*
X172806590Y-71870985D01*
X172806590Y-71870985D02*
X172854209Y-71823366D01*
X172854209Y-71823366D02*
X172949447Y-71775747D01*
X172949447Y-71775747D02*
X173187542Y-71775747D01*
X173187542Y-71775747D02*
X173282780Y-71823366D01*
X173282780Y-71823366D02*
X173330400Y-71870985D01*
X173330400Y-71870985D02*
X173378019Y-71966223D01*
X173378019Y-71966223D02*
X173378019Y-72204318D01*
X173378019Y-72204318D02*
X173330400Y-72299556D01*
X173330400Y-72299556D02*
X173282780Y-72347175D01*
X173378019Y-70585270D02*
X172711352Y-70585270D01*
X172378019Y-70585270D02*
X172425638Y-70632889D01*
X172425638Y-70632889D02*
X172473257Y-70585270D01*
X172473257Y-70585270D02*
X172425638Y-70537651D01*
X172425638Y-70537651D02*
X172378019Y-70585270D01*
X172378019Y-70585270D02*
X172473257Y-70585270D01*
X172711352Y-70109080D02*
X173378019Y-70109080D01*
X172806590Y-70109080D02*
X172758971Y-70061461D01*
X172758971Y-70061461D02*
X172711352Y-69966223D01*
X172711352Y-69966223D02*
X172711352Y-69823366D01*
X172711352Y-69823366D02*
X172758971Y-69728128D01*
X172758971Y-69728128D02*
X172854209Y-69680509D01*
X172854209Y-69680509D02*
X173378019Y-69680509D01*
D10*
X164533200Y-71120000D02*
X170969620Y-71120000D01*
X170969620Y-74193400D02*
X164533200Y-74193400D01*
X170383200Y-71120000D02*
X170383200Y-74193400D01*
X170383200Y-71120000D02*
X170383200Y-74193400D01*
X170383200Y-71120000D02*
X170969621Y-72246504D01*
X170383200Y-71120000D02*
X169796779Y-72246504D01*
X170383200Y-74193400D02*
X169796779Y-73066896D01*
X170383200Y-74193400D02*
X170969621Y-73066896D01*
D11*
X151087486Y-59264819D02*
X151182724Y-59264819D01*
X151182724Y-59264819D02*
X151277962Y-59312438D01*
X151277962Y-59312438D02*
X151325581Y-59360057D01*
X151325581Y-59360057D02*
X151373200Y-59455295D01*
X151373200Y-59455295D02*
X151420819Y-59645771D01*
X151420819Y-59645771D02*
X151420819Y-59883866D01*
X151420819Y-59883866D02*
X151373200Y-60074342D01*
X151373200Y-60074342D02*
X151325581Y-60169580D01*
X151325581Y-60169580D02*
X151277962Y-60217200D01*
X151277962Y-60217200D02*
X151182724Y-60264819D01*
X151182724Y-60264819D02*
X151087486Y-60264819D01*
X151087486Y-60264819D02*
X150992248Y-60217200D01*
X150992248Y-60217200D02*
X150944629Y-60169580D01*
X150944629Y-60169580D02*
X150897010Y-60074342D01*
X150897010Y-60074342D02*
X150849391Y-59883866D01*
X150849391Y-59883866D02*
X150849391Y-59645771D01*
X150849391Y-59645771D02*
X150897010Y-59455295D01*
X150897010Y-59455295D02*
X150944629Y-59360057D01*
X150944629Y-59360057D02*
X150992248Y-59312438D01*
X150992248Y-59312438D02*
X151087486Y-59264819D01*
X151849391Y-60169580D02*
X151897010Y-60217200D01*
X151897010Y-60217200D02*
X151849391Y-60264819D01*
X151849391Y-60264819D02*
X151801772Y-60217200D01*
X151801772Y-60217200D02*
X151849391Y-60169580D01*
X151849391Y-60169580D02*
X151849391Y-60264819D01*
X152516057Y-59264819D02*
X152611295Y-59264819D01*
X152611295Y-59264819D02*
X152706533Y-59312438D01*
X152706533Y-59312438D02*
X152754152Y-59360057D01*
X152754152Y-59360057D02*
X152801771Y-59455295D01*
X152801771Y-59455295D02*
X152849390Y-59645771D01*
X152849390Y-59645771D02*
X152849390Y-59883866D01*
X152849390Y-59883866D02*
X152801771Y-60074342D01*
X152801771Y-60074342D02*
X152754152Y-60169580D01*
X152754152Y-60169580D02*
X152706533Y-60217200D01*
X152706533Y-60217200D02*
X152611295Y-60264819D01*
X152611295Y-60264819D02*
X152516057Y-60264819D01*
X152516057Y-60264819D02*
X152420819Y-60217200D01*
X152420819Y-60217200D02*
X152373200Y-60169580D01*
X152373200Y-60169580D02*
X152325581Y-60074342D01*
X152325581Y-60074342D02*
X152277962Y-59883866D01*
X152277962Y-59883866D02*
X152277962Y-59645771D01*
X152277962Y-59645771D02*
X152325581Y-59455295D01*
X152325581Y-59455295D02*
X152373200Y-59360057D01*
X152373200Y-59360057D02*
X152420819Y-59312438D01*
X152420819Y-59312438D02*
X152516057Y-59264819D01*
X153230343Y-59360057D02*
X153277962Y-59312438D01*
X153277962Y-59312438D02*
X153373200Y-59264819D01*
X153373200Y-59264819D02*
X153611295Y-59264819D01*
X153611295Y-59264819D02*
X153706533Y-59312438D01*
X153706533Y-59312438D02*
X153754152Y-59360057D01*
X153754152Y-59360057D02*
X153801771Y-59455295D01*
X153801771Y-59455295D02*
X153801771Y-59550533D01*
X153801771Y-59550533D02*
X153754152Y-59693390D01*
X153754152Y-59693390D02*
X153182724Y-60264819D01*
X153182724Y-60264819D02*
X153801771Y-60264819D01*
X154182724Y-59360057D02*
X154230343Y-59312438D01*
X154230343Y-59312438D02*
X154325581Y-59264819D01*
X154325581Y-59264819D02*
X154563676Y-59264819D01*
X154563676Y-59264819D02*
X154658914Y-59312438D01*
X154658914Y-59312438D02*
X154706533Y-59360057D01*
X154706533Y-59360057D02*
X154754152Y-59455295D01*
X154754152Y-59455295D02*
X154754152Y-59550533D01*
X154754152Y-59550533D02*
X154706533Y-59693390D01*
X154706533Y-59693390D02*
X154135105Y-60264819D01*
X154135105Y-60264819D02*
X154754152Y-60264819D01*
X155944629Y-60264819D02*
X155944629Y-59598152D01*
X155944629Y-59264819D02*
X155897010Y-59312438D01*
X155897010Y-59312438D02*
X155944629Y-59360057D01*
X155944629Y-59360057D02*
X155992248Y-59312438D01*
X155992248Y-59312438D02*
X155944629Y-59264819D01*
X155944629Y-59264819D02*
X155944629Y-59360057D01*
X156420819Y-59598152D02*
X156420819Y-60264819D01*
X156420819Y-59693390D02*
X156468438Y-59645771D01*
X156468438Y-59645771D02*
X156563676Y-59598152D01*
X156563676Y-59598152D02*
X156706533Y-59598152D01*
X156706533Y-59598152D02*
X156801771Y-59645771D01*
X156801771Y-59645771D02*
X156849390Y-59741009D01*
X156849390Y-59741009D02*
X156849390Y-60264819D01*
D10*
X148805900Y-68816600D02*
X148805900Y-60373580D01*
X158940500Y-60373580D02*
X158940500Y-68816600D01*
X148805900Y-60960000D02*
X158940500Y-60960000D01*
X148805900Y-60960000D02*
X158940500Y-60960000D01*
X148805900Y-60960000D02*
X149932404Y-60373579D01*
X148805900Y-60960000D02*
X149932404Y-61546421D01*
X158940500Y-60960000D02*
X157813996Y-61546421D01*
X158940500Y-60960000D02*
X157813996Y-60373579D01*
%TO.C,J2*%
X70651850Y-97028200D02*
X76251850Y-97028200D01*
X70651850Y-135028200D02*
X70651850Y-97028200D01*
X74651850Y-135028200D02*
X70651850Y-135028200D01*
X74651850Y-135028200D02*
X76251850Y-133428200D01*
X76251850Y-97028200D02*
X76251850Y-133428200D01*
D12*
X77111850Y-131628200D02*
G75*
G02*
X76911850Y-131628200I-100000J0D01*
G01*
X76911850Y-131628200D02*
G75*
G02*
X77111850Y-131628200I100000J0D01*
G01*
D10*
%TO.C,J1*%
X70648350Y-47083000D02*
X76248350Y-47083000D01*
X70648350Y-85083000D02*
X70648350Y-47083000D01*
X74648350Y-85083000D02*
X70648350Y-85083000D01*
X74648350Y-85083000D02*
X76248350Y-83483000D01*
X76248350Y-47083000D02*
X76248350Y-83483000D01*
D12*
X77108350Y-81683000D02*
G75*
G02*
X76908350Y-81683000I-100000J0D01*
G01*
X76908350Y-81683000D02*
G75*
G02*
X77108350Y-81683000I100000J0D01*
G01*
%TD*%
M02*
