%TF.GenerationSoftware,KiCad,Pcbnew,8.0.0*%
%TF.CreationDate,2024-07-09T15:43:22-07:00*%
%TF.ProjectId,samtec-ptl-dib-mockup-1,73616d74-6563-42d7-9074-6c2d6469622d,rev?*%
%TF.SameCoordinates,Original*%
%TF.FileFunction,Profile,NP*%
%FSLAX46Y46*%
G04 Gerber Fmt 4.6, Leading zero omitted, Abs format (unit mm)*
G04 Created by KiCad (PCBNEW 8.0.0) date 2024-07-09 15:43:22*
%MOMM*%
%LPD*%
G01*
G04 APERTURE LIST*
%TA.AperFunction,Profile*%
%ADD10C,0.050000*%
%TD*%
%TA.AperFunction,Profile*%
%ADD11C,0.250000*%
%TD*%
G04 APERTURE END LIST*
D10*
X70275450Y-53652420D02*
G75*
G02*
X69399150Y-53652420I-438150J0D01*
G01*
X69399150Y-53652420D02*
G75*
G02*
X70275450Y-53652420I438150J0D01*
G01*
X70275450Y-128465580D02*
G75*
G02*
X69399150Y-128465580I-438150J0D01*
G01*
X69399150Y-128465580D02*
G75*
G02*
X70275450Y-128465580I438150J0D01*
G01*
X78022450Y-78206600D02*
G75*
G02*
X77146150Y-78206600I-438150J0D01*
G01*
X77146150Y-78206600D02*
G75*
G02*
X78022450Y-78206600I438150J0D01*
G01*
X72712580Y-98633280D02*
G75*
G02*
X71188580Y-98633280I-762000J0D01*
G01*
X71188580Y-98633280D02*
G75*
G02*
X72712580Y-98633280I762000J0D01*
G01*
X72712580Y-133433820D02*
G75*
G02*
X71188580Y-133433820I-762000J0D01*
G01*
X71188580Y-133433820D02*
G75*
G02*
X72712580Y-133433820I762000J0D01*
G01*
X70275450Y-53652420D02*
G75*
G02*
X69399150Y-53652420I-438150J0D01*
G01*
X69399150Y-53652420D02*
G75*
G02*
X70275450Y-53652420I438150J0D01*
G01*
X78206600Y-139700000D02*
X68707000Y-139700000D01*
X70275450Y-78206600D02*
G75*
G02*
X69399150Y-78206600I-438150J0D01*
G01*
X69399150Y-78206600D02*
G75*
G02*
X70275450Y-78206600I438150J0D01*
G01*
X78022450Y-116212620D02*
G75*
G02*
X77146150Y-116212620I-438150J0D01*
G01*
X77146150Y-116212620D02*
G75*
G02*
X78022450Y-116212620I438150J0D01*
G01*
X70275450Y-103911400D02*
G75*
G02*
X69399150Y-103911400I-438150J0D01*
G01*
X69399150Y-103911400D02*
G75*
G02*
X70275450Y-103911400I438150J0D01*
G01*
X78022450Y-103911400D02*
G75*
G02*
X77146150Y-103911400I-438150J0D01*
G01*
X77146150Y-103911400D02*
G75*
G02*
X78022450Y-103911400I438150J0D01*
G01*
X78022450Y-53652420D02*
G75*
G02*
X77146150Y-53652420I-438150J0D01*
G01*
X77146150Y-53652420D02*
G75*
G02*
X78022450Y-53652420I438150J0D01*
G01*
X70275450Y-116212620D02*
G75*
G02*
X69399150Y-116212620I-438150J0D01*
G01*
X69399150Y-116212620D02*
G75*
G02*
X70275450Y-116212620I438150J0D01*
G01*
X78022450Y-65905380D02*
G75*
G02*
X77146150Y-65905380I-438150J0D01*
G01*
X77146150Y-65905380D02*
G75*
G02*
X78022450Y-65905380I438150J0D01*
G01*
X78206600Y-42418000D02*
X78206600Y-139700000D01*
X74269600Y-91059000D02*
G75*
G02*
X72644000Y-91059000I-812800J0D01*
G01*
X72644000Y-91059000D02*
G75*
G02*
X74269600Y-91059000I812800J0D01*
G01*
X68707000Y-139700000D02*
X68707000Y-42418000D01*
X72712580Y-83484720D02*
G75*
G02*
X71188580Y-83484720I-762000J0D01*
G01*
X71188580Y-83484720D02*
G75*
G02*
X72712580Y-83484720I762000J0D01*
G01*
X78022450Y-128465580D02*
G75*
G02*
X77146150Y-128465580I-438150J0D01*
G01*
X77146150Y-128465580D02*
G75*
G02*
X78022450Y-128465580I438150J0D01*
G01*
X68707000Y-42418000D02*
X78206600Y-42418000D01*
D11*
X72712580Y-48684180D02*
G75*
G02*
X71188580Y-48684180I-762000J0D01*
G01*
X71188580Y-48684180D02*
G75*
G02*
X72712580Y-48684180I762000J0D01*
G01*
D10*
X70275450Y-65905380D02*
G75*
G02*
X69399150Y-65905380I-438150J0D01*
G01*
X69399150Y-65905380D02*
G75*
G02*
X70275450Y-65905380I438150J0D01*
G01*
M02*
