%TF.GenerationSoftware,KiCad,Pcbnew,8.0.0*%
%TF.CreationDate,2024-07-09T15:43:22-07:00*%
%TF.ProjectId,samtec-ptl-dib-mockup-1,73616d74-6563-42d7-9074-6c2d6469622d,rev?*%
%TF.SameCoordinates,Original*%
%TF.FileFunction,Legend,Top*%
%TF.FilePolarity,Positive*%
%FSLAX46Y46*%
G04 Gerber Fmt 4.6, Leading zero omitted, Abs format (unit mm)*
G04 Created by KiCad (PCBNEW 8.0.0) date 2024-07-09 15:43:22*
%MOMM*%
%LPD*%
G01*
G04 APERTURE LIST*
%ADD10C,0.150000*%
%ADD11C,0.158750*%
%ADD12C,0.200000*%
G04 APERTURE END LIST*
D10*
X76941669Y-101536533D02*
X77655954Y-101536533D01*
X77655954Y-101536533D02*
X77798811Y-101584152D01*
X77798811Y-101584152D02*
X77894050Y-101679390D01*
X77894050Y-101679390D02*
X77941669Y-101822247D01*
X77941669Y-101822247D02*
X77941669Y-101917485D01*
X77036907Y-101107961D02*
X76989288Y-101060342D01*
X76989288Y-101060342D02*
X76941669Y-100965104D01*
X76941669Y-100965104D02*
X76941669Y-100727009D01*
X76941669Y-100727009D02*
X76989288Y-100631771D01*
X76989288Y-100631771D02*
X77036907Y-100584152D01*
X77036907Y-100584152D02*
X77132145Y-100536533D01*
X77132145Y-100536533D02*
X77227383Y-100536533D01*
X77227383Y-100536533D02*
X77370240Y-100584152D01*
X77370240Y-100584152D02*
X77941669Y-101155580D01*
X77941669Y-101155580D02*
X77941669Y-100536533D01*
D11*
X77886680Y-77514601D02*
X77281918Y-77514601D01*
X77281918Y-77514601D02*
X77221442Y-78119363D01*
X77221442Y-78119363D02*
X77281918Y-78058886D01*
X77281918Y-78058886D02*
X77402871Y-77998410D01*
X77402871Y-77998410D02*
X77705252Y-77998410D01*
X77705252Y-77998410D02*
X77826204Y-78058886D01*
X77826204Y-78058886D02*
X77886680Y-78119363D01*
X77886680Y-78119363D02*
X77947157Y-78240315D01*
X77947157Y-78240315D02*
X77947157Y-78542696D01*
X77947157Y-78542696D02*
X77886680Y-78663648D01*
X77886680Y-78663648D02*
X77826204Y-78724125D01*
X77826204Y-78724125D02*
X77705252Y-78784601D01*
X77705252Y-78784601D02*
X77402871Y-78784601D01*
X77402871Y-78784601D02*
X77281918Y-78724125D01*
X77281918Y-78724125D02*
X77221442Y-78663648D01*
D10*
X76703169Y-54266333D02*
X77417454Y-54266333D01*
X77417454Y-54266333D02*
X77560311Y-54313952D01*
X77560311Y-54313952D02*
X77655550Y-54409190D01*
X77655550Y-54409190D02*
X77703169Y-54552047D01*
X77703169Y-54552047D02*
X77703169Y-54647285D01*
X77703169Y-53266333D02*
X77703169Y-53837761D01*
X77703169Y-53552047D02*
X76703169Y-53552047D01*
X76703169Y-53552047D02*
X76846026Y-53647285D01*
X76846026Y-53647285D02*
X76941264Y-53742523D01*
X76941264Y-53742523D02*
X76988883Y-53837761D01*
D11*
X77342395Y-129046121D02*
X76616680Y-129046121D01*
X76979537Y-129046121D02*
X76979537Y-127776121D01*
X76979537Y-127776121D02*
X76858585Y-127957549D01*
X76858585Y-127957549D02*
X76737633Y-128078502D01*
X76737633Y-128078502D02*
X76616680Y-128138978D01*
X78128585Y-127776121D02*
X78249538Y-127776121D01*
X78249538Y-127776121D02*
X78370490Y-127836597D01*
X78370490Y-127836597D02*
X78430966Y-127897073D01*
X78430966Y-127897073D02*
X78491442Y-128018025D01*
X78491442Y-128018025D02*
X78551919Y-128259930D01*
X78551919Y-128259930D02*
X78551919Y-128562311D01*
X78551919Y-128562311D02*
X78491442Y-128804216D01*
X78491442Y-128804216D02*
X78430966Y-128925168D01*
X78430966Y-128925168D02*
X78370490Y-128985645D01*
X78370490Y-128985645D02*
X78249538Y-129046121D01*
X78249538Y-129046121D02*
X78128585Y-129046121D01*
X78128585Y-129046121D02*
X78007633Y-128985645D01*
X78007633Y-128985645D02*
X77947157Y-128925168D01*
X77947157Y-128925168D02*
X77886680Y-128804216D01*
X77886680Y-128804216D02*
X77826204Y-128562311D01*
X77826204Y-128562311D02*
X77826204Y-128259930D01*
X77826204Y-128259930D02*
X77886680Y-128018025D01*
X77886680Y-128018025D02*
X77947157Y-127897073D01*
X77947157Y-127897073D02*
X78007633Y-127836597D01*
X78007633Y-127836597D02*
X78128585Y-127776121D01*
X69595395Y-129046121D02*
X68869680Y-129046121D01*
X69232537Y-129046121D02*
X69232537Y-127776121D01*
X69232537Y-127776121D02*
X69111585Y-127957549D01*
X69111585Y-127957549D02*
X68990633Y-128078502D01*
X68990633Y-128078502D02*
X68869680Y-128138978D01*
X70804919Y-129046121D02*
X70079204Y-129046121D01*
X70442061Y-129046121D02*
X70442061Y-127776121D01*
X70442061Y-127776121D02*
X70321109Y-127957549D01*
X70321109Y-127957549D02*
X70200157Y-128078502D01*
X70200157Y-128078502D02*
X70079204Y-128138978D01*
X70079204Y-77514601D02*
X69837299Y-77514601D01*
X69837299Y-77514601D02*
X69716347Y-77575077D01*
X69716347Y-77575077D02*
X69655871Y-77635553D01*
X69655871Y-77635553D02*
X69534918Y-77816982D01*
X69534918Y-77816982D02*
X69474442Y-78058886D01*
X69474442Y-78058886D02*
X69474442Y-78542696D01*
X69474442Y-78542696D02*
X69534918Y-78663648D01*
X69534918Y-78663648D02*
X69595395Y-78724125D01*
X69595395Y-78724125D02*
X69716347Y-78784601D01*
X69716347Y-78784601D02*
X69958252Y-78784601D01*
X69958252Y-78784601D02*
X70079204Y-78724125D01*
X70079204Y-78724125D02*
X70139680Y-78663648D01*
X70139680Y-78663648D02*
X70200157Y-78542696D01*
X70200157Y-78542696D02*
X70200157Y-78240315D01*
X70200157Y-78240315D02*
X70139680Y-78119363D01*
X70139680Y-78119363D02*
X70079204Y-78058886D01*
X70079204Y-78058886D02*
X69958252Y-77998410D01*
X69958252Y-77998410D02*
X69716347Y-77998410D01*
X69716347Y-77998410D02*
X69595395Y-78058886D01*
X69595395Y-78058886D02*
X69534918Y-78119363D01*
X69534918Y-78119363D02*
X69474442Y-78240315D01*
X77221442Y-65334333D02*
X77281918Y-65273857D01*
X77281918Y-65273857D02*
X77402871Y-65213381D01*
X77402871Y-65213381D02*
X77705252Y-65213381D01*
X77705252Y-65213381D02*
X77826204Y-65273857D01*
X77826204Y-65273857D02*
X77886680Y-65334333D01*
X77886680Y-65334333D02*
X77947157Y-65455285D01*
X77947157Y-65455285D02*
X77947157Y-65576238D01*
X77947157Y-65576238D02*
X77886680Y-65757666D01*
X77886680Y-65757666D02*
X77160966Y-66483381D01*
X77160966Y-66483381D02*
X77947157Y-66483381D01*
X69595395Y-116744901D02*
X69837299Y-116744901D01*
X69837299Y-116744901D02*
X69958252Y-116684425D01*
X69958252Y-116684425D02*
X70018728Y-116623948D01*
X70018728Y-116623948D02*
X70139680Y-116442520D01*
X70139680Y-116442520D02*
X70200157Y-116200615D01*
X70200157Y-116200615D02*
X70200157Y-115716805D01*
X70200157Y-115716805D02*
X70139680Y-115595853D01*
X70139680Y-115595853D02*
X70079204Y-115535377D01*
X70079204Y-115535377D02*
X69958252Y-115474901D01*
X69958252Y-115474901D02*
X69716347Y-115474901D01*
X69716347Y-115474901D02*
X69595395Y-115535377D01*
X69595395Y-115535377D02*
X69534918Y-115595853D01*
X69534918Y-115595853D02*
X69474442Y-115716805D01*
X69474442Y-115716805D02*
X69474442Y-116019186D01*
X69474442Y-116019186D02*
X69534918Y-116140139D01*
X69534918Y-116140139D02*
X69595395Y-116200615D01*
X69595395Y-116200615D02*
X69716347Y-116261091D01*
X69716347Y-116261091D02*
X69958252Y-116261091D01*
X69958252Y-116261091D02*
X70079204Y-116200615D01*
X70079204Y-116200615D02*
X70139680Y-116140139D01*
X70139680Y-116140139D02*
X70200157Y-116019186D01*
X77463347Y-116019186D02*
X77342395Y-115958710D01*
X77342395Y-115958710D02*
X77281918Y-115898234D01*
X77281918Y-115898234D02*
X77221442Y-115777282D01*
X77221442Y-115777282D02*
X77221442Y-115716805D01*
X77221442Y-115716805D02*
X77281918Y-115595853D01*
X77281918Y-115595853D02*
X77342395Y-115535377D01*
X77342395Y-115535377D02*
X77463347Y-115474901D01*
X77463347Y-115474901D02*
X77705252Y-115474901D01*
X77705252Y-115474901D02*
X77826204Y-115535377D01*
X77826204Y-115535377D02*
X77886680Y-115595853D01*
X77886680Y-115595853D02*
X77947157Y-115716805D01*
X77947157Y-115716805D02*
X77947157Y-115777282D01*
X77947157Y-115777282D02*
X77886680Y-115898234D01*
X77886680Y-115898234D02*
X77826204Y-115958710D01*
X77826204Y-115958710D02*
X77705252Y-116019186D01*
X77705252Y-116019186D02*
X77463347Y-116019186D01*
X77463347Y-116019186D02*
X77342395Y-116079663D01*
X77342395Y-116079663D02*
X77281918Y-116140139D01*
X77281918Y-116140139D02*
X77221442Y-116261091D01*
X77221442Y-116261091D02*
X77221442Y-116502996D01*
X77221442Y-116502996D02*
X77281918Y-116623948D01*
X77281918Y-116623948D02*
X77342395Y-116684425D01*
X77342395Y-116684425D02*
X77463347Y-116744901D01*
X77463347Y-116744901D02*
X77705252Y-116744901D01*
X77705252Y-116744901D02*
X77826204Y-116684425D01*
X77826204Y-116684425D02*
X77886680Y-116623948D01*
X77886680Y-116623948D02*
X77947157Y-116502996D01*
X77947157Y-116502996D02*
X77947157Y-116261091D01*
X77947157Y-116261091D02*
X77886680Y-116140139D01*
X77886680Y-116140139D02*
X77826204Y-116079663D01*
X77826204Y-116079663D02*
X77705252Y-116019186D01*
X77826204Y-103645274D02*
X77826204Y-104491941D01*
X77523823Y-103161465D02*
X77221442Y-104068607D01*
X77221442Y-104068607D02*
X78007633Y-104068607D01*
X70200157Y-54230421D02*
X69474442Y-54230421D01*
X69837299Y-54230421D02*
X69837299Y-52960421D01*
X69837299Y-52960421D02*
X69716347Y-53141849D01*
X69716347Y-53141849D02*
X69595395Y-53262802D01*
X69595395Y-53262802D02*
X69474442Y-53323278D01*
X69413966Y-103221941D02*
X70260633Y-103221941D01*
X70260633Y-103221941D02*
X69716347Y-104491941D01*
X69413966Y-65213381D02*
X70200157Y-65213381D01*
X70200157Y-65213381D02*
X69776823Y-65697190D01*
X69776823Y-65697190D02*
X69958252Y-65697190D01*
X69958252Y-65697190D02*
X70079204Y-65757666D01*
X70079204Y-65757666D02*
X70139680Y-65818143D01*
X70139680Y-65818143D02*
X70200157Y-65939095D01*
X70200157Y-65939095D02*
X70200157Y-66241476D01*
X70200157Y-66241476D02*
X70139680Y-66362428D01*
X70139680Y-66362428D02*
X70079204Y-66422905D01*
X70079204Y-66422905D02*
X69958252Y-66483381D01*
X69958252Y-66483381D02*
X69595395Y-66483381D01*
X69595395Y-66483381D02*
X69474442Y-66422905D01*
X69474442Y-66422905D02*
X69413966Y-66362428D01*
D12*
%TO.C,J2*%
X70651850Y-97028200D02*
X70651850Y-99528200D01*
X70651850Y-97028200D02*
X76251850Y-97028200D01*
X70651850Y-135028200D02*
X70651850Y-132528200D01*
X70651850Y-135028200D02*
X74651850Y-135028200D01*
X74651850Y-135028200D02*
X76251850Y-133428200D01*
X76251850Y-97028200D02*
X76251850Y-99528200D01*
X76251850Y-133428200D02*
X76251850Y-132528200D01*
X77111850Y-131628200D02*
G75*
G02*
X76911850Y-131628200I-100000J0D01*
G01*
X76911850Y-131628200D02*
G75*
G02*
X77111850Y-131628200I100000J0D01*
G01*
%TO.C,J1*%
X70648350Y-47083000D02*
X70648350Y-49583000D01*
X70648350Y-47083000D02*
X76248350Y-47083000D01*
X70648350Y-85083000D02*
X70648350Y-82583000D01*
X70648350Y-85083000D02*
X74648350Y-85083000D01*
X74648350Y-85083000D02*
X76248350Y-83483000D01*
X76248350Y-47083000D02*
X76248350Y-49583000D01*
X76248350Y-83483000D02*
X76248350Y-82583000D01*
X77108350Y-81683000D02*
G75*
G02*
X76908350Y-81683000I-100000J0D01*
G01*
X76908350Y-81683000D02*
G75*
G02*
X77108350Y-81683000I100000J0D01*
G01*
%TD*%
M02*
