%TF.GenerationSoftware,KiCad,Pcbnew,8.0.0*%
%TF.CreationDate,2024-07-09T15:43:22-07:00*%
%TF.ProjectId,samtec-ptl-dib-mockup-1,73616d74-6563-42d7-9074-6c2d6469622d,rev?*%
%TF.SameCoordinates,Original*%
%TF.FileFunction,Copper,L1,Top*%
%TF.FilePolarity,Positive*%
%FSLAX46Y46*%
G04 Gerber Fmt 4.6, Leading zero omitted, Abs format (unit mm)*
G04 Created by KiCad (PCBNEW 8.0.0) date 2024-07-09 15:43:22*
%MOMM*%
%LPD*%
G01*
G04 APERTURE LIST*
%TA.AperFunction,SMDPad,CuDef*%
%ADD10R,1.100000X0.500000*%
%TD*%
%TA.AperFunction,ViaPad*%
%ADD11C,0.600000*%
%TD*%
%TA.AperFunction,Conductor*%
%ADD12C,0.127000*%
%TD*%
G04 APERTURE END LIST*
D10*
%TO.P,J2,01,01*%
%TO.N,unconnected-(J2-Pad01)*%
X75701850Y-131628200D03*
%TO.P,J2,02,02*%
%TO.N,unconnected-(J2-Pad02)*%
X71201850Y-131628200D03*
%TO.P,J2,03,03*%
%TO.N,unconnected-(J2-Pad03)*%
X75701850Y-130828200D03*
%TO.P,J2,04,04*%
%TO.N,unconnected-(J2-Pad04)*%
X71201850Y-130828200D03*
%TO.P,J2,05,05*%
%TO.N,unconnected-(J2-Pad05)*%
X75701850Y-130028200D03*
%TO.P,J2,06,06*%
%TO.N,unconnected-(J2-Pad06)*%
X71201850Y-130028200D03*
%TO.P,J2,07,07*%
%TO.N,unconnected-(J2-Pad07)*%
X75701850Y-129228200D03*
%TO.P,J2,08,08*%
%TO.N,unconnected-(J2-Pad08)*%
X71201850Y-129228200D03*
%TO.P,J2,09,09*%
%TO.N,unconnected-(J2-Pad09)*%
X75701850Y-128428200D03*
%TO.P,J2,10,10*%
%TO.N,unconnected-(J2-Pad10)*%
X71201850Y-128428200D03*
%TO.P,J2,11,11*%
%TO.N,unconnected-(J2-Pad11)*%
X75701850Y-127628200D03*
%TO.P,J2,12,12*%
%TO.N,unconnected-(J2-Pad12)*%
X71201850Y-127628200D03*
%TO.P,J2,13,13*%
%TO.N,unconnected-(J2-Pad13)*%
X75701850Y-126828200D03*
%TO.P,J2,14,14*%
%TO.N,unconnected-(J2-Pad14)*%
X71201850Y-126828200D03*
%TO.P,J2,15,15*%
%TO.N,unconnected-(J2-Pad15)*%
X75701850Y-126028200D03*
%TO.P,J2,16,16*%
%TO.N,unconnected-(J2-Pad16)*%
X71201850Y-126028200D03*
%TO.P,J2,17,17*%
%TO.N,unconnected-(J2-Pad17)*%
X75701850Y-125228200D03*
%TO.P,J2,18,18*%
%TO.N,unconnected-(J2-Pad18)*%
X71201850Y-125228200D03*
%TO.P,J2,19,19*%
%TO.N,unconnected-(J2-Pad19)*%
X75701850Y-124428200D03*
%TO.P,J2,20,20*%
%TO.N,unconnected-(J2-Pad20)*%
X71201850Y-124428200D03*
%TO.P,J2,21,21*%
%TO.N,unconnected-(J2-Pad21)*%
X75701850Y-123628200D03*
%TO.P,J2,22,22*%
%TO.N,unconnected-(J2-Pad22)*%
X71201850Y-123628200D03*
%TO.P,J2,23,23*%
%TO.N,unconnected-(J2-Pad23)*%
X75701850Y-122828200D03*
%TO.P,J2,24,24*%
%TO.N,unconnected-(J2-Pad24)*%
X71201850Y-122828200D03*
%TO.P,J2,25,25*%
%TO.N,unconnected-(J2-Pad25)*%
X75701850Y-122028200D03*
%TO.P,J2,26,26*%
%TO.N,unconnected-(J2-Pad26)*%
X71201850Y-122028200D03*
%TO.P,J2,27,27*%
%TO.N,unconnected-(J2-Pad27)*%
X75701850Y-121228200D03*
%TO.P,J2,28,28*%
%TO.N,unconnected-(J2-Pad28)*%
X71201850Y-121228200D03*
%TO.P,J2,29,29*%
%TO.N,unconnected-(J2-Pad29)*%
X75701850Y-120428200D03*
%TO.P,J2,30,30*%
%TO.N,unconnected-(J2-Pad30)*%
X71201850Y-120428200D03*
%TO.P,J2,31,31*%
%TO.N,unconnected-(J2-Pad31)*%
X75701850Y-119628200D03*
%TO.P,J2,32,32*%
%TO.N,unconnected-(J2-Pad32)*%
X71201850Y-119628200D03*
%TO.P,J2,33,33*%
%TO.N,unconnected-(J2-Pad33)*%
X75701850Y-118828200D03*
%TO.P,J2,34,34*%
%TO.N,unconnected-(J2-Pad34)*%
X71201850Y-118828200D03*
%TO.P,J2,35,35*%
%TO.N,unconnected-(J2-Pad35)*%
X75701850Y-118028200D03*
%TO.P,J2,36,36*%
%TO.N,unconnected-(J2-Pad36)*%
X71201850Y-118028200D03*
%TO.P,J2,37,37*%
%TO.N,unconnected-(J2-Pad37)*%
X75701850Y-117228200D03*
%TO.P,J2,38,38*%
%TO.N,unconnected-(J2-Pad38)*%
X71201850Y-117228200D03*
%TO.P,J2,39,39*%
%TO.N,unconnected-(J2-Pad39)*%
X75701850Y-116428200D03*
%TO.P,J2,40,40*%
%TO.N,unconnected-(J2-Pad40)*%
X71201850Y-116428200D03*
%TO.P,J2,41,41*%
%TO.N,unconnected-(J2-Pad41)*%
X75701850Y-115628200D03*
%TO.P,J2,42,42*%
%TO.N,unconnected-(J2-Pad42)*%
X71201850Y-115628200D03*
%TO.P,J2,43,43*%
%TO.N,unconnected-(J2-Pad43)*%
X75701850Y-114828200D03*
%TO.P,J2,44,44*%
%TO.N,unconnected-(J2-Pad44)*%
X71201850Y-114828200D03*
%TO.P,J2,45,45*%
%TO.N,unconnected-(J2-Pad45)*%
X75701850Y-114028200D03*
%TO.P,J2,46,46*%
%TO.N,unconnected-(J2-Pad46)*%
X71201850Y-114028200D03*
%TO.P,J2,47,47*%
%TO.N,unconnected-(J2-Pad47)*%
X75701850Y-113228200D03*
%TO.P,J2,48,48*%
%TO.N,unconnected-(J2-Pad48)*%
X71201850Y-113228200D03*
%TO.P,J2,49,49*%
%TO.N,unconnected-(J2-Pad49)*%
X75701850Y-112428200D03*
%TO.P,J2,50,50*%
%TO.N,unconnected-(J2-Pad50)*%
X71201850Y-112428200D03*
%TO.P,J2,51,51*%
%TO.N,unconnected-(J2-Pad51)*%
X75701850Y-111628200D03*
%TO.P,J2,52,52*%
%TO.N,unconnected-(J2-Pad52)*%
X71201850Y-111628200D03*
%TO.P,J2,53,53*%
%TO.N,unconnected-(J2-Pad53)*%
X75701850Y-110828200D03*
%TO.P,J2,54,54*%
%TO.N,unconnected-(J2-Pad54)*%
X71201850Y-110828200D03*
%TO.P,J2,55,55*%
%TO.N,unconnected-(J2-Pad55)*%
X75701850Y-110028200D03*
%TO.P,J2,56,56*%
%TO.N,unconnected-(J2-Pad56)*%
X71201850Y-110028200D03*
%TO.P,J2,57,57*%
%TO.N,unconnected-(J2-Pad57)*%
X75701850Y-109228200D03*
%TO.P,J2,58,58*%
%TO.N,unconnected-(J2-Pad58)*%
X71201850Y-109228200D03*
%TO.P,J2,59,59*%
%TO.N,unconnected-(J2-Pad59)*%
X75701850Y-108428200D03*
%TO.P,J2,60,60*%
%TO.N,unconnected-(J2-Pad60)*%
X71201850Y-108428200D03*
%TO.P,J2,61,61*%
%TO.N,unconnected-(J2-Pad61)*%
X75701850Y-107628200D03*
%TO.P,J2,62,62*%
%TO.N,unconnected-(J2-Pad62)*%
X71201850Y-107628200D03*
%TO.P,J2,63,63*%
%TO.N,unconnected-(J2-Pad63)*%
X75701850Y-106828200D03*
%TO.P,J2,64,64*%
%TO.N,unconnected-(J2-Pad64)*%
X71201850Y-106828200D03*
%TO.P,J2,65,65*%
%TO.N,unconnected-(J2-Pad65)*%
X75701850Y-106028200D03*
%TO.P,J2,66,66*%
%TO.N,unconnected-(J2-Pad66)*%
X71201850Y-106028200D03*
%TO.P,J2,67,67*%
%TO.N,unconnected-(J2-Pad67)*%
X75701850Y-105228200D03*
%TO.P,J2,68,68*%
%TO.N,unconnected-(J2-Pad68)*%
X71201850Y-105228200D03*
%TO.P,J2,69,69*%
%TO.N,unconnected-(J2-Pad69)*%
X75701850Y-104428200D03*
%TO.P,J2,70,70*%
%TO.N,unconnected-(J2-Pad70)*%
X71201850Y-104428200D03*
%TO.P,J2,71,71*%
%TO.N,unconnected-(J2-Pad71)*%
X75701850Y-103628200D03*
%TO.P,J2,72,72*%
%TO.N,unconnected-(J2-Pad72)*%
X71201850Y-103628200D03*
%TO.P,J2,73,73*%
%TO.N,unconnected-(J2-Pad73)*%
X75701850Y-102828200D03*
%TO.P,J2,74,74*%
%TO.N,unconnected-(J2-Pad74)*%
X71201850Y-102828200D03*
%TO.P,J2,75,75*%
%TO.N,unconnected-(J2-Pad75)*%
X75701850Y-102028200D03*
%TO.P,J2,76,76*%
%TO.N,unconnected-(J2-Pad76)*%
X71201850Y-102028200D03*
%TO.P,J2,77,77*%
%TO.N,unconnected-(J2-Pad77)*%
X75701850Y-101228200D03*
%TO.P,J2,78,78*%
%TO.N,unconnected-(J2-Pad78)*%
X71201850Y-101228200D03*
%TO.P,J2,79,79*%
%TO.N,unconnected-(J2-Pad79)*%
X75701850Y-100428200D03*
%TO.P,J2,80,80*%
%TO.N,unconnected-(J2-Pad80)*%
X71201850Y-100428200D03*
%TD*%
%TO.P,J1,01,01*%
%TO.N,unconnected-(J1-Pad01)*%
X75698350Y-81683000D03*
%TO.P,J1,02,02*%
%TO.N,/FB3.LF*%
X71198350Y-81683000D03*
%TO.P,J1,03,03*%
%TO.N,unconnected-(J1-Pad03)*%
X75698350Y-80883000D03*
%TO.P,J1,04,04*%
%TO.N,unconnected-(J1-Pad04)*%
X71198350Y-80883000D03*
%TO.P,J1,05,05*%
%TO.N,unconnected-(J1-Pad05)*%
X75698350Y-80083000D03*
%TO.P,J1,06,06*%
%TO.N,unconnected-(J1-Pad06)*%
X71198350Y-80083000D03*
%TO.P,J1,07,07*%
%TO.N,unconnected-(J1-Pad07)*%
X75698350Y-79283000D03*
%TO.P,J1,08,08*%
%TO.N,/FB3.HF6*%
X71198350Y-79283000D03*
%TO.P,J1,09,09*%
%TO.N,/FB2.DVML.MUX*%
X75698350Y-78483000D03*
%TO.P,J1,10,10*%
%TO.N,/FB3.PREF.F*%
X71198350Y-78483000D03*
%TO.P,J1,11,11*%
%TO.N,/FB2.DVMH*%
X75698350Y-77683000D03*
%TO.P,J1,12,12*%
%TO.N,unconnected-(J1-Pad12)*%
X71198350Y-77683000D03*
%TO.P,J1,13,13*%
%TO.N,/FB2.DVML*%
X75698350Y-76883000D03*
%TO.P,J1,14,14*%
%TO.N,/FB3.PREF.HS*%
X71198350Y-76883000D03*
%TO.P,J1,15,15*%
%TO.N,unconnected-(J1-Pad15)*%
X75698350Y-76083000D03*
%TO.P,J1,16,16*%
%TO.N,unconnected-(J1-Pad16)*%
X71198350Y-76083000D03*
%TO.P,J1,17,17*%
%TO.N,unconnected-(J1-Pad17)*%
X75698350Y-75283000D03*
%TO.P,J1,18,18*%
%TO.N,/FB3.HF5*%
X71198350Y-75283000D03*
%TO.P,J1,19,19*%
%TO.N,unconnected-(J1-Pad19)*%
X75698350Y-74483000D03*
%TO.P,J1,20,20*%
%TO.N,unconnected-(J1-Pad20)*%
X71198350Y-74483000D03*
%TO.P,J1,21,21*%
%TO.N,unconnected-(J1-Pad21)*%
X75698350Y-73683000D03*
%TO.P,J1,22,22*%
%TO.N,unconnected-(J1-Pad22)*%
X71198350Y-73683000D03*
%TO.P,J1,23,23*%
%TO.N,unconnected-(J1-Pad23)*%
X75698350Y-72883000D03*
%TO.P,J1,24,24*%
%TO.N,unconnected-(J1-Pad24)*%
X71198350Y-72883000D03*
%TO.P,J1,25,25*%
%TO.N,unconnected-(J1-Pad25)*%
X75698350Y-72083000D03*
%TO.P,J1,26,26*%
%TO.N,/FB3.MFDCLK.N*%
X71198350Y-72083000D03*
%TO.P,J1,27,27*%
%TO.N,unconnected-(J1-Pad27)*%
X75698350Y-71283000D03*
%TO.P,J1,28,28*%
%TO.N,unconnected-(J1-Pad28)*%
X71198350Y-71283000D03*
%TO.P,J1,29,29*%
%TO.N,unconnected-(J1-Pad29)*%
X75698350Y-70483000D03*
%TO.P,J1,30,30*%
%TO.N,/FB3.MFD.N*%
X71198350Y-70483000D03*
%TO.P,J1,31,31*%
%TO.N,unconnected-(J1-Pad31)*%
X75698350Y-69683000D03*
%TO.P,J1,32,32*%
%TO.N,/FB3.LF*%
X71198350Y-69683000D03*
%TO.P,J1,33,33*%
%TO.N,unconnected-(J1-Pad33)*%
X75698350Y-68883000D03*
%TO.P,J1,34,34*%
%TO.N,unconnected-(J1-Pad34)*%
X71198350Y-68883000D03*
%TO.P,J1,35,35*%
%TO.N,unconnected-(J1-Pad35)*%
X75698350Y-68083000D03*
%TO.P,J1,36,36*%
%TO.N,unconnected-(J1-Pad36)*%
X71198350Y-68083000D03*
%TO.P,J1,37,37*%
%TO.N,unconnected-(J1-Pad37)*%
X75698350Y-67283000D03*
%TO.P,J1,38,38*%
%TO.N,/FB3.HF4*%
X71198350Y-67283000D03*
%TO.P,J1,39,39*%
%TO.N,/FB2.MLDCLK.N*%
X75698350Y-66483000D03*
%TO.P,J1,40,40*%
%TO.N,/FB3.LF*%
X71198350Y-66483000D03*
%TO.P,J1,41,41*%
%TO.N,/FB2.LF*%
X75698350Y-65683000D03*
%TO.P,J1,42,42*%
%TO.N,unconnected-(J1-Pad42)*%
X71198350Y-65683000D03*
%TO.P,J1,43,43*%
%TO.N,/FB2.HF4*%
X75698350Y-64883000D03*
%TO.P,J1,44,44*%
%TO.N,/FB3.MLDCLK.N*%
X71198350Y-64883000D03*
%TO.P,J1,45,45*%
%TO.N,unconnected-(J1-Pad45)*%
X75698350Y-64083000D03*
%TO.P,J1,46,46*%
%TO.N,unconnected-(J1-Pad46)*%
X71198350Y-64083000D03*
%TO.P,J1,47,47*%
%TO.N,unconnected-(J1-Pad47)*%
X75698350Y-63283000D03*
%TO.P,J1,48,48*%
%TO.N,/FB3.MLD.N*%
X71198350Y-63283000D03*
%TO.P,J1,49,49*%
%TO.N,unconnected-(J1-Pad49)*%
X75698350Y-62483000D03*
%TO.P,J1,50,50*%
%TO.N,/FB3.LF*%
X71198350Y-62483000D03*
%TO.P,J1,51,51*%
%TO.N,unconnected-(J1-Pad51)*%
X75698350Y-61683000D03*
%TO.P,J1,52,52*%
%TO.N,unconnected-(J1-Pad52)*%
X71198350Y-61683000D03*
%TO.P,J1,53,53*%
%TO.N,unconnected-(J1-Pad53)*%
X75698350Y-60883000D03*
%TO.P,J1,54,54*%
%TO.N,unconnected-(J1-Pad54)*%
X71198350Y-60883000D03*
%TO.P,J1,55,55*%
%TO.N,unconnected-(J1-Pad55)*%
X75698350Y-60083000D03*
%TO.P,J1,56,56*%
%TO.N,/FB3.HF3*%
X71198350Y-60083000D03*
%TO.P,J1,57,57*%
%TO.N,unconnected-(J1-Pad57)*%
X75698350Y-59283000D03*
%TO.P,J1,58,58*%
%TO.N,/FB3.LF*%
X71198350Y-59283000D03*
%TO.P,J1,59,59*%
%TO.N,unconnected-(J1-Pad59)*%
X75698350Y-58483000D03*
%TO.P,J1,60,60*%
%TO.N,/FB3.HF2*%
X71198350Y-58483000D03*
%TO.P,J1,61,61*%
%TO.N,unconnected-(J1-Pad61)*%
X75698350Y-57683000D03*
%TO.P,J1,62,62*%
%TO.N,unconnected-(J1-Pad62)*%
X71198350Y-57683000D03*
%TO.P,J1,63,63*%
%TO.N,unconnected-(J1-Pad63)*%
X75698350Y-56883000D03*
%TO.P,J1,64,64*%
%TO.N,unconnected-(J1-Pad64)*%
X71198350Y-56883000D03*
%TO.P,J1,65,65*%
%TO.N,unconnected-(J1-Pad65)*%
X75698350Y-56083000D03*
%TO.P,J1,66,66*%
%TO.N,/FB3.LF*%
X71198350Y-56083000D03*
%TO.P,J1,67,67*%
%TO.N,unconnected-(J1-Pad67)*%
X75698350Y-55283000D03*
%TO.P,J1,68,68*%
%TO.N,/FB3.DVML*%
X71198350Y-55283000D03*
%TO.P,J1,69,69*%
%TO.N,/FB2.HF5*%
X75698350Y-54483000D03*
%TO.P,J1,70,70*%
%TO.N,/FB3.DVMH*%
X71198350Y-54483000D03*
%TO.P,J1,71,71*%
%TO.N,/FB2.PREF.F*%
X75698350Y-53683000D03*
%TO.P,J1,72,72*%
%TO.N,unconnected-(J1-Pad72)*%
X71198350Y-53683000D03*
%TO.P,J1,73,73*%
%TO.N,/FB2.HF6*%
X75698350Y-52883000D03*
%TO.P,J1,74,74*%
%TO.N,/FB3.LF*%
X71198350Y-52883000D03*
%TO.P,J1,75,75*%
%TO.N,unconnected-(J1-Pad75)*%
X75698350Y-52083000D03*
%TO.P,J1,76,76*%
%TO.N,unconnected-(J1-Pad76)*%
X71198350Y-52083000D03*
%TO.P,J1,77,77*%
%TO.N,unconnected-(J1-Pad77)*%
X75698350Y-51283000D03*
%TO.P,J1,78,78*%
%TO.N,unconnected-(J1-Pad78)*%
X71198350Y-51283000D03*
%TO.P,J1,79,79*%
%TO.N,/FB2.LF*%
X75698350Y-50483000D03*
%TO.P,J1,80,80*%
%TO.N,/FB3.HF1*%
X71198350Y-50483000D03*
%TD*%
D11*
%TO.N,/FB3.DVMH*%
X72390000Y-54152800D03*
%TO.N,/FB3.LF*%
X72415400Y-66497200D03*
%TO.N,/FB3.MLDCLK.N*%
X72440800Y-65252600D03*
%TO.N,/FB3.PREF.HS*%
X72475247Y-77825871D03*
%TO.N,/FB3.PREF.F*%
X72237600Y-78486000D03*
%TO.N,/FB2.LF*%
X74472800Y-66471800D03*
%TO.N,/FB2.HF6*%
X74549000Y-53009800D03*
%TO.N,/FB2.HF5*%
X74523600Y-54127400D03*
%TO.N,/FB2.DVML*%
X74472800Y-78841600D03*
%TO.N,/FB2.DVMH*%
X74496876Y-77951276D03*
%TO.N,/FB2.HF4*%
X74472800Y-65227200D03*
%TD*%
D12*
%TO.N,/FB3.DVMH*%
X71198350Y-54483000D02*
X72059800Y-54483000D01*
X72059800Y-54483000D02*
X72390000Y-54152800D01*
%TO.N,/FB3.LF*%
X71198350Y-66483000D02*
X72401200Y-66483000D01*
X72401200Y-66483000D02*
X72415400Y-66497200D01*
%TO.N,/FB3.MLDCLK.N*%
X72071200Y-64883000D02*
X71198350Y-64883000D01*
X72440800Y-65252600D02*
X72071200Y-64883000D01*
%TO.N,/FB3.PREF.HS*%
X71532376Y-76883000D02*
X71198350Y-76883000D01*
X72475247Y-77825871D02*
X71532376Y-76883000D01*
%TO.N,/FB3.PREF.F*%
X72234600Y-78483000D02*
X72237600Y-78486000D01*
X71198350Y-78483000D02*
X72234600Y-78483000D01*
%TO.N,/FB2.LF*%
X75261600Y-65683000D02*
X75698350Y-65683000D01*
X74472800Y-66471800D02*
X75261600Y-65683000D01*
%TO.N,/FB2.HF6*%
X74675800Y-52883000D02*
X74549000Y-53009800D01*
X75698350Y-52883000D02*
X74675800Y-52883000D01*
%TO.N,/FB2.HF5*%
X74879200Y-54483000D02*
X74523600Y-54127400D01*
X75698350Y-54483000D02*
X74879200Y-54483000D01*
%TO.N,/FB2.DVML*%
X74472800Y-78841600D02*
X73863200Y-78232000D01*
X74526400Y-76883000D02*
X75698350Y-76883000D01*
X73863200Y-77546200D02*
X74526400Y-76883000D01*
X73863200Y-78232000D02*
X73863200Y-77546200D01*
%TO.N,/FB2.DVMH*%
X74765152Y-77683000D02*
X75698350Y-77683000D01*
X74496876Y-77951276D02*
X74765152Y-77683000D01*
%TO.N,/FB2.HF4*%
X74817000Y-64883000D02*
X75698350Y-64883000D01*
X74472800Y-65227200D02*
X74817000Y-64883000D01*
%TD*%
M02*
