%TF.GenerationSoftware,KiCad,Pcbnew,8.0.0*%
%TF.CreationDate,2024-07-09T15:43:22-07:00*%
%TF.ProjectId,samtec-ptl-dib-mockup-1,73616d74-6563-42d7-9074-6c2d6469622d,rev?*%
%TF.SameCoordinates,Original*%
%TF.FileFunction,Copper,L2,Bot*%
%TF.FilePolarity,Positive*%
%FSLAX46Y46*%
G04 Gerber Fmt 4.6, Leading zero omitted, Abs format (unit mm)*
G04 Created by KiCad (PCBNEW 8.0.0) date 2024-07-09 15:43:22*
%MOMM*%
%LPD*%
G01*
G04 APERTURE LIST*
G04 Aperture macros list*
%AMRoundRect*
0 Rectangle with rounded corners*
0 $1 Rounding radius*
0 $2 $3 $4 $5 $6 $7 $8 $9 X,Y pos of 4 corners*
0 Add a 4 corners polygon primitive as box body*
4,1,4,$2,$3,$4,$5,$6,$7,$8,$9,$2,$3,0*
0 Add four circle primitives for the rounded corners*
1,1,$1+$1,$2,$3*
1,1,$1+$1,$4,$5*
1,1,$1+$1,$6,$7*
1,1,$1+$1,$8,$9*
0 Add four rect primitives between the rounded corners*
20,1,$1+$1,$2,$3,$4,$5,0*
20,1,$1+$1,$4,$5,$6,$7,0*
20,1,$1+$1,$6,$7,$8,$9,0*
20,1,$1+$1,$8,$9,$2,$3,0*%
G04 Aperture macros list end*
%TA.AperFunction,SMDPad,CuDef*%
%ADD10RoundRect,0.137160X0.320040X0.320040X-0.320040X0.320040X-0.320040X-0.320040X0.320040X-0.320040X0*%
%TD*%
%TA.AperFunction,ViaPad*%
%ADD11C,0.600000*%
%TD*%
%TA.AperFunction,Conductor*%
%ADD12C,0.127000*%
%TD*%
G04 APERTURE END LIST*
D10*
%TO.P,U1,A1,A1*%
%TO.N,/FB3.HF1*%
X70036200Y-42970000D03*
%TO.P,U1,A2,A2*%
%TO.N,unconnected-(U1-PadA2)*%
X70036200Y-44087600D03*
%TO.P,U1,A3,A3*%
%TO.N,/FB3.DVMH*%
X70036200Y-45205200D03*
%TO.P,U1,A4,A4*%
%TO.N,unconnected-(U1-PadA4)*%
X70036200Y-46322800D03*
%TO.P,U1,A5,A5*%
%TO.N,/FB3.DVML*%
X70036200Y-47440400D03*
%TO.P,U1,A6,A6*%
%TO.N,unconnected-(U1-PadA6)*%
X70036200Y-48558000D03*
%TO.P,U1,A7,A7*%
%TO.N,/FB3.LF*%
X70036200Y-49675600D03*
%TO.P,U1,A8,A8*%
%TO.N,unconnected-(U1-PadA8)*%
X70036200Y-50793200D03*
%TO.P,U1,A9,A9*%
%TO.N,/FB3.HF2*%
X70036200Y-51910800D03*
%TO.P,U1,A12,A12*%
%TO.N,unconnected-(U1-PadA12)*%
X70036200Y-55263600D03*
%TO.P,U1,A13,A13*%
%TO.N,unconnected-(U1-PadA13)*%
X70036200Y-56381200D03*
%TO.P,U1,A14,A14*%
%TO.N,/FB3.HF3*%
X70036200Y-57498800D03*
%TO.P,U1,A15,A15*%
%TO.N,unconnected-(U1-PadA15)*%
X70036200Y-58616400D03*
%TO.P,U1,A16,A16*%
%TO.N,/FB3.LF*%
X70036200Y-59734000D03*
%TO.P,U1,A17,A17*%
%TO.N,/FB3.MLD.N*%
X70036200Y-60851600D03*
%TO.P,U1,A18,A18*%
%TO.N,/FB3.LF*%
X70036200Y-61969200D03*
%TO.P,U1,A19,A19*%
%TO.N,/FB3.MLDCLK.N*%
X70036200Y-63086800D03*
%TO.P,U1,A20,A20*%
%TO.N,/FB3.LF*%
X70036200Y-64204400D03*
%TO.P,U1,A23,A23*%
%TO.N,/FB3.HF4*%
X70036200Y-67557200D03*
%TO.P,U1,A24,A24*%
%TO.N,unconnected-(U1-PadA24)*%
X70036200Y-68674800D03*
%TO.P,U1,A25,A25*%
%TO.N,/FB3.LF*%
X70036200Y-69792400D03*
%TO.P,U1,A26,A26*%
%TO.N,/FB3.MFD.N*%
X70036200Y-70910000D03*
%TO.P,U1,A27,A27*%
%TO.N,/FB3.LF*%
X70036200Y-72027600D03*
%TO.P,U1,A28,A28*%
%TO.N,/FB3.MFDCLK.N*%
X70036200Y-73145200D03*
%TO.P,U1,A29,A29*%
%TO.N,/FB3.LF*%
X70036200Y-74262800D03*
%TO.P,U1,A30,A30*%
%TO.N,unconnected-(U1-PadA30)*%
X70036200Y-75380400D03*
%TO.P,U1,A31,A31*%
%TO.N,/FB3.HF5*%
X70036200Y-76498000D03*
%TO.P,U1,A34,A34*%
%TO.N,/FB3.LF*%
X70036200Y-79850800D03*
%TO.P,U1,A35,A35*%
%TO.N,/FB3.PREF.HS*%
X70036200Y-80968400D03*
%TO.P,U1,A36,A36*%
%TO.N,/FB3.LF*%
X70036200Y-82086000D03*
%TO.P,U1,A37,A37*%
%TO.N,/FB3.PREF.F*%
X70036200Y-83203600D03*
%TO.P,U1,A38,A38*%
%TO.N,/FB3.LF*%
X70036200Y-84321200D03*
%TO.P,U1,A39,A39*%
%TO.N,unconnected-(U1-PadA39)*%
X70036200Y-85438800D03*
%TO.P,U1,A40,A40*%
%TO.N,/FB3.HF6*%
X70036200Y-86556400D03*
%TO.P,U1,A41,A41*%
%TO.N,unconnected-(U1-PadA41)*%
X70036200Y-87674000D03*
%TO.P,U1,A42,A42*%
%TO.N,/FB3.LF*%
X70036200Y-88791600D03*
%TO.P,U1,A46,A46*%
%TO.N,unconnected-(U1-PadA46)*%
X70036200Y-93262000D03*
%TO.P,U1,A47,A47*%
%TO.N,unconnected-(U1-PadA47)*%
X70036200Y-94379600D03*
%TO.P,U1,A48,A48*%
%TO.N,unconnected-(U1-PadA48)*%
X70036200Y-95497200D03*
%TO.P,U1,A49,A49*%
%TO.N,unconnected-(U1-PadA49)*%
X70036200Y-96614800D03*
%TO.P,U1,A50,A50*%
%TO.N,unconnected-(U1-PadA50)*%
X70036200Y-97732400D03*
%TO.P,U1,A51,A51*%
%TO.N,unconnected-(U1-PadA51)*%
X70036200Y-98850000D03*
%TO.P,U1,A52,A52*%
%TO.N,unconnected-(U1-PadA52)*%
X70036200Y-99967600D03*
%TO.P,U1,A53,A53*%
%TO.N,unconnected-(U1-PadA53)*%
X70036200Y-101085200D03*
%TO.P,U1,A54,A54*%
%TO.N,unconnected-(U1-PadA54)*%
X70036200Y-102202800D03*
%TO.P,U1,A57,A57*%
%TO.N,unconnected-(U1-PadA57)*%
X70036200Y-105555600D03*
%TO.P,U1,A58,A58*%
%TO.N,unconnected-(U1-PadA58)*%
X70036200Y-106673200D03*
%TO.P,U1,A59,A59*%
%TO.N,unconnected-(U1-PadA59)*%
X70036200Y-107790800D03*
%TO.P,U1,A60,A60*%
%TO.N,unconnected-(U1-PadA60)*%
X70036200Y-108908400D03*
%TO.P,U1,A61,A61*%
%TO.N,unconnected-(U1-PadA61)*%
X70036200Y-110026000D03*
%TO.P,U1,A62,A62*%
%TO.N,unconnected-(U1-PadA62)*%
X70036200Y-111143600D03*
%TO.P,U1,A63,A63*%
%TO.N,unconnected-(U1-PadA63)*%
X70036200Y-112261200D03*
%TO.P,U1,A64,A64*%
%TO.N,unconnected-(U1-PadA64)*%
X70036200Y-113378800D03*
%TO.P,U1,A65,A65*%
%TO.N,unconnected-(U1-PadA65)*%
X70036200Y-114496400D03*
%TO.P,U1,A68,A68*%
%TO.N,unconnected-(U1-PadA68)*%
X70036200Y-117849200D03*
%TO.P,U1,A69,A69*%
%TO.N,unconnected-(U1-PadA69)*%
X70036200Y-118966800D03*
%TO.P,U1,A70,A70*%
%TO.N,unconnected-(U1-PadA70)*%
X70036200Y-120084400D03*
%TO.P,U1,A71,A71*%
%TO.N,unconnected-(U1-PadA71)*%
X70036200Y-121202000D03*
%TO.P,U1,A72,A72*%
%TO.N,unconnected-(U1-PadA72)*%
X70036200Y-122319600D03*
%TO.P,U1,A73,A73*%
%TO.N,unconnected-(U1-PadA73)*%
X70036200Y-123437200D03*
%TO.P,U1,A74,A74*%
%TO.N,unconnected-(U1-PadA74)*%
X70036200Y-124554800D03*
%TO.P,U1,A75,A75*%
%TO.N,unconnected-(U1-PadA75)*%
X70036200Y-125672400D03*
%TO.P,U1,A76,A76*%
%TO.N,unconnected-(U1-PadA76)*%
X70036200Y-126790000D03*
%TO.P,U1,A79,A79*%
%TO.N,unconnected-(U1-PadA79)*%
X70036200Y-130142800D03*
%TO.P,U1,A80,A80*%
%TO.N,unconnected-(U1-PadA80)*%
X70036200Y-131260400D03*
%TO.P,U1,A81,A81*%
%TO.N,unconnected-(U1-PadA81)*%
X70036200Y-132378000D03*
%TO.P,U1,A82,A82*%
%TO.N,unconnected-(U1-PadA82)*%
X70036200Y-133495600D03*
%TO.P,U1,A83,A83*%
%TO.N,unconnected-(U1-PadA83)*%
X70036200Y-134613200D03*
%TO.P,U1,A84,A84*%
%TO.N,unconnected-(U1-PadA84)*%
X70036200Y-135730800D03*
%TO.P,U1,A85,A85*%
%TO.N,unconnected-(U1-PadA85)*%
X70036200Y-136848400D03*
%TO.P,U1,A86,A86*%
%TO.N,unconnected-(U1-PadA86)*%
X70036200Y-137966000D03*
%TO.P,U1,A87,A87*%
%TO.N,unconnected-(U1-PadA87)*%
X70036200Y-139083600D03*
%TO.P,U1,B1,B1*%
%TO.N,unconnected-(U1-PadB1)*%
X71153800Y-42970000D03*
%TO.P,U1,B2,B2*%
%TO.N,unconnected-(U1-PadB2)*%
X71153800Y-44087600D03*
%TO.P,U1,B3,B3*%
%TO.N,unconnected-(U1-PadB3)*%
X71153800Y-45205200D03*
%TO.P,U1,B4,B4*%
%TO.N,unconnected-(U1-PadB4)*%
X71153800Y-46322800D03*
%TO.P,U1,B5,B5*%
%TO.N,unconnected-(U1-PadB5)*%
X71153800Y-47440400D03*
%TO.P,U1,B6,B6*%
%TO.N,unconnected-(U1-PadB6)*%
X71153800Y-48558000D03*
%TO.P,U1,B7,B7*%
%TO.N,unconnected-(U1-PadB7)*%
X71153800Y-49675600D03*
%TO.P,U1,B8,B8*%
%TO.N,unconnected-(U1-PadB8)*%
X71153800Y-50793200D03*
%TO.P,U1,B9,B9*%
%TO.N,unconnected-(U1-PadB9)*%
X71153800Y-51910800D03*
%TO.P,U1,B12,B12*%
%TO.N,unconnected-(U1-PadB12)*%
X71153800Y-55263600D03*
%TO.P,U1,B13,B13*%
%TO.N,unconnected-(U1-PadB13)*%
X71153800Y-56381200D03*
%TO.P,U1,B14,B14*%
%TO.N,unconnected-(U1-PadB14)*%
X71153800Y-57498800D03*
%TO.P,U1,B15,B15*%
%TO.N,unconnected-(U1-PadB15)*%
X71153800Y-58616400D03*
%TO.P,U1,B16,B16*%
%TO.N,unconnected-(U1-PadB16)*%
X71153800Y-59734000D03*
%TO.P,U1,B17,B17*%
%TO.N,unconnected-(U1-PadB17)*%
X71153800Y-60851600D03*
%TO.P,U1,B18,B18*%
%TO.N,unconnected-(U1-PadB18)*%
X71153800Y-61969200D03*
%TO.P,U1,B19,B19*%
%TO.N,unconnected-(U1-PadB19)*%
X71153800Y-63086800D03*
%TO.P,U1,B20,B20*%
%TO.N,unconnected-(U1-PadB20)*%
X71153800Y-64204400D03*
%TO.P,U1,B23,B23*%
%TO.N,unconnected-(U1-PadB23)*%
X71153800Y-67557200D03*
%TO.P,U1,B24,B24*%
%TO.N,unconnected-(U1-PadB24)*%
X71153800Y-68674800D03*
%TO.P,U1,B25,B25*%
%TO.N,unconnected-(U1-PadB25)*%
X71153800Y-69792400D03*
%TO.P,U1,B26,B26*%
%TO.N,unconnected-(U1-PadB26)*%
X71153800Y-70910000D03*
%TO.P,U1,B27,B27*%
%TO.N,unconnected-(U1-PadB27)*%
X71153800Y-72027600D03*
%TO.P,U1,B28,B28*%
%TO.N,unconnected-(U1-PadB28)*%
X71153800Y-73145200D03*
%TO.P,U1,B29,B29*%
%TO.N,unconnected-(U1-PadB29)*%
X71153800Y-74262800D03*
%TO.P,U1,B30,B30*%
%TO.N,unconnected-(U1-PadB30)*%
X71153800Y-75380400D03*
%TO.P,U1,B31,B31*%
%TO.N,unconnected-(U1-PadB31)*%
X71153800Y-76498000D03*
%TO.P,U1,B34,B34*%
%TO.N,unconnected-(U1-PadB34)*%
X71153800Y-79850800D03*
%TO.P,U1,B35,B35*%
%TO.N,unconnected-(U1-PadB35)*%
X71153800Y-80968400D03*
%TO.P,U1,B36,B36*%
%TO.N,unconnected-(U1-PadB36)*%
X71153800Y-82086000D03*
%TO.P,U1,B37,B37*%
%TO.N,unconnected-(U1-PadB37)*%
X71153800Y-83203600D03*
%TO.P,U1,B38,B38*%
%TO.N,unconnected-(U1-PadB38)*%
X71153800Y-84321200D03*
%TO.P,U1,B39,B39*%
%TO.N,unconnected-(U1-PadB39)*%
X71153800Y-85438800D03*
%TO.P,U1,B40,B40*%
%TO.N,unconnected-(U1-PadB40)*%
X71153800Y-86556400D03*
%TO.P,U1,B41,B41*%
%TO.N,unconnected-(U1-PadB41)*%
X71153800Y-87674000D03*
%TO.P,U1,B42,B42*%
%TO.N,unconnected-(U1-PadB42)*%
X71153800Y-88791600D03*
%TO.P,U1,B46,B46*%
%TO.N,unconnected-(U1-PadB46)*%
X71153800Y-93262000D03*
%TO.P,U1,B47,B47*%
%TO.N,unconnected-(U1-PadB47)*%
X71153800Y-94379600D03*
%TO.P,U1,B48,B48*%
%TO.N,unconnected-(U1-PadB48)*%
X71153800Y-95497200D03*
%TO.P,U1,B49,B49*%
%TO.N,unconnected-(U1-PadB49)*%
X71153800Y-96614800D03*
%TO.P,U1,B50,B50*%
%TO.N,unconnected-(U1-PadB50)*%
X71153800Y-97732400D03*
%TO.P,U1,B51,B51*%
%TO.N,unconnected-(U1-PadB51)*%
X71153800Y-98850000D03*
%TO.P,U1,B52,B52*%
%TO.N,unconnected-(U1-PadB52)*%
X71153800Y-99967600D03*
%TO.P,U1,B53,B53*%
%TO.N,unconnected-(U1-PadB53)*%
X71153800Y-101085200D03*
%TO.P,U1,B54,B54*%
%TO.N,unconnected-(U1-PadB54)*%
X71153800Y-102202800D03*
%TO.P,U1,B57,B57*%
%TO.N,unconnected-(U1-PadB57)*%
X71153800Y-105555600D03*
%TO.P,U1,B58,B58*%
%TO.N,unconnected-(U1-PadB58)*%
X71153800Y-106673200D03*
%TO.P,U1,B59,B59*%
%TO.N,unconnected-(U1-PadB59)*%
X71153800Y-107790800D03*
%TO.P,U1,B60,B60*%
%TO.N,unconnected-(U1-PadB60)*%
X71153800Y-108908400D03*
%TO.P,U1,B61,B61*%
%TO.N,unconnected-(U1-PadB61)*%
X71153800Y-110026000D03*
%TO.P,U1,B62,B62*%
%TO.N,unconnected-(U1-PadB62)*%
X71153800Y-111143600D03*
%TO.P,U1,B63,B63*%
%TO.N,unconnected-(U1-PadB63)*%
X71153800Y-112261200D03*
%TO.P,U1,B64,B64*%
%TO.N,unconnected-(U1-PadB64)*%
X71153800Y-113378800D03*
%TO.P,U1,B65,B65*%
%TO.N,unconnected-(U1-PadB65)*%
X71153800Y-114496400D03*
%TO.P,U1,B68,B68*%
%TO.N,unconnected-(U1-PadB68)*%
X71153800Y-117849200D03*
%TO.P,U1,B69,B69*%
%TO.N,unconnected-(U1-PadB69)*%
X71153800Y-118966800D03*
%TO.P,U1,B70,B70*%
%TO.N,unconnected-(U1-PadB70)*%
X71153800Y-120084400D03*
%TO.P,U1,B71,B71*%
%TO.N,unconnected-(U1-PadB71)*%
X71153800Y-121202000D03*
%TO.P,U1,B72,B72*%
%TO.N,unconnected-(U1-PadB72)*%
X71153800Y-122319600D03*
%TO.P,U1,B73,B73*%
%TO.N,unconnected-(U1-PadB73)*%
X71153800Y-123437200D03*
%TO.P,U1,B74,B74*%
%TO.N,unconnected-(U1-PadB74)*%
X71153800Y-124554800D03*
%TO.P,U1,B75,B75*%
%TO.N,unconnected-(U1-PadB75)*%
X71153800Y-125672400D03*
%TO.P,U1,B76,B76*%
%TO.N,unconnected-(U1-PadB76)*%
X71153800Y-126790000D03*
%TO.P,U1,B79,B79*%
%TO.N,unconnected-(U1-PadB79)*%
X71153800Y-130142800D03*
%TO.P,U1,B80,B80*%
%TO.N,unconnected-(U1-PadB80)*%
X71153800Y-131260400D03*
%TO.P,U1,B81,B81*%
%TO.N,unconnected-(U1-PadB81)*%
X71153800Y-132378000D03*
%TO.P,U1,B82,B82*%
%TO.N,unconnected-(U1-PadB82)*%
X71153800Y-133495600D03*
%TO.P,U1,B83,B83*%
%TO.N,unconnected-(U1-PadB83)*%
X71153800Y-134613200D03*
%TO.P,U1,B84,B84*%
%TO.N,unconnected-(U1-PadB84)*%
X71153800Y-135730800D03*
%TO.P,U1,B85,B85*%
%TO.N,unconnected-(U1-PadB85)*%
X71153800Y-136848400D03*
%TO.P,U1,B86,B86*%
%TO.N,unconnected-(U1-PadB86)*%
X71153800Y-137966000D03*
%TO.P,U1,B87,B87*%
%TO.N,unconnected-(U1-PadB87)*%
X71153800Y-139083600D03*
%TO.P,U1,C1,C1*%
%TO.N,unconnected-(U1-PadC1)*%
X72271400Y-42970000D03*
%TO.P,U1,C2,C2*%
%TO.N,unconnected-(U1-PadC2)*%
X72271400Y-44087600D03*
%TO.P,U1,C3,C3*%
%TO.N,unconnected-(U1-PadC3)*%
X72271400Y-45205200D03*
%TO.P,U1,C4,C4*%
%TO.N,unconnected-(U1-PadC4)*%
X72271400Y-46322800D03*
%TO.P,U1,C5,C5*%
%TO.N,unconnected-(U1-PadC5)*%
X72271400Y-47440400D03*
%TO.P,U1,C6,C6*%
%TO.N,unconnected-(U1-PadC6)*%
X72271400Y-48558000D03*
%TO.P,U1,C7,C7*%
%TO.N,unconnected-(U1-PadC7)*%
X72271400Y-49675600D03*
%TO.P,U1,C8,C8*%
%TO.N,unconnected-(U1-PadC8)*%
X72271400Y-50793200D03*
%TO.P,U1,C9,C9*%
%TO.N,unconnected-(U1-PadC9)*%
X72271400Y-51910800D03*
%TO.P,U1,C12,C12*%
%TO.N,unconnected-(U1-PadC12)*%
X72271400Y-55263600D03*
%TO.P,U1,C13,C13*%
%TO.N,unconnected-(U1-PadC13)*%
X72271400Y-56381200D03*
%TO.P,U1,C14,C14*%
%TO.N,unconnected-(U1-PadC14)*%
X72271400Y-57498800D03*
%TO.P,U1,C15,C15*%
%TO.N,unconnected-(U1-PadC15)*%
X72271400Y-58616400D03*
%TO.P,U1,C16,C16*%
%TO.N,unconnected-(U1-PadC16)*%
X72271400Y-59734000D03*
%TO.P,U1,C17,C17*%
%TO.N,unconnected-(U1-PadC17)*%
X72271400Y-60851600D03*
%TO.P,U1,C18,C18*%
%TO.N,unconnected-(U1-PadC18)*%
X72271400Y-61969200D03*
%TO.P,U1,C19,C19*%
%TO.N,unconnected-(U1-PadC19)*%
X72271400Y-63086800D03*
%TO.P,U1,C20,C20*%
%TO.N,unconnected-(U1-PadC20)*%
X72271400Y-64204400D03*
%TO.P,U1,C23,C23*%
%TO.N,unconnected-(U1-PadC23)*%
X72271400Y-67557200D03*
%TO.P,U1,C24,C24*%
%TO.N,unconnected-(U1-PadC24)*%
X72271400Y-68674800D03*
%TO.P,U1,C25,C25*%
%TO.N,unconnected-(U1-PadC25)*%
X72271400Y-69792400D03*
%TO.P,U1,C26,C26*%
%TO.N,unconnected-(U1-PadC26)*%
X72271400Y-70910000D03*
%TO.P,U1,C27,C27*%
%TO.N,unconnected-(U1-PadC27)*%
X72271400Y-72027600D03*
%TO.P,U1,C28,C28*%
%TO.N,unconnected-(U1-PadC28)*%
X72271400Y-73145200D03*
%TO.P,U1,C29,C29*%
%TO.N,unconnected-(U1-PadC29)*%
X72271400Y-74262800D03*
%TO.P,U1,C30,C30*%
%TO.N,unconnected-(U1-PadC30)*%
X72271400Y-75380400D03*
%TO.P,U1,C31,C31*%
%TO.N,unconnected-(U1-PadC31)*%
X72271400Y-76498000D03*
%TO.P,U1,C34,C34*%
%TO.N,unconnected-(U1-PadC34)*%
X72271400Y-79850800D03*
%TO.P,U1,C35,C35*%
%TO.N,unconnected-(U1-PadC35)*%
X72271400Y-80968400D03*
%TO.P,U1,C36,C36*%
%TO.N,unconnected-(U1-PadC36)*%
X72271400Y-82086000D03*
%TO.P,U1,C37,C37*%
%TO.N,unconnected-(U1-PadC37)*%
X72271400Y-83203600D03*
%TO.P,U1,C38,C38*%
%TO.N,unconnected-(U1-PadC38)*%
X72271400Y-84321200D03*
%TO.P,U1,C39,C39*%
%TO.N,unconnected-(U1-PadC39)*%
X72271400Y-85438800D03*
%TO.P,U1,C40,C40*%
%TO.N,unconnected-(U1-PadC40)*%
X72271400Y-86556400D03*
%TO.P,U1,C41,C41*%
%TO.N,unconnected-(U1-PadC41)*%
X72271400Y-87674000D03*
%TO.P,U1,C42,C42*%
%TO.N,unconnected-(U1-PadC42)*%
X72271400Y-88791600D03*
%TO.P,U1,C46,C46*%
%TO.N,unconnected-(U1-PadC46)*%
X72271400Y-93262000D03*
%TO.P,U1,C47,C47*%
%TO.N,unconnected-(U1-PadC47)*%
X72271400Y-94379600D03*
%TO.P,U1,C48,C48*%
%TO.N,unconnected-(U1-PadC48)*%
X72271400Y-95497200D03*
%TO.P,U1,C49,C49*%
%TO.N,unconnected-(U1-PadC49)*%
X72271400Y-96614800D03*
%TO.P,U1,C50,C50*%
%TO.N,unconnected-(U1-PadC50)*%
X72271400Y-97732400D03*
%TO.P,U1,C51,C51*%
%TO.N,unconnected-(U1-PadC51)*%
X72271400Y-98850000D03*
%TO.P,U1,C52,C52*%
%TO.N,unconnected-(U1-PadC52)*%
X72271400Y-99967600D03*
%TO.P,U1,C53,C53*%
%TO.N,unconnected-(U1-PadC53)*%
X72271400Y-101085200D03*
%TO.P,U1,C54,C54*%
%TO.N,unconnected-(U1-PadC54)*%
X72271400Y-102202800D03*
%TO.P,U1,C57,C57*%
%TO.N,unconnected-(U1-PadC57)*%
X72271400Y-105555600D03*
%TO.P,U1,C58,C58*%
%TO.N,unconnected-(U1-PadC58)*%
X72271400Y-106673200D03*
%TO.P,U1,C59,C59*%
%TO.N,unconnected-(U1-PadC59)*%
X72271400Y-107790800D03*
%TO.P,U1,C60,C60*%
%TO.N,unconnected-(U1-PadC60)*%
X72271400Y-108908400D03*
%TO.P,U1,C61,C61*%
%TO.N,unconnected-(U1-PadC61)*%
X72271400Y-110026000D03*
%TO.P,U1,C62,C62*%
%TO.N,unconnected-(U1-PadC62)*%
X72271400Y-111143600D03*
%TO.P,U1,C63,C63*%
%TO.N,unconnected-(U1-PadC63)*%
X72271400Y-112261200D03*
%TO.P,U1,C64,C64*%
%TO.N,unconnected-(U1-PadC64)*%
X72271400Y-113378800D03*
%TO.P,U1,C65,C65*%
%TO.N,unconnected-(U1-PadC65)*%
X72271400Y-114496400D03*
%TO.P,U1,C68,C68*%
%TO.N,unconnected-(U1-PadC68)*%
X72271400Y-117849200D03*
%TO.P,U1,C69,C69*%
%TO.N,unconnected-(U1-PadC69)*%
X72271400Y-118966800D03*
%TO.P,U1,C70,C70*%
%TO.N,unconnected-(U1-PadC70)*%
X72271400Y-120084400D03*
%TO.P,U1,C71,C71*%
%TO.N,unconnected-(U1-PadC71)*%
X72271400Y-121202000D03*
%TO.P,U1,C72,C72*%
%TO.N,unconnected-(U1-PadC72)*%
X72271400Y-122319600D03*
%TO.P,U1,C73,C73*%
%TO.N,unconnected-(U1-PadC73)*%
X72271400Y-123437200D03*
%TO.P,U1,C74,C74*%
%TO.N,unconnected-(U1-PadC74)*%
X72271400Y-124554800D03*
%TO.P,U1,C75,C75*%
%TO.N,unconnected-(U1-PadC75)*%
X72271400Y-125672400D03*
%TO.P,U1,C76,C76*%
%TO.N,unconnected-(U1-PadC76)*%
X72271400Y-126790000D03*
%TO.P,U1,C79,C79*%
%TO.N,unconnected-(U1-PadC79)*%
X72271400Y-130142800D03*
%TO.P,U1,C80,C80*%
%TO.N,unconnected-(U1-PadC80)*%
X72271400Y-131260400D03*
%TO.P,U1,C81,C81*%
%TO.N,unconnected-(U1-PadC81)*%
X72271400Y-132378000D03*
%TO.P,U1,C82,C82*%
%TO.N,unconnected-(U1-PadC82)*%
X72271400Y-133495600D03*
%TO.P,U1,C83,C83*%
%TO.N,unconnected-(U1-PadC83)*%
X72271400Y-134613200D03*
%TO.P,U1,C84,C84*%
%TO.N,unconnected-(U1-PadC84)*%
X72271400Y-135730800D03*
%TO.P,U1,C85,C85*%
%TO.N,unconnected-(U1-PadC85)*%
X72271400Y-136848400D03*
%TO.P,U1,C86,C86*%
%TO.N,unconnected-(U1-PadC86)*%
X72271400Y-137966000D03*
%TO.P,U1,C87,C87*%
%TO.N,unconnected-(U1-PadC87)*%
X72271400Y-139083600D03*
%TO.P,U1,D1,D1*%
%TO.N,unconnected-(U1-PadD1)*%
X73389000Y-42970000D03*
%TO.P,U1,D2,D2*%
%TO.N,unconnected-(U1-PadD2)*%
X73389000Y-44087600D03*
%TO.P,U1,D3,D3*%
%TO.N,unconnected-(U1-PadD3)*%
X73389000Y-45205200D03*
%TO.P,U1,D4,D4*%
%TO.N,unconnected-(U1-PadD4)*%
X73389000Y-46322800D03*
%TO.P,U1,D5,D5*%
%TO.N,unconnected-(U1-PadD5)*%
X73389000Y-47440400D03*
%TO.P,U1,D6,D6*%
%TO.N,unconnected-(U1-PadD6)*%
X73389000Y-48558000D03*
%TO.P,U1,D7,D7*%
%TO.N,unconnected-(U1-PadD7)*%
X73389000Y-49675600D03*
%TO.P,U1,D8,D8*%
%TO.N,unconnected-(U1-PadD8)*%
X73389000Y-50793200D03*
%TO.P,U1,D9,D9*%
%TO.N,unconnected-(U1-PadD9)*%
X73389000Y-51910800D03*
%TO.P,U1,D12,D12*%
%TO.N,unconnected-(U1-PadD12)*%
X73389000Y-55263600D03*
%TO.P,U1,D13,D13*%
%TO.N,unconnected-(U1-PadD13)*%
X73389000Y-56381200D03*
%TO.P,U1,D14,D14*%
%TO.N,unconnected-(U1-PadD14)*%
X73389000Y-57498800D03*
%TO.P,U1,D15,D15*%
%TO.N,unconnected-(U1-PadD15)*%
X73389000Y-58616400D03*
%TO.P,U1,D16,D16*%
%TO.N,unconnected-(U1-PadD16)*%
X73389000Y-59734000D03*
%TO.P,U1,D17,D17*%
%TO.N,unconnected-(U1-PadD17)*%
X73389000Y-60851600D03*
%TO.P,U1,D18,D18*%
%TO.N,unconnected-(U1-PadD18)*%
X73389000Y-61969200D03*
%TO.P,U1,D19,D19*%
%TO.N,unconnected-(U1-PadD19)*%
X73389000Y-63086800D03*
%TO.P,U1,D20,D20*%
%TO.N,unconnected-(U1-PadD20)*%
X73389000Y-64204400D03*
%TO.P,U1,D23,D23*%
%TO.N,unconnected-(U1-PadD23)*%
X73389000Y-67557200D03*
%TO.P,U1,D24,D24*%
%TO.N,unconnected-(U1-PadD24)*%
X73389000Y-68674800D03*
%TO.P,U1,D25,D25*%
%TO.N,unconnected-(U1-PadD25)*%
X73389000Y-69792400D03*
%TO.P,U1,D26,D26*%
%TO.N,unconnected-(U1-PadD26)*%
X73389000Y-70910000D03*
%TO.P,U1,D27,D27*%
%TO.N,unconnected-(U1-PadD27)*%
X73389000Y-72027600D03*
%TO.P,U1,D28,D28*%
%TO.N,unconnected-(U1-PadD28)*%
X73389000Y-73145200D03*
%TO.P,U1,D29,D29*%
%TO.N,unconnected-(U1-PadD29)*%
X73389000Y-74262800D03*
%TO.P,U1,D30,D30*%
%TO.N,unconnected-(U1-PadD30)*%
X73389000Y-75380400D03*
%TO.P,U1,D31,D31*%
%TO.N,unconnected-(U1-PadD31)*%
X73389000Y-76498000D03*
%TO.P,U1,D34,D34*%
%TO.N,unconnected-(U1-PadD34)*%
X73389000Y-79850800D03*
%TO.P,U1,D35,D35*%
%TO.N,unconnected-(U1-PadD35)*%
X73389000Y-80968400D03*
%TO.P,U1,D36,D36*%
%TO.N,unconnected-(U1-PadD36)*%
X73389000Y-82086000D03*
%TO.P,U1,D37,D37*%
%TO.N,unconnected-(U1-PadD37)*%
X73389000Y-83203600D03*
%TO.P,U1,D38,D38*%
%TO.N,unconnected-(U1-PadD38)*%
X73389000Y-84321200D03*
%TO.P,U1,D39,D39*%
%TO.N,unconnected-(U1-PadD39)*%
X73389000Y-85438800D03*
%TO.P,U1,D40,D40*%
%TO.N,unconnected-(U1-PadD40)*%
X73389000Y-86556400D03*
%TO.P,U1,D41,D41*%
%TO.N,unconnected-(U1-PadD41)*%
X73389000Y-87674000D03*
%TO.P,U1,D42,D42*%
%TO.N,unconnected-(U1-PadD42)*%
X73389000Y-88791600D03*
%TO.P,U1,D46,D46*%
%TO.N,unconnected-(U1-PadD46)*%
X73389000Y-93262000D03*
%TO.P,U1,D47,D47*%
%TO.N,unconnected-(U1-PadD47)*%
X73389000Y-94379600D03*
%TO.P,U1,D48,D48*%
%TO.N,unconnected-(U1-PadD48)*%
X73389000Y-95497200D03*
%TO.P,U1,D49,D49*%
%TO.N,unconnected-(U1-PadD49)*%
X73389000Y-96614800D03*
%TO.P,U1,D50,D50*%
%TO.N,unconnected-(U1-PadD50)*%
X73389000Y-97732400D03*
%TO.P,U1,D51,D51*%
%TO.N,unconnected-(U1-PadD51)*%
X73389000Y-98850000D03*
%TO.P,U1,D52,D52*%
%TO.N,unconnected-(U1-PadD52)*%
X73389000Y-99967600D03*
%TO.P,U1,D53,D53*%
%TO.N,unconnected-(U1-PadD53)*%
X73389000Y-101085200D03*
%TO.P,U1,D54,D54*%
%TO.N,unconnected-(U1-PadD54)*%
X73389000Y-102202800D03*
%TO.P,U1,D57,D57*%
%TO.N,unconnected-(U1-PadD57)*%
X73389000Y-105555600D03*
%TO.P,U1,D58,D58*%
%TO.N,unconnected-(U1-PadD58)*%
X73389000Y-106673200D03*
%TO.P,U1,D59,D59*%
%TO.N,unconnected-(U1-PadD59)*%
X73389000Y-107790800D03*
%TO.P,U1,D60,D60*%
%TO.N,unconnected-(U1-PadD60)*%
X73389000Y-108908400D03*
%TO.P,U1,D61,D61*%
%TO.N,unconnected-(U1-PadD61)*%
X73389000Y-110026000D03*
%TO.P,U1,D62,D62*%
%TO.N,unconnected-(U1-PadD62)*%
X73389000Y-111143600D03*
%TO.P,U1,D63,D63*%
%TO.N,unconnected-(U1-PadD63)*%
X73389000Y-112261200D03*
%TO.P,U1,D64,D64*%
%TO.N,unconnected-(U1-PadD64)*%
X73389000Y-113378800D03*
%TO.P,U1,D65,D65*%
%TO.N,unconnected-(U1-PadD65)*%
X73389000Y-114496400D03*
%TO.P,U1,D68,D68*%
%TO.N,unconnected-(U1-PadD68)*%
X73389000Y-117849200D03*
%TO.P,U1,D69,D69*%
%TO.N,unconnected-(U1-PadD69)*%
X73389000Y-118966800D03*
%TO.P,U1,D70,D70*%
%TO.N,unconnected-(U1-PadD70)*%
X73389000Y-120084400D03*
%TO.P,U1,D71,D71*%
%TO.N,unconnected-(U1-PadD71)*%
X73389000Y-121202000D03*
%TO.P,U1,D72,D72*%
%TO.N,unconnected-(U1-PadD72)*%
X73389000Y-122319600D03*
%TO.P,U1,D73,D73*%
%TO.N,unconnected-(U1-PadD73)*%
X73389000Y-123437200D03*
%TO.P,U1,D74,D74*%
%TO.N,unconnected-(U1-PadD74)*%
X73389000Y-124554800D03*
%TO.P,U1,D75,D75*%
%TO.N,unconnected-(U1-PadD75)*%
X73389000Y-125672400D03*
%TO.P,U1,D76,D76*%
%TO.N,unconnected-(U1-PadD76)*%
X73389000Y-126790000D03*
%TO.P,U1,D79,D79*%
%TO.N,unconnected-(U1-PadD79)*%
X73389000Y-130142800D03*
%TO.P,U1,D80,D80*%
%TO.N,unconnected-(U1-PadD80)*%
X73389000Y-131260400D03*
%TO.P,U1,D81,D81*%
%TO.N,unconnected-(U1-PadD81)*%
X73389000Y-132378000D03*
%TO.P,U1,D82,D82*%
%TO.N,unconnected-(U1-PadD82)*%
X73389000Y-133495600D03*
%TO.P,U1,D83,D83*%
%TO.N,unconnected-(U1-PadD83)*%
X73389000Y-134613200D03*
%TO.P,U1,D84,D84*%
%TO.N,unconnected-(U1-PadD84)*%
X73389000Y-135730800D03*
%TO.P,U1,D85,D85*%
%TO.N,unconnected-(U1-PadD85)*%
X73389000Y-136848400D03*
%TO.P,U1,D86,D86*%
%TO.N,unconnected-(U1-PadD86)*%
X73389000Y-137966000D03*
%TO.P,U1,D87,D87*%
%TO.N,unconnected-(U1-PadD87)*%
X73389000Y-139083600D03*
%TO.P,U1,E1,E1*%
%TO.N,unconnected-(U1-PadE1)*%
X74506600Y-42970000D03*
%TO.P,U1,E2,E2*%
%TO.N,unconnected-(U1-PadE2)*%
X74506600Y-44087600D03*
%TO.P,U1,E3,E3*%
%TO.N,unconnected-(U1-PadE3)*%
X74506600Y-45205200D03*
%TO.P,U1,E4,E4*%
%TO.N,unconnected-(U1-PadE4)*%
X74506600Y-46322800D03*
%TO.P,U1,E5,E5*%
%TO.N,unconnected-(U1-PadE5)*%
X74506600Y-47440400D03*
%TO.P,U1,E6,E6*%
%TO.N,unconnected-(U1-PadE6)*%
X74506600Y-48558000D03*
%TO.P,U1,E7,E7*%
%TO.N,unconnected-(U1-PadE7)*%
X74506600Y-49675600D03*
%TO.P,U1,E8,E8*%
%TO.N,unconnected-(U1-PadE8)*%
X74506600Y-50793200D03*
%TO.P,U1,E9,E9*%
%TO.N,unconnected-(U1-PadE9)*%
X74506600Y-51910800D03*
%TO.P,U1,E12,E12*%
%TO.N,unconnected-(U1-PadE12)*%
X74506600Y-55263600D03*
%TO.P,U1,E13,E13*%
%TO.N,unconnected-(U1-PadE13)*%
X74506600Y-56381200D03*
%TO.P,U1,E14,E14*%
%TO.N,unconnected-(U1-PadE14)*%
X74506600Y-57498800D03*
%TO.P,U1,E15,E15*%
%TO.N,unconnected-(U1-PadE15)*%
X74506600Y-58616400D03*
%TO.P,U1,E16,E16*%
%TO.N,unconnected-(U1-PadE16)*%
X74506600Y-59734000D03*
%TO.P,U1,E17,E17*%
%TO.N,unconnected-(U1-PadE17)*%
X74506600Y-60851600D03*
%TO.P,U1,E18,E18*%
%TO.N,unconnected-(U1-PadE18)*%
X74506600Y-61969200D03*
%TO.P,U1,E19,E19*%
%TO.N,unconnected-(U1-PadE19)*%
X74506600Y-63086800D03*
%TO.P,U1,E20,E20*%
%TO.N,unconnected-(U1-PadE20)*%
X74506600Y-64204400D03*
%TO.P,U1,E23,E23*%
%TO.N,unconnected-(U1-PadE23)*%
X74506600Y-67557200D03*
%TO.P,U1,E24,E24*%
%TO.N,unconnected-(U1-PadE24)*%
X74506600Y-68674800D03*
%TO.P,U1,E25,E25*%
%TO.N,unconnected-(U1-PadE25)*%
X74506600Y-69792400D03*
%TO.P,U1,E26,E26*%
%TO.N,unconnected-(U1-PadE26)*%
X74506600Y-70910000D03*
%TO.P,U1,E27,E27*%
%TO.N,unconnected-(U1-PadE27)*%
X74506600Y-72027600D03*
%TO.P,U1,E28,E28*%
%TO.N,unconnected-(U1-PadE28)*%
X74506600Y-73145200D03*
%TO.P,U1,E29,E29*%
%TO.N,unconnected-(U1-PadE29)*%
X74506600Y-74262800D03*
%TO.P,U1,E30,E30*%
%TO.N,unconnected-(U1-PadE30)*%
X74506600Y-75380400D03*
%TO.P,U1,E31,E31*%
%TO.N,unconnected-(U1-PadE31)*%
X74506600Y-76498000D03*
%TO.P,U1,E34,E34*%
%TO.N,unconnected-(U1-PadE34)*%
X74506600Y-79850800D03*
%TO.P,U1,E35,E35*%
%TO.N,unconnected-(U1-PadE35)*%
X74506600Y-80968400D03*
%TO.P,U1,E36,E36*%
%TO.N,unconnected-(U1-PadE36)*%
X74506600Y-82086000D03*
%TO.P,U1,E37,E37*%
%TO.N,unconnected-(U1-PadE37)*%
X74506600Y-83203600D03*
%TO.P,U1,E38,E38*%
%TO.N,unconnected-(U1-PadE38)*%
X74506600Y-84321200D03*
%TO.P,U1,E39,E39*%
%TO.N,unconnected-(U1-PadE39)*%
X74506600Y-85438800D03*
%TO.P,U1,E40,E40*%
%TO.N,unconnected-(U1-PadE40)*%
X74506600Y-86556400D03*
%TO.P,U1,E41,E41*%
%TO.N,unconnected-(U1-PadE41)*%
X74506600Y-87674000D03*
%TO.P,U1,E42,E42*%
%TO.N,unconnected-(U1-PadE42)*%
X74506600Y-88791600D03*
%TO.P,U1,E46,E46*%
%TO.N,unconnected-(U1-PadE46)*%
X74506600Y-93262000D03*
%TO.P,U1,E47,E47*%
%TO.N,unconnected-(U1-PadE47)*%
X74506600Y-94379600D03*
%TO.P,U1,E48,E48*%
%TO.N,unconnected-(U1-PadE48)*%
X74506600Y-95497200D03*
%TO.P,U1,E49,E49*%
%TO.N,unconnected-(U1-PadE49)*%
X74506600Y-96614800D03*
%TO.P,U1,E50,E50*%
%TO.N,unconnected-(U1-PadE50)*%
X74506600Y-97732400D03*
%TO.P,U1,E51,E51*%
%TO.N,unconnected-(U1-PadE51)*%
X74506600Y-98850000D03*
%TO.P,U1,E52,E52*%
%TO.N,unconnected-(U1-PadE52)*%
X74506600Y-99967600D03*
%TO.P,U1,E53,E53*%
%TO.N,unconnected-(U1-PadE53)*%
X74506600Y-101085200D03*
%TO.P,U1,E54,E54*%
%TO.N,unconnected-(U1-PadE54)*%
X74506600Y-102202800D03*
%TO.P,U1,E57,E57*%
%TO.N,unconnected-(U1-PadE57)*%
X74506600Y-105555600D03*
%TO.P,U1,E58,E58*%
%TO.N,unconnected-(U1-PadE58)*%
X74506600Y-106673200D03*
%TO.P,U1,E59,E59*%
%TO.N,unconnected-(U1-PadE59)*%
X74506600Y-107790800D03*
%TO.P,U1,E60,E60*%
%TO.N,unconnected-(U1-PadE60)*%
X74506600Y-108908400D03*
%TO.P,U1,E61,E61*%
%TO.N,unconnected-(U1-PadE61)*%
X74506600Y-110026000D03*
%TO.P,U1,E62,E62*%
%TO.N,unconnected-(U1-PadE62)*%
X74506600Y-111143600D03*
%TO.P,U1,E63,E63*%
%TO.N,unconnected-(U1-PadE63)*%
X74506600Y-112261200D03*
%TO.P,U1,E64,E64*%
%TO.N,unconnected-(U1-PadE64)*%
X74506600Y-113378800D03*
%TO.P,U1,E65,E65*%
%TO.N,unconnected-(U1-PadE65)*%
X74506600Y-114496400D03*
%TO.P,U1,E68,E68*%
%TO.N,unconnected-(U1-PadE68)*%
X74506600Y-117849200D03*
%TO.P,U1,E69,E69*%
%TO.N,unconnected-(U1-PadE69)*%
X74506600Y-118966800D03*
%TO.P,U1,E70,E70*%
%TO.N,unconnected-(U1-PadE70)*%
X74506600Y-120084400D03*
%TO.P,U1,E71,E71*%
%TO.N,unconnected-(U1-PadE71)*%
X74506600Y-121202000D03*
%TO.P,U1,E72,E72*%
%TO.N,unconnected-(U1-PadE72)*%
X74506600Y-122319600D03*
%TO.P,U1,E73,E73*%
%TO.N,unconnected-(U1-PadE73)*%
X74506600Y-123437200D03*
%TO.P,U1,E74,E74*%
%TO.N,unconnected-(U1-PadE74)*%
X74506600Y-124554800D03*
%TO.P,U1,E75,E75*%
%TO.N,unconnected-(U1-PadE75)*%
X74506600Y-125672400D03*
%TO.P,U1,E76,E76*%
%TO.N,unconnected-(U1-PadE76)*%
X74506600Y-126790000D03*
%TO.P,U1,E79,E79*%
%TO.N,unconnected-(U1-PadE79)*%
X74506600Y-130142800D03*
%TO.P,U1,E80,E80*%
%TO.N,unconnected-(U1-PadE80)*%
X74506600Y-131260400D03*
%TO.P,U1,E81,E81*%
%TO.N,unconnected-(U1-PadE81)*%
X74506600Y-132378000D03*
%TO.P,U1,E82,E82*%
%TO.N,unconnected-(U1-PadE82)*%
X74506600Y-133495600D03*
%TO.P,U1,E83,E83*%
%TO.N,unconnected-(U1-PadE83)*%
X74506600Y-134613200D03*
%TO.P,U1,E84,E84*%
%TO.N,unconnected-(U1-PadE84)*%
X74506600Y-135730800D03*
%TO.P,U1,E85,E85*%
%TO.N,unconnected-(U1-PadE85)*%
X74506600Y-136848400D03*
%TO.P,U1,E86,E86*%
%TO.N,unconnected-(U1-PadE86)*%
X74506600Y-137966000D03*
%TO.P,U1,E87,E87*%
%TO.N,unconnected-(U1-PadE87)*%
X74506600Y-139083600D03*
%TO.P,U1,F1,F1*%
%TO.N,unconnected-(U1-PadF1)*%
X75624200Y-42970000D03*
%TO.P,U1,F2,F2*%
%TO.N,unconnected-(U1-PadF2)*%
X75624200Y-44087600D03*
%TO.P,U1,F3,F3*%
%TO.N,unconnected-(U1-PadF3)*%
X75624200Y-45205200D03*
%TO.P,U1,F4,F4*%
%TO.N,unconnected-(U1-PadF4)*%
X75624200Y-46322800D03*
%TO.P,U1,F5,F5*%
%TO.N,unconnected-(U1-PadF5)*%
X75624200Y-47440400D03*
%TO.P,U1,F6,F6*%
%TO.N,unconnected-(U1-PadF6)*%
X75624200Y-48558000D03*
%TO.P,U1,F7,F7*%
%TO.N,unconnected-(U1-PadF7)*%
X75624200Y-49675600D03*
%TO.P,U1,F8,F8*%
%TO.N,unconnected-(U1-PadF8)*%
X75624200Y-50793200D03*
%TO.P,U1,F9,F9*%
%TO.N,unconnected-(U1-PadF9)*%
X75624200Y-51910800D03*
%TO.P,U1,F12,F12*%
%TO.N,unconnected-(U1-PadF12)*%
X75624200Y-55263600D03*
%TO.P,U1,F13,F13*%
%TO.N,unconnected-(U1-PadF13)*%
X75624200Y-56381200D03*
%TO.P,U1,F14,F14*%
%TO.N,unconnected-(U1-PadF14)*%
X75624200Y-57498800D03*
%TO.P,U1,F15,F15*%
%TO.N,unconnected-(U1-PadF15)*%
X75624200Y-58616400D03*
%TO.P,U1,F16,F16*%
%TO.N,unconnected-(U1-PadF16)*%
X75624200Y-59734000D03*
%TO.P,U1,F17,F17*%
%TO.N,unconnected-(U1-PadF17)*%
X75624200Y-60851600D03*
%TO.P,U1,F18,F18*%
%TO.N,unconnected-(U1-PadF18)*%
X75624200Y-61969200D03*
%TO.P,U1,F19,F19*%
%TO.N,unconnected-(U1-PadF19)*%
X75624200Y-63086800D03*
%TO.P,U1,F20,F20*%
%TO.N,unconnected-(U1-PadF20)*%
X75624200Y-64204400D03*
%TO.P,U1,F23,F23*%
%TO.N,unconnected-(U1-PadF23)*%
X75624200Y-67557200D03*
%TO.P,U1,F24,F24*%
%TO.N,unconnected-(U1-PadF24)*%
X75624200Y-68674800D03*
%TO.P,U1,F25,F25*%
%TO.N,unconnected-(U1-PadF25)*%
X75624200Y-69792400D03*
%TO.P,U1,F26,F26*%
%TO.N,unconnected-(U1-PadF26)*%
X75624200Y-70910000D03*
%TO.P,U1,F27,F27*%
%TO.N,unconnected-(U1-PadF27)*%
X75624200Y-72027600D03*
%TO.P,U1,F28,F28*%
%TO.N,unconnected-(U1-PadF28)*%
X75624200Y-73145200D03*
%TO.P,U1,F29,F29*%
%TO.N,unconnected-(U1-PadF29)*%
X75624200Y-74262800D03*
%TO.P,U1,F30,F30*%
%TO.N,unconnected-(U1-PadF30)*%
X75624200Y-75380400D03*
%TO.P,U1,F31,F31*%
%TO.N,unconnected-(U1-PadF31)*%
X75624200Y-76498000D03*
%TO.P,U1,F34,F34*%
%TO.N,unconnected-(U1-PadF34)*%
X75624200Y-79850800D03*
%TO.P,U1,F35,F35*%
%TO.N,unconnected-(U1-PadF35)*%
X75624200Y-80968400D03*
%TO.P,U1,F36,F36*%
%TO.N,unconnected-(U1-PadF36)*%
X75624200Y-82086000D03*
%TO.P,U1,F37,F37*%
%TO.N,unconnected-(U1-PadF37)*%
X75624200Y-83203600D03*
%TO.P,U1,F38,F38*%
%TO.N,unconnected-(U1-PadF38)*%
X75624200Y-84321200D03*
%TO.P,U1,F39,F39*%
%TO.N,unconnected-(U1-PadF39)*%
X75624200Y-85438800D03*
%TO.P,U1,F40,F40*%
%TO.N,unconnected-(U1-PadF40)*%
X75624200Y-86556400D03*
%TO.P,U1,F41,F41*%
%TO.N,unconnected-(U1-PadF41)*%
X75624200Y-87674000D03*
%TO.P,U1,F42,F42*%
%TO.N,unconnected-(U1-PadF42)*%
X75624200Y-88791600D03*
%TO.P,U1,F46,F46*%
%TO.N,unconnected-(U1-PadF46)*%
X75624200Y-93262000D03*
%TO.P,U1,F47,F47*%
%TO.N,unconnected-(U1-PadF47)*%
X75624200Y-94379600D03*
%TO.P,U1,F48,F48*%
%TO.N,unconnected-(U1-PadF48)*%
X75624200Y-95497200D03*
%TO.P,U1,F49,F49*%
%TO.N,unconnected-(U1-PadF49)*%
X75624200Y-96614800D03*
%TO.P,U1,F50,F50*%
%TO.N,unconnected-(U1-PadF50)*%
X75624200Y-97732400D03*
%TO.P,U1,F51,F51*%
%TO.N,unconnected-(U1-PadF51)*%
X75624200Y-98850000D03*
%TO.P,U1,F52,F52*%
%TO.N,unconnected-(U1-PadF52)*%
X75624200Y-99967600D03*
%TO.P,U1,F53,F53*%
%TO.N,unconnected-(U1-PadF53)*%
X75624200Y-101085200D03*
%TO.P,U1,F54,F54*%
%TO.N,unconnected-(U1-PadF54)*%
X75624200Y-102202800D03*
%TO.P,U1,F57,F57*%
%TO.N,unconnected-(U1-PadF57)*%
X75624200Y-105555600D03*
%TO.P,U1,F58,F58*%
%TO.N,unconnected-(U1-PadF58)*%
X75624200Y-106673200D03*
%TO.P,U1,F59,F59*%
%TO.N,unconnected-(U1-PadF59)*%
X75624200Y-107790800D03*
%TO.P,U1,F60,F60*%
%TO.N,unconnected-(U1-PadF60)*%
X75624200Y-108908400D03*
%TO.P,U1,F61,F61*%
%TO.N,unconnected-(U1-PadF61)*%
X75624200Y-110026000D03*
%TO.P,U1,F62,F62*%
%TO.N,unconnected-(U1-PadF62)*%
X75624200Y-111143600D03*
%TO.P,U1,F63,F63*%
%TO.N,unconnected-(U1-PadF63)*%
X75624200Y-112261200D03*
%TO.P,U1,F64,F64*%
%TO.N,unconnected-(U1-PadF64)*%
X75624200Y-113378800D03*
%TO.P,U1,F65,F65*%
%TO.N,unconnected-(U1-PadF65)*%
X75624200Y-114496400D03*
%TO.P,U1,F68,F68*%
%TO.N,unconnected-(U1-PadF68)*%
X75624200Y-117849200D03*
%TO.P,U1,F69,F69*%
%TO.N,unconnected-(U1-PadF69)*%
X75624200Y-118966800D03*
%TO.P,U1,F70,F70*%
%TO.N,unconnected-(U1-PadF70)*%
X75624200Y-120084400D03*
%TO.P,U1,F71,F71*%
%TO.N,unconnected-(U1-PadF71)*%
X75624200Y-121202000D03*
%TO.P,U1,F72,F72*%
%TO.N,unconnected-(U1-PadF72)*%
X75624200Y-122319600D03*
%TO.P,U1,F73,F73*%
%TO.N,unconnected-(U1-PadF73)*%
X75624200Y-123437200D03*
%TO.P,U1,F74,F74*%
%TO.N,unconnected-(U1-PadF74)*%
X75624200Y-124554800D03*
%TO.P,U1,F75,F75*%
%TO.N,unconnected-(U1-PadF75)*%
X75624200Y-125672400D03*
%TO.P,U1,F76,F76*%
%TO.N,unconnected-(U1-PadF76)*%
X75624200Y-126790000D03*
%TO.P,U1,F79,F79*%
%TO.N,unconnected-(U1-PadF79)*%
X75624200Y-130142800D03*
%TO.P,U1,F80,F80*%
%TO.N,unconnected-(U1-PadF80)*%
X75624200Y-131260400D03*
%TO.P,U1,F81,F81*%
%TO.N,unconnected-(U1-PadF81)*%
X75624200Y-132378000D03*
%TO.P,U1,F82,F82*%
%TO.N,unconnected-(U1-PadF82)*%
X75624200Y-133495600D03*
%TO.P,U1,F83,F83*%
%TO.N,unconnected-(U1-PadF83)*%
X75624200Y-134613200D03*
%TO.P,U1,F84,F84*%
%TO.N,unconnected-(U1-PadF84)*%
X75624200Y-135730800D03*
%TO.P,U1,F85,F85*%
%TO.N,unconnected-(U1-PadF85)*%
X75624200Y-136848400D03*
%TO.P,U1,F86,F86*%
%TO.N,unconnected-(U1-PadF86)*%
X75624200Y-137966000D03*
%TO.P,U1,F87,F87*%
%TO.N,unconnected-(U1-PadF87)*%
X75624200Y-139083600D03*
%TO.P,U1,G1,G1*%
%TO.N,/FB2.LF*%
X76741800Y-42970000D03*
%TO.P,U1,G2,G2*%
%TO.N,unconnected-(U1-PadG2)*%
X76741800Y-44087600D03*
%TO.P,U1,G3,G3*%
%TO.N,/FB2.HF6*%
X76741800Y-45205200D03*
%TO.P,U1,G4,G4*%
%TO.N,unconnected-(U1-PadG4)*%
X76741800Y-46322800D03*
%TO.P,U1,G5,G5*%
%TO.N,/FB2.LF*%
X76741800Y-47440400D03*
%TO.P,U1,G6,G6*%
%TO.N,/FB2.PREF.F*%
X76741800Y-48558000D03*
%TO.P,U1,G7,G7*%
%TO.N,/FB2.LF*%
X76741800Y-49675600D03*
%TO.P,U1,G8,G8*%
%TO.N,/FB2.PREF.HS*%
X76741800Y-50793200D03*
%TO.P,U1,G9,G9*%
%TO.N,/FB2.LF*%
X76741800Y-51910800D03*
%TO.P,U1,G12,G12*%
%TO.N,/FB2.HF5*%
X76741800Y-55263600D03*
%TO.P,U1,G13,G13*%
%TO.N,unconnected-(U1-PadG13)*%
X76741800Y-56381200D03*
%TO.P,U1,G14,G14*%
%TO.N,/FB2.LF*%
X76741800Y-57498800D03*
%TO.P,U1,G15,G15*%
%TO.N,/FB2.MFDCLK.N*%
X76741800Y-58616400D03*
%TO.P,U1,G16,G16*%
%TO.N,/FB2.LF*%
X76741800Y-59734000D03*
%TO.P,U1,G17,G17*%
%TO.N,/FB2.MFD.N*%
X76741800Y-60851600D03*
%TO.P,U1,G18,G18*%
%TO.N,/FB2.LF*%
X76741800Y-61969200D03*
%TO.P,U1,G19,G19*%
%TO.N,unconnected-(U1-PadG19)*%
X76741800Y-63086800D03*
%TO.P,U1,G20,G20*%
%TO.N,/FB2.HF4*%
X76741800Y-64204400D03*
%TO.P,U1,G23,G23*%
%TO.N,/FB2.LF*%
X76741800Y-67557200D03*
%TO.P,U1,G24,G24*%
%TO.N,/FB2.MLDCLK.N*%
X76741800Y-68674800D03*
%TO.P,U1,G25,G25*%
%TO.N,/FB2.LF*%
X76741800Y-69792400D03*
%TO.P,U1,G26,G26*%
%TO.N,/FB2.MLD.N*%
X76741800Y-70910000D03*
%TO.P,U1,G27,G27*%
%TO.N,/FB2.LF*%
X76741800Y-72027600D03*
%TO.P,U1,G28,G28*%
%TO.N,unconnected-(U1-PadG28)*%
X76741800Y-73145200D03*
%TO.P,U1,G29,G29*%
%TO.N,/FB2.HF3*%
X76741800Y-74262800D03*
%TO.P,U1,G30,G30*%
%TO.N,unconnected-(U1-PadG30)*%
X76741800Y-75380400D03*
%TO.P,U1,G31,G31*%
%TO.N,unconnected-(U1-PadG31)*%
X76741800Y-76498000D03*
%TO.P,U1,G34,G34*%
%TO.N,/FB2.HF2*%
X76741800Y-79850800D03*
%TO.P,U1,G35,G35*%
%TO.N,unconnected-(U1-PadG35)*%
X76741800Y-80968400D03*
%TO.P,U1,G36,G36*%
%TO.N,/FB2.LF*%
X76741800Y-82086000D03*
%TO.P,U1,G37,G37*%
%TO.N,unconnected-(U1-PadG37)*%
X76741800Y-83203600D03*
%TO.P,U1,G38,G38*%
%TO.N,/FB2.DVML*%
X76741800Y-84321200D03*
%TO.P,U1,G39,G39*%
%TO.N,unconnected-(U1-PadG39)*%
X76741800Y-85438800D03*
%TO.P,U1,G40,G40*%
%TO.N,/FB2.DVMH*%
X76741800Y-86556400D03*
%TO.P,U1,G41,G41*%
%TO.N,unconnected-(U1-PadG41)*%
X76741800Y-87674000D03*
%TO.P,U1,G42,G42*%
%TO.N,/FB2.HF1*%
X76741800Y-88791600D03*
%TO.P,U1,G46,G46*%
%TO.N,unconnected-(U1-PadG46)*%
X76741800Y-93262000D03*
%TO.P,U1,G47,G47*%
%TO.N,unconnected-(U1-PadG47)*%
X76741800Y-94379600D03*
%TO.P,U1,G48,G48*%
%TO.N,unconnected-(U1-PadG48)*%
X76741800Y-95497200D03*
%TO.P,U1,G49,G49*%
%TO.N,unconnected-(U1-PadG49)*%
X76741800Y-96614800D03*
%TO.P,U1,G50,G50*%
%TO.N,unconnected-(U1-PadG50)*%
X76741800Y-97732400D03*
%TO.P,U1,G51,G51*%
%TO.N,unconnected-(U1-PadG51)*%
X76741800Y-98850000D03*
%TO.P,U1,G52,G52*%
%TO.N,unconnected-(U1-PadG52)*%
X76741800Y-99967600D03*
%TO.P,U1,G53,G53*%
%TO.N,unconnected-(U1-PadG53)*%
X76741800Y-101085200D03*
%TO.P,U1,G54,G54*%
%TO.N,unconnected-(U1-PadG54)*%
X76741800Y-102202800D03*
%TO.P,U1,G57,G57*%
%TO.N,unconnected-(U1-PadG57)*%
X76741800Y-105555600D03*
%TO.P,U1,G58,G58*%
%TO.N,unconnected-(U1-PadG58)*%
X76741800Y-106673200D03*
%TO.P,U1,G59,G59*%
%TO.N,unconnected-(U1-PadG59)*%
X76741800Y-107790800D03*
%TO.P,U1,G60,G60*%
%TO.N,unconnected-(U1-PadG60)*%
X76741800Y-108908400D03*
%TO.P,U1,G61,G61*%
%TO.N,unconnected-(U1-PadG61)*%
X76741800Y-110026000D03*
%TO.P,U1,G62,G62*%
%TO.N,unconnected-(U1-PadG62)*%
X76741800Y-111143600D03*
%TO.P,U1,G63,G63*%
%TO.N,unconnected-(U1-PadG63)*%
X76741800Y-112261200D03*
%TO.P,U1,G64,G64*%
%TO.N,unconnected-(U1-PadG64)*%
X76741800Y-113378800D03*
%TO.P,U1,G65,G65*%
%TO.N,unconnected-(U1-PadG65)*%
X76741800Y-114496400D03*
%TO.P,U1,G68,G68*%
%TO.N,unconnected-(U1-PadG68)*%
X76741800Y-117849200D03*
%TO.P,U1,G69,G69*%
%TO.N,unconnected-(U1-PadG69)*%
X76741800Y-118966800D03*
%TO.P,U1,G70,G70*%
%TO.N,unconnected-(U1-PadG70)*%
X76741800Y-120084400D03*
%TO.P,U1,G71,G71*%
%TO.N,unconnected-(U1-PadG71)*%
X76741800Y-121202000D03*
%TO.P,U1,G72,G72*%
%TO.N,unconnected-(U1-PadG72)*%
X76741800Y-122319600D03*
%TO.P,U1,G73,G73*%
%TO.N,unconnected-(U1-PadG73)*%
X76741800Y-123437200D03*
%TO.P,U1,G74,G74*%
%TO.N,unconnected-(U1-PadG74)*%
X76741800Y-124554800D03*
%TO.P,U1,G75,G75*%
%TO.N,unconnected-(U1-PadG75)*%
X76741800Y-125672400D03*
%TO.P,U1,G76,G76*%
%TO.N,unconnected-(U1-PadG76)*%
X76741800Y-126790000D03*
%TO.P,U1,G79,G79*%
%TO.N,unconnected-(U1-PadG79)*%
X76741800Y-130142800D03*
%TO.P,U1,G80,G80*%
%TO.N,unconnected-(U1-PadG80)*%
X76741800Y-131260400D03*
%TO.P,U1,G81,G81*%
%TO.N,unconnected-(U1-PadG81)*%
X76741800Y-132378000D03*
%TO.P,U1,G82,G82*%
%TO.N,unconnected-(U1-PadG82)*%
X76741800Y-133495600D03*
%TO.P,U1,G83,G83*%
%TO.N,unconnected-(U1-PadG83)*%
X76741800Y-134613200D03*
%TO.P,U1,G84,G84*%
%TO.N,unconnected-(U1-PadG84)*%
X76741800Y-135730800D03*
%TO.P,U1,G85,G85*%
%TO.N,unconnected-(U1-PadG85)*%
X76741800Y-136848400D03*
%TO.P,U1,G86,G86*%
%TO.N,unconnected-(U1-PadG86)*%
X76741800Y-137966000D03*
%TO.P,U1,G87,G87*%
%TO.N,unconnected-(U1-PadG87)*%
X76741800Y-139083600D03*
%TD*%
D11*
%TO.N,/FB3.DVMH*%
X72390000Y-54152800D03*
%TO.N,/FB3.LF*%
X72415400Y-66497200D03*
%TO.N,/FB3.MLDCLK.N*%
X72440800Y-65252600D03*
%TO.N,/FB3.PREF.HS*%
X72475247Y-77825871D03*
%TO.N,/FB3.PREF.F*%
X72237600Y-78486000D03*
%TO.N,/FB2.LF*%
X74472800Y-66471800D03*
%TO.N,/FB2.HF6*%
X74549000Y-53009800D03*
%TO.N,/FB2.HF5*%
X74523600Y-54127400D03*
%TO.N,/FB2.DVML*%
X74472800Y-78841600D03*
%TO.N,/FB2.DVMH*%
X74496876Y-77951276D03*
%TO.N,/FB2.HF4*%
X74472800Y-65227200D03*
%TD*%
D12*
%TO.N,/FB3.DVMH*%
X72390000Y-54152800D02*
X71206858Y-54152800D01*
X69189600Y-46051800D02*
X70036200Y-45205200D01*
X69189600Y-52135542D02*
X69189600Y-46051800D01*
X71206858Y-54152800D02*
X69189600Y-52135542D01*
%TO.N,/FB3.LF*%
X69413900Y-69170100D02*
X70036200Y-69792400D01*
X69413900Y-67108158D02*
X69413900Y-69170100D01*
X72415400Y-66497200D02*
X70024858Y-66497200D01*
X70024858Y-66497200D02*
X69413900Y-67108158D01*
%TO.N,/FB3.MLDCLK.N*%
X69413900Y-64653442D02*
X69413900Y-63709100D01*
X72440800Y-65252600D02*
X70013058Y-65252600D01*
X70013058Y-65252600D02*
X69413900Y-64653442D01*
X69413900Y-63709100D02*
X70036200Y-63086800D01*
%TO.N,/FB3.PREF.HS*%
X72702700Y-78808300D02*
X72313800Y-79197200D01*
X72475247Y-78065896D02*
X72702700Y-78293349D01*
X72702700Y-78293349D02*
X72702700Y-78808300D01*
X69494400Y-79197200D02*
X69316600Y-79375000D01*
X72475247Y-77825871D02*
X72475247Y-78065896D01*
X69316600Y-80248800D02*
X70036200Y-80968400D01*
X72313800Y-79197200D02*
X69494400Y-79197200D01*
X69316600Y-79375000D02*
X69316600Y-80248800D01*
%TO.N,/FB3.PREF.F*%
X72237600Y-78486000D02*
X71856600Y-78867000D01*
X68986400Y-79146400D02*
X68986400Y-82153800D01*
X71856600Y-78867000D02*
X69265800Y-78867000D01*
X68986400Y-82153800D02*
X70036200Y-83203600D01*
X69265800Y-78867000D02*
X68986400Y-79146400D01*
%TO.N,/FB2.LF*%
X74498200Y-66497200D02*
X75681800Y-66497200D01*
X75681800Y-66497200D02*
X76741800Y-67557200D01*
X74472800Y-66471800D02*
X74498200Y-66497200D01*
%TO.N,/FB2.HF6*%
X77622400Y-52101542D02*
X77622400Y-46085800D01*
X76714142Y-53009800D02*
X77622400Y-52101542D01*
X77622400Y-46085800D02*
X76741800Y-45205200D01*
X74549000Y-53009800D02*
X76714142Y-53009800D01*
%TO.N,/FB2.HF5*%
X75605600Y-54127400D02*
X76741800Y-55263600D01*
X74523600Y-54127400D02*
X75605600Y-54127400D01*
%TO.N,/FB2.DVML*%
X76803942Y-78841600D02*
X77622400Y-79660058D01*
X77622400Y-79660058D02*
X77622400Y-83440600D01*
X74472800Y-78841600D02*
X76803942Y-78841600D01*
X77622400Y-83440600D02*
X76741800Y-84321200D01*
%TO.N,/FB2.DVMH*%
X77978000Y-85320200D02*
X76741800Y-86556400D01*
X77978000Y-79603600D02*
X77978000Y-85320200D01*
X76325676Y-77951276D02*
X77978000Y-79603600D01*
X74496876Y-77951276D02*
X76325676Y-77951276D01*
%TO.N,/FB2.HF4*%
X75719000Y-65227200D02*
X76741800Y-64204400D01*
X74472800Y-65227200D02*
X75719000Y-65227200D01*
%TD*%
M02*
